{
.appVersion = "1357";
DisplayStrings = (
"/Ldot.ss04/ldot.ss04/ldot.ss02.ss04/period.ss04/colon.ss04/semicolon.ss04/ellipsis.ss04/exclam.ss04/exclamdown.ss04/question.ss04/questiondown.ss04/periodcentered.ss04/periodcentered.loclCAT.case.ss04/periodcentered.loclCAT.ss04/periodcentered.loclCAT.ss02.ss04/period.dnom.ss04/period.numr.ss04/period.subs.ss04/period.sups.ss04 \012/Ldot.ss04/ldot.ss04/ldot.ss02.ss04 VT/period.ss04 A/colon.ss04/semicolon.ss04 T/ellipsis.ss04/exclam.ss04/exclamdown.ss04/question.ss04/questiondown.ss04/periodcentered.ss04/periodcentered.loclCAT.case.ss04/periodcentered.loclCAT.ss04/periodcentered.loclCAT.ss02.ss04/period.dnom.ss04/period.numr.ss04/period.subs.ss04/period.sups.ss04",
"/Ldot.ss04/ldot.ss04/ldot.ss02.ss04/period.ss04/colon.ss04/semicolon.ss04/ellipsis.ss04/exclam.ss04/exclamdown.ss04/question.ss04/questiondown.ss04/periodcentered.ss04/periodcentered.loclCAT.case.ss04/periodcentered.loclCAT.ss04/periodcentered.loclCAT.ss02.ss04/period.dnom.ss04/period.numr.ss04/period.subs.ss04/period.sups.ss04",
"/Ldot/ldot/ldot.ss02 .:;/ellipsis !¡?¿·/periodcentered.loclCAT.case/periodcentered.loclCAT/periodcentered.loclCAT.ss02/period.dnom/period.numr/period.subs/period.sups",

glyphs = (
{
glyphname = A;
layers = (
{
background = {
paths = (
{
closed = 0;
nodes = (
"606 0 LINE",
"342 675 LINE",
"338 675 LINE",
"70 0 LINE"
);
},
{
closed = 0;
nodes = (
"155 213 LINE",
"522 213 LINE"
);
}
);
};
layerId = master01;
paths = (
{
closed = 0;
nodes = (
"155 213 LINE",
"522 213 LINE"
);
},
{
closed = 0;
nodes = (
"606 0 LINE",
"342 675 LINE",
"338 675 LINE",
"70 0 LINE"
);
}
);
width = 676;
}
);
leftKerningGroup = A;
rightKerningGroup = A;
unicode = 0041;
},
{
glyphname = Aacute;
layers = (
{
layerId = master01;
paths = (
{
closed = 0;
nodes = (
"155 213 LINE",
"522 213 LINE"
);
},
{
closed = 0;
nodes = (
"606 0 LINE",
"342 675 LINE",
"338 675 LINE",
"70 0 LINE"
);
},
{
closed = 0;
nodes = (
"272 782 LINE",
"407 915 LINE"
);
}
);
width = 676;
}
);
leftKerningGroup = A;
rightKerningGroup = A;
unicode = 00C1;
},
{
glyphname = Abreve;
layers = (
{
layerId = master01;
paths = (
{
closed = 0;
nodes = (
"155 213 LINE",
"522 213 LINE"
);
},
{
closed = 0;
nodes = (
"606 0 LINE",
"342 675 LINE",
"338 675 LINE",
"70 0 LINE"
);
},
{
closed = 0;
nodes = (
"220 887 LINE",
"220 832 OFFCURVE",
"272 805 OFFCURVE",
"338 805 CURVE SMOOTH",
"404 805 OFFCURVE",
"460 831 OFFCURVE",
"460 886 CURVE SMOOTH"
);
}
);
width = 676;
}
);
leftKerningGroup = A;
rightKerningGroup = A;
unicode = 0102;
},
{
glyphname = Acircumflex;
layers = (
{
guideLines = (
{
position = "{323, -64}";
}
);
layerId = master01;
paths = (
{
closed = 0;
nodes = (
"155 213 LINE",
"522 213 LINE"
);
},
{
closed = 0;
nodes = (
"606 0 LINE",
"342 675 LINE",
"338 675 LINE",
"70 0 LINE"
);
},
{
closed = 0;
nodes = (
"451 773 LINE",
"342 899 LINE",
"338 899 LINE",
"229 773 LINE"
);
}
);
width = 676;
}
);
leftKerningGroup = A;
rightKerningGroup = A;
unicode = 00C2;
},
{
glyphname = Adieresis;
layers = (
{
layerId = master01;
paths = (
{
closed = 0;
nodes = (
"155 213 LINE",
"522 213 LINE"
);
},
{
closed = 0;
nodes = (
"606 0 LINE",
"342 675 LINE",
"338 675 LINE",
"70 0 LINE"
);
},
{
closed = 0;
nodes = (
"269 785 LINE",
"269 910 LINE"
);
},
{
closed = 0;
nodes = (
"411 785 LINE",
"411 910 LINE"
);
}
);
width = 676;
}
);
leftKerningGroup = A;
rightKerningGroup = A;
unicode = 00C4;
},
{
glyphname = Agrave;
layers = (
{
layerId = master01;
paths = (
{
closed = 0;
nodes = (
"155 213 LINE",
"522 213 LINE"
);
},
{
closed = 0;
nodes = (
"606 0 LINE",
"342 675 LINE",
"338 675 LINE",
"70 0 LINE"
);
},
{
closed = 0;
nodes = (
"272 916 LINE",
"407 783 LINE"
);
}
);
width = 676;
}
);
leftKerningGroup = A;
rightKerningGroup = A;
unicode = 00C0;
},
{
glyphname = Amacron;
layers = (
{
layerId = master01;
paths = (
{
closed = 0;
nodes = (
"155 213 LINE",
"522 213 LINE"
);
},
{
closed = 0;
nodes = (
"606 0 LINE",
"342 675 LINE",
"338 675 LINE",
"70 0 LINE"
);
},
{
closed = 0;
nodes = (
"450 828 LINE",
"229 828 LINE"
);
}
);
width = 676;
}
);
leftKerningGroup = A;
rightKerningGroup = A;
unicode = 0100;
},
{
glyphname = Aogonek;
layers = (
{
layerId = master01;
paths = (
{
closed = 0;
nodes = (
"155 213 LINE",
"522 213 LINE"
);
},
{
closed = 0;
nodes = (
"606 0 LINE",
"342 675 LINE",
"338 675 LINE",
"70 0 LINE"
);
},
{
closed = 0;
nodes = (
"647 -184 LINE SMOOTH",
"634 -192 OFFCURVE",
"609 -200 OFFCURVE",
"585 -200 CURVE SMOOTH",
"535 -200 OFFCURVE",
"508 -175 OFFCURVE",
"508 -130 CURVE SMOOTH",
"508 -87 OFFCURVE",
"559 -38 OFFCURVE",
"606 0 CURVE"
);
}
);
width = 676;
}
);
leftKerningGroup = A;
rightKerningGroup = A;
unicode = 0104;
},
{
glyphname = Aring;
layers = (
{
layerId = master01;
paths = (
{
closed = 0;
nodes = (
"155 213 LINE",
"522 213 LINE"
);
},
{
closed = 0;
nodes = (
"606 0 LINE",
"342 675 LINE",
"338 675 LINE",
"70 0 LINE"
);
},
{
closed = 0;
nodes = (
"339 916 LINE",
"298 916 OFFCURVE",
"266 883 OFFCURVE",
"266 843 CURVE SMOOTH",
"266 803 OFFCURVE",
"299 770 OFFCURVE",
"339 770 CURVE SMOOTH",
"380 770 OFFCURVE",
"413 803 OFFCURVE",
"413 843 CURVE SMOOTH",
"413 883 OFFCURVE",
"380 916 OFFCURVE",
"339 916 CURVE"
);
}
);
width = 676;
}
);
leftKerningGroup = A;
rightKerningGroup = A;
unicode = 00C5;
},
{
glyphname = Atilde;
layers = (
{
layerId = master01;
paths = (
{
closed = 0;
nodes = (
"155 213 LINE",
"522 213 LINE"
);
},
{
closed = 0;
nodes = (
"606 0 LINE",
"342 675 LINE",
"338 675 LINE",
"70 0 LINE"
);
},
{
closed = 0;
nodes = (
"201 812 LINE",
"223 849 OFFCURVE",
"250 860 OFFCURVE",
"275 860 CURVE SMOOTH",
"322 860 OFFCURVE",
"352 812 OFFCURVE",
"405 812 CURVE SMOOTH",
"430 812 OFFCURVE",
"456 821 OFFCURVE",
"479 859 CURVE"
);
}
);
width = 676;
}
);
leftKerningGroup = A;
rightKerningGroup = A;
unicode = 00C3;
},
{
glyphname = AE;
layers = (
{
background = {
paths = (
{
closed = 0;
nodes = (
"41 10 LINE",
"474 670 LINE",
"478 670 LINE"
);
},
{
closed = 0;
nodes = (
"478 223 LINE",
"181 223 LINE"
);
},
{
closed = 0;
nodes = (
"819 10 LINE",
"478 10 LINE",
"478 670 LINE",
"819 670 LINE"
);
},
{
closed = 0;
nodes = (
"802 356 LINE",
"478 356 LINE"
);
}
);
};
layerId = master01;
paths = (
{
closed = 0;
nodes = (
"182 213 LINE",
"488 213 LINE"
);
},
{
closed = 0;
nodes = (
"45 0 LINE",
"474 670 LINE",
"488 670 LINE"
);
},
{
closed = 0;
nodes = (
"829 10 LINE",
"488 10 LINE",
"488 670 LINE",
"829 670 LINE"
);
},
{
closed = 0;
nodes = (
"488 356 LINE",
"812 356 LINE"
);
}
);
width = 919;
},
{
associatedMasterId = master01;
background = {
components = (
{
name = A;
transform = "{1, 0, 0, 1, -25, 0}";
}
);
paths = (
{
closed = 0;
nodes = (
"425 358 LINE",
"724 358 LINE"
);
},
{
closed = 0;
nodes = (
"302 670 LINE",
"739 670 LINE"
);
},
{
closed = 0;
nodes = (
"744 10 LINE",
"557 10 LINE",
"302 670 LINE",
"300 670 LINE",
"37 5 LINE"
);
},
{
closed = 0;
nodes = (
"119 214 LINE",
"478 214 LINE"
);
}
);
};
layerId = "95681CD2-5D1B-4352-8127-F26CE23EF520";
name = "Aug 30 21, 12:29";
paths = (
{
closed = 0;
nodes = (
"744 10 LINE",
"567 10 LINE",
"307 670 LINE",
"303 670 LINE",
"35 0 LINE"
);
},
{
closed = 0;
nodes = (
"727 358 LINE",
"431 358 LINE"
);
},
{
closed = 0;
nodes = (
"307 670 LINE",
"744 670 LINE"
);
},
{
closed = 0;
nodes = (
"490 213 LINE",
"118 213 LINE"
);
}
);
width = 824;
}
);
leftKerningGroup = AE;
leftMetricsKey = "=A-25";
rightKerningGroup = E;
rightMetricsKey = E;
unicode = 00C6;
},
{
glyphname = B;
layers = (
{
background = {
paths = (
{
closed = 0;
nodes = (
"330 356 LINE",
"428 356 OFFCURVE",
"514 406 OFFCURVE",
"514 520 CURVE SMOOTH",
"514 601 OFFCURVE",
"471 680 OFFCURVE",
"301 680 CURVE SMOOTH",
"140 680 LINE",
"140 0 LINE"
);
},
{
closed = 0;
nodes = (
"140 0 LINE",
"302 0 LINE SMOOTH",
"475 0 OFFCURVE",
"534 77 OFFCURVE",
"534 179 CURVE SMOOTH",
"534 286 OFFCURVE",
"469 356 OFFCURVE",
"310 356 CURVE SMOOTH",
"140 356 LINE"
);
}
);
};
layerId = master01;
paths = (
{
closed = 0;
nodes = (
"140 10 LINE",
"302 10 LINE SMOOTH",
"475 10 OFFCURVE",
"534 85 OFFCURVE",
"534 184 CURVE SMOOTH",
"534 288 OFFCURVE",
"469 356 OFFCURVE",
"310 356 CURVE SMOOTH",
"140 356 LINE"
);
},
{
closed = 0;
nodes = (
"330 356 LINE",
"428 356 OFFCURVE",
"514 404 OFFCURVE",
"514 515 CURVE SMOOTH",
"514 593 OFFCURVE",
"471 670 OFFCURVE",
"301 670 CURVE SMOOTH",
"140 670 LINE",
"140 10 LINE"
);
}
);
width = 634;
},
{
associatedMasterId = master01;
background = {
paths = (
{
closed = 0;
nodes = (
"330 356 LINE",
"428 356 OFFCURVE",
"514 406 OFFCURVE",
"514 520 CURVE SMOOTH",
"514 601 OFFCURVE",
"471 680 OFFCURVE",
"301 680 CURVE SMOOTH",
"140 680 LINE",
"140 0 LINE"
);
},
{
closed = 0;
nodes = (
"140 0 LINE",
"302 0 LINE SMOOTH",
"475 0 OFFCURVE",
"534 77 OFFCURVE",
"534 179 CURVE SMOOTH",
"534 286 OFFCURVE",
"469 356 OFFCURVE",
"310 356 CURVE SMOOTH",
"140 356 LINE"
);
}
);
};
layerId = "CB6E74EF-ABB2-4C2D-B63B-7146BFEA2FCB";
name = "20 nov. 21 à 21:12";
paths = (
{
closed = 0;
nodes = (
"330 356 LINE",
"428 356 OFFCURVE",
"514 406 OFFCURVE",
"514 520 CURVE SMOOTH",
"514 601 OFFCURVE",
"471 680 OFFCURVE",
"301 680 CURVE SMOOTH",
"140 680 LINE",
"140 0 LINE"
);
},
{
closed = 0;
nodes = (
"140 0 LINE",
"302 0 LINE SMOOTH",
"475 0 OFFCURVE",
"534 77 OFFCURVE",
"534 179 CURVE SMOOTH",
"534 286 OFFCURVE",
"469 356 OFFCURVE",
"310 356 CURVE SMOOTH",
"140 356 LINE"
);
}
);
width = 634;
}
);
leftKerningGroup = H;
leftMetricsKey = H;
rightKerningGroup = B;
unicode = 0042;
},
{
glyphname = C;
layers = (
{
background = {
components = (
{
name = O;
}
);
paths = (
{
closed = 0;
nodes = (
"566 537 LINE",
"529 631 OFFCURVE",
"460 680 OFFCURVE",
"358 680 CURVE SMOOTH",
"187 680 OFFCURVE",
"95 544 OFFCURVE",
"95 341 CURVE SMOOTH",
"95 117 OFFCURVE",
"208 0 OFFCURVE",
"358 0 CURVE SMOOTH",
"475 0 OFFCURVE",
"552 71 OFFCURVE",
"580 153 CURVE"
);
}
);
};
layerId = master01;
paths = (
{
closed = 0;
nodes = (
"566 537 LINE",
"529 631 OFFCURVE",
"460 680 OFFCURVE",
"358 680 CURVE SMOOTH",
"187 680 OFFCURVE",
"95 544 OFFCURVE",
"95 341 CURVE SMOOTH",
"95 117 OFFCURVE",
"208 0 OFFCURVE",
"358 0 CURVE SMOOTH",
"475 0 OFFCURVE",
"552 71 OFFCURVE",
"580 153 CURVE"
);
}
);
width = 665;
}
);
leftKerningGroup = O;
leftMetricsKey = O;
rightKerningGroup = O;
rightMetricsKey = "=O-10";
unicode = 0043;
},
{
glyphname = Cacute;
layers = (
{
layerId = master01;
paths = (
{
closed = 0;
nodes = (
"566 537 LINE",
"529 631 OFFCURVE",
"460 680 OFFCURVE",
"358 680 CURVE SMOOTH",
"187 680 OFFCURVE",
"95 544 OFFCURVE",
"95 341 CURVE SMOOTH",
"95 117 OFFCURVE",
"208 0 OFFCURVE",
"358 0 CURVE SMOOTH",
"475 0 OFFCURVE",
"552 71 OFFCURVE",
"580 153 CURVE"
);
},
{
closed = 0;
nodes = (
"289 782 LINE",
"424 915 LINE"
);
}
);
width = 665;
}
);
leftKerningGroup = O;
rightKerningGroup = O;
unicode = 0106;
},
{
glyphname = Ccaron;
layers = (
{
layerId = master01;
paths = (
{
closed = 0;
nodes = (
"566 537 LINE",
"529 631 OFFCURVE",
"460 680 OFFCURVE",
"358 680 CURVE SMOOTH",
"187 680 OFFCURVE",
"95 544 OFFCURVE",
"95 341 CURVE SMOOTH",
"95 117 OFFCURVE",
"208 0 OFFCURVE",
"358 0 CURVE SMOOTH",
"475 0 OFFCURVE",
"552 71 OFFCURVE",
"580 153 CURVE"
);
},
{
closed = 0;
nodes = (
"246 901 LINE",
"355 775 LINE",
"359 775 LINE",
"468 901 LINE"
);
}
);
width = 665;
}
);
leftKerningGroup = O;
rightKerningGroup = O;
unicode = 010C;
},
{
glyphname = Ccedilla;
layers = (
{
layerId = master01;
paths = (
{
closed = 0;
nodes = (
"566 537 LINE",
"529 631 OFFCURVE",
"460 680 OFFCURVE",
"358 680 CURVE SMOOTH",
"187 680 OFFCURVE",
"95 544 OFFCURVE",
"95 341 CURVE SMOOTH",
"95 117 OFFCURVE",
"208 0 OFFCURVE",
"358 0 CURVE SMOOTH",
"475 0 OFFCURVE",
"552 71 OFFCURVE",
"580 153 CURVE"
);
},
{
closed = 0;
nodes = (
"272 -177 LINE SMOOTH",
"285 -184 OFFCURVE",
"304 -191 OFFCURVE",
"333 -191 CURVE SMOOTH",
"385 -191 OFFCURVE",
"417 -168 OFFCURVE",
"417 -132 CURVE SMOOTH",
"417 -95 OFFCURVE",
"386 -78 OFFCURVE",
"332 -78 CURVE SMOOTH",
"306 -78 LINE",
"352 0 LINE"
);
}
);
width = 665;
}
);
leftKerningGroup = O;
rightKerningGroup = O;
unicode = 00C7;
},
{
glyphname = Ccircumflex;
layers = (
{
layerId = master01;
paths = (
{
closed = 0;
nodes = (
"566 537 LINE",
"529 631 OFFCURVE",
"460 680 OFFCURVE",
"358 680 CURVE SMOOTH",
"187 680 OFFCURVE",
"95 544 OFFCURVE",
"95 341 CURVE SMOOTH",
"95 117 OFFCURVE",
"208 0 OFFCURVE",
"358 0 CURVE SMOOTH",
"475 0 OFFCURVE",
"552 71 OFFCURVE",
"580 153 CURVE"
);
},
{
closed = 0;
nodes = (
"468 773 LINE",
"359 899 LINE",
"355 899 LINE",
"246 773 LINE"
);
}
);
width = 665;
}
);
leftKerningGroup = O;
rightKerningGroup = O;
unicode = 0108;
},
{
glyphname = Cdotaccent;
layers = (
{
layerId = master01;
paths = (
{
closed = 0;
nodes = (
"566 537 LINE",
"529 631 OFFCURVE",
"460 680 OFFCURVE",
"358 680 CURVE SMOOTH",
"187 680 OFFCURVE",
"95 544 OFFCURVE",
"95 341 CURVE SMOOTH",
"95 117 OFFCURVE",
"208 0 OFFCURVE",
"358 0 CURVE SMOOTH",
"475 0 OFFCURVE",
"552 71 OFFCURVE",
"580 153 CURVE"
);
},
{
closed = 0;
nodes = (
"357 803 LINE",
"357 910 LINE"
);
}
);
width = 665;
}
);
leftKerningGroup = O;
rightKerningGroup = O;
unicode = 010A;
},
{
glyphname = D;
layers = (
{
background = {
paths = (
{
closed = 0;
nodes = (
"140 0 LINE",
"260 0 LINE SMOOTH",
"440 0 OFFCURVE",
"607 96 OFFCURVE",
"608 339 CURVE SMOOTH",
"609 549 OFFCURVE",
"484 680 OFFCURVE",
"287 680 CURVE SMOOTH",
"140 680 LINE"
);
},
{
closed = 0;
nodes = (
"140 0 LINE",
"140 680 LINE"
);
}
);
};
layerId = master01;
paths = (
{
closed = 0;
nodes = (
"140 10 LINE",
"140 670 LINE"
);
},
{
closed = 0;
nodes = (
"140 10 LINE",
"260 10 LINE SMOOTH",
"440 10 OFFCURVE",
"607 103 OFFCURVE",
"608 339 CURVE SMOOTH",
"609 543 OFFCURVE",
"484 670 OFFCURVE",
"287 670 CURVE SMOOTH",
"140 670 LINE"
);
}
);
width = 693;
},
{
associatedMasterId = master01;
background = {
paths = (
{
closed = 0;
nodes = (
"140 0 LINE",
"260 0 LINE SMOOTH",
"440 0 OFFCURVE",
"607 96 OFFCURVE",
"608 339 CURVE SMOOTH",
"609 549 OFFCURVE",
"484 680 OFFCURVE",
"287 680 CURVE SMOOTH",
"140 680 LINE"
);
},
{
closed = 0;
nodes = (
"140 0 LINE",
"140 680 LINE"
);
}
);
};
layerId = "0F3EB423-19FA-4E6F-AB3E-B4B78953DB4D";
name = "20 nov. 21 à 21:12";
paths = (
{
closed = 0;
nodes = (
"140 0 LINE",
"260 0 LINE SMOOTH",
"440 0 OFFCURVE",
"607 96 OFFCURVE",
"608 339 CURVE SMOOTH",
"609 549 OFFCURVE",
"484 680 OFFCURVE",
"287 680 CURVE SMOOTH",
"140 680 LINE"
);
},
{
closed = 0;
nodes = (
"140 0 LINE",
"140 680 LINE"
);
}
);
width = 693;
}
);
leftKerningGroup = H;
leftMetricsKey = H;
rightKerningGroup = O;
rightMetricsKey = "=O-10";
unicode = 0044;
},
{
glyphname = Eth;
layers = (
{
layerId = master01;
paths = (
{
closed = 0;
nodes = (
"45 357 LINE",
"387 357 LINE"
);
},
{
closed = 0;
nodes = (
"160 10 LINE",
"160 670 LINE"
);
},
{
closed = 0;
nodes = (
"160 10 LINE",
"280 10 LINE SMOOTH",
"460 10 OFFCURVE",
"627 103 OFFCURVE",
"628 339 CURVE SMOOTH",
"629 543 OFFCURVE",
"504 670 OFFCURVE",
"307 670 CURVE SMOOTH",
"160 670 LINE"
);
}
);
width = 713;
}
);
leftKerningGroup = Eth;
rightKerningGroup = O;
rightMetricsKey = "=O-10";
unicode = 00D0;
},
{
glyphname = Dcaron;
layers = (
{
layerId = master01;
paths = (
{
closed = 0;
nodes = (
"140 10 LINE",
"140 670 LINE"
);
},
{
closed = 0;
nodes = (
"140 10 LINE",
"260 10 LINE SMOOTH",
"440 10 OFFCURVE",
"607 103 OFFCURVE",
"608 339 CURVE SMOOTH",
"609 543 OFFCURVE",
"484 670 OFFCURVE",
"287 670 CURVE SMOOTH",
"140 670 LINE"
);
},
{
closed = 0;
nodes = (
"243 901 LINE",
"352 775 LINE",
"356 775 LINE",
"465 901 LINE"
);
}
);
width = 693;
}
);
leftKerningGroup = H;
rightKerningGroup = O;
unicode = 010E;
},
{
glyphname = Dcroat;
layers = (
{
layerId = master01;
paths = (
{
closed = 0;
nodes = (
"45 357 LINE",
"387 357 LINE"
);
},
{
closed = 0;
nodes = (
"160 10 LINE",
"160 670 LINE"
);
},
{
closed = 0;
nodes = (
"160 10 LINE",
"280 10 LINE SMOOTH",
"460 10 OFFCURVE",
"627 103 OFFCURVE",
"628 339 CURVE SMOOTH",
"629 543 OFFCURVE",
"504 670 OFFCURVE",
"307 670 CURVE SMOOTH",
"160 670 LINE"
);
}
);
width = 713;
}
);
leftKerningGroup = Eth;
rightKerningGroup = O;
unicode = 0110;
},
{
glyphname = E;
layers = (
{
background = {
paths = (
{
closed = 0;
nodes = (
"501 10 LINE",
"140 10 LINE",
"140 670 LINE",
"501 670 LINE"
);
},
{
closed = 0;
nodes = (
"140 356 LINE",
"484 356 LINE"
);
}
);
};
layerId = master01;
paths = (
{
closed = 0;
nodes = (
"501 10 LINE",
"140 10 LINE",
"140 670 LINE",
"501 670 LINE"
);
},
{
closed = 0;
nodes = (
"140 356 LINE",
"484 356 LINE"
);
}
);
width = 591;
}
);
leftKerningGroup = H;
leftMetricsKey = H;
rightKerningGroup = E;
unicode = 0045;
},
{
glyphname = Eacute;
layers = (
{
layerId = master01;
paths = (
{
closed = 0;
nodes = (
"501 10 LINE",
"140 10 LINE",
"140 670 LINE",
"501 670 LINE"
);
},
{
closed = 0;
nodes = (
"140 356 LINE",
"484 356 LINE"
);
},
{
closed = 0;
nodes = (
"248 782 LINE",
"383 915 LINE"
);
}
);
width = 591;
}
);
leftKerningGroup = H;
rightKerningGroup = E;
unicode = 00C9;
},
{
glyphname = Ebreve;
layers = (
{
layerId = master01;
paths = (
{
closed = 0;
nodes = (
"501 10 LINE",
"140 10 LINE",
"140 670 LINE",
"501 670 LINE"
);
},
{
closed = 0;
nodes = (
"140 356 LINE",
"484 356 LINE"
);
},
{
closed = 0;
nodes = (
"196 887 LINE",
"196 832 OFFCURVE",
"248 805 OFFCURVE",
"314 805 CURVE SMOOTH",
"380 805 OFFCURVE",
"436 831 OFFCURVE",
"436 886 CURVE SMOOTH"
);
}
);
width = 591;
}
);
leftKerningGroup = H;
rightKerningGroup = E;
unicode = 0114;
},
{
glyphname = Ecaron;
layers = (
{
layerId = master01;
paths = (
{
closed = 0;
nodes = (
"501 10 LINE",
"140 10 LINE",
"140 670 LINE",
"501 670 LINE"
);
},
{
closed = 0;
nodes = (
"140 356 LINE",
"484 356 LINE"
);
},
{
closed = 0;
nodes = (
"205 901 LINE",
"314 775 LINE",
"318 775 LINE",
"427 901 LINE"
);
}
);
width = 591;
}
);
leftKerningGroup = H;
rightKerningGroup = E;
unicode = 011A;
},
{
glyphname = Ecircumflex;
layers = (
{
guideLines = (
{
position = "{286, -64}";
}
);
layerId = master01;
paths = (
{
closed = 0;
nodes = (
"501 10 LINE",
"140 10 LINE",
"140 670 LINE",
"501 670 LINE"
);
},
{
closed = 0;
nodes = (
"140 356 LINE",
"484 356 LINE"
);
},
{
closed = 0;
nodes = (
"427 773 LINE",
"318 899 LINE",
"314 899 LINE",
"205 773 LINE"
);
}
);
width = 591;
}
);
leftKerningGroup = H;
rightKerningGroup = E;
unicode = 00CA;
},
{
glyphname = Edieresis;
layers = (
{
layerId = master01;
paths = (
{
closed = 0;
nodes = (
"501 10 LINE",
"140 10 LINE",
"140 670 LINE",
"501 670 LINE"
);
},
{
closed = 0;
nodes = (
"140 356 LINE",
"484 356 LINE"
);
},
{
closed = 0;
nodes = (
"245 785 LINE",
"245 910 LINE"
);
},
{
closed = 0;
nodes = (
"387 785 LINE",
"387 910 LINE"
);
}
);
width = 591;
}
);
leftKerningGroup = H;
rightKerningGroup = E;
unicode = 00CB;
},
{
glyphname = Edotaccent;
layers = (
{
layerId = master01;
paths = (
{
closed = 0;
nodes = (
"501 10 LINE",
"140 10 LINE",
"140 670 LINE",
"501 670 LINE"
);
},
{
closed = 0;
nodes = (
"140 356 LINE",
"484 356 LINE"
);
},
{
closed = 0;
nodes = (
"316 803 LINE",
"316 910 LINE"
);
}
);
width = 591;
}
);
leftKerningGroup = H;
rightKerningGroup = E;
unicode = 0116;
},
{
glyphname = Egrave;
layers = (
{
layerId = master01;
paths = (
{
closed = 0;
nodes = (
"501 10 LINE",
"140 10 LINE",
"140 670 LINE",
"501 670 LINE"
);
},
{
closed = 0;
nodes = (
"140 356 LINE",
"484 356 LINE"
);
},
{
closed = 0;
nodes = (
"248 916 LINE",
"383 783 LINE"
);
}
);
width = 591;
}
);
leftKerningGroup = H;
rightKerningGroup = E;
unicode = 00C8;
},
{
glyphname = Emacron;
layers = (
{
layerId = master01;
paths = (
{
closed = 0;
nodes = (
"501 10 LINE",
"140 10 LINE",
"140 670 LINE",
"501 670 LINE"
);
},
{
closed = 0;
nodes = (
"140 356 LINE",
"484 356 LINE"
);
},
{
closed = 0;
nodes = (
"426 828 LINE",
"205 828 LINE"
);
}
);
width = 591;
}
);
leftKerningGroup = H;
rightKerningGroup = E;
unicode = 0112;
},
{
glyphname = Eogonek;
layers = (
{
layerId = master01;
paths = (
{
closed = 0;
nodes = (
"501 10 LINE",
"140 10 LINE",
"140 670 LINE",
"501 670 LINE"
);
},
{
closed = 0;
nodes = (
"140 356 LINE",
"484 356 LINE"
);
},
{
closed = 0;
nodes = (
"482 -174 LINE SMOOTH",
"469 -182 OFFCURVE",
"444 -190 OFFCURVE",
"420 -190 CURVE SMOOTH",
"370 -190 OFFCURVE",
"343 -165 OFFCURVE",
"343 -120 CURVE SMOOTH",
"343 -77 OFFCURVE",
"394 -28 OFFCURVE",
"441 10 CURVE"
);
}
);
width = 591;
}
);
leftKerningGroup = H;
rightKerningGroup = E;
unicode = 0118;
},
{
glyphname = F;
layers = (
{
background = {
paths = (
{
closed = 0;
nodes = (
"140 670 LINE",
"481 670 LINE"
);
},
{
closed = 0;
nodes = (
"140 0 LINE",
"140 670 LINE"
);
},
{
closed = 0;
nodes = (
"140 347 LINE",
"464 347 LINE"
);
}
);
};
layerId = master01;
paths = (
{
closed = 0;
nodes = (
"140 0 LINE",
"140 670 LINE",
"481 670 LINE"
);
},
{
closed = 0;
nodes = (
"140 347 LINE",
"464 347 LINE"
);
}
);
width = 551;
}
);
leftKerningGroup = H;
leftMetricsKey = H;
rightKerningGroup = F;
unicode = 0046;
},
{
glyphname = G;
layers = (
{
background = {
paths = (
{
closed = 0;
nodes = (
"566 537 LINE",
"529 631 OFFCURVE",
"460 680 OFFCURVE",
"358 680 CURVE SMOOTH",
"196 680 OFFCURVE",
"95 556 OFFCURVE",
"95 340 CURVE SMOOTH",
"95 152 OFFCURVE",
"169 0 OFFCURVE",
"363 0 CURVE SMOOTH",
"443 0 OFFCURVE",
"509 26 OFFCURVE",
"560 57 CURVE",
"560 334 LINE",
"383 334 LINE"
);
}
);
};
layerId = master01;
paths = (
{
closed = 0;
nodes = (
"566 537 LINE",
"529 631 OFFCURVE",
"460 680 OFFCURVE",
"358 680 CURVE SMOOTH",
"196 680 OFFCURVE",
"95 556 OFFCURVE",
"95 340 CURVE SMOOTH",
"95 152 OFFCURVE",
"169 0 OFFCURVE",
"363 0 CURVE SMOOTH",
"443 0 OFFCURVE",
"509 26 OFFCURVE",
"560 57 CURVE",
"560 334 LINE",
"383 334 LINE"
);
}
);
width = 676;
}
);
leftKerningGroup = O;
leftMetricsKey = O;
rightKerningGroup = O;
unicode = 0047;
},
{
glyphname = Gbreve;
layers = (
{
layerId = master01;
paths = (
{
closed = 0;
nodes = (
"566 537 LINE",
"529 631 OFFCURVE",
"460 680 OFFCURVE",
"358 680 CURVE SMOOTH",
"196 680 OFFCURVE",
"95 556 OFFCURVE",
"95 340 CURVE SMOOTH",
"95 152 OFFCURVE",
"169 0 OFFCURVE",
"363 0 CURVE SMOOTH",
"443 0 OFFCURVE",
"509 26 OFFCURVE",
"560 57 CURVE",
"560 334 LINE",
"383 334 LINE"
);
},
{
closed = 0;
nodes = (
"236 887 LINE",
"236 832 OFFCURVE",
"288 805 OFFCURVE",
"354 805 CURVE SMOOTH",
"420 805 OFFCURVE",
"476 831 OFFCURVE",
"476 886 CURVE SMOOTH"
);
}
);
width = 676;
}
);
leftKerningGroup = O;
rightKerningGroup = O;
unicode = 011E;
},
{
glyphname = Gcircumflex;
layers = (
{
layerId = master01;
paths = (
{
closed = 0;
nodes = (
"566 537 LINE",
"529 631 OFFCURVE",
"460 680 OFFCURVE",
"358 680 CURVE SMOOTH",
"196 680 OFFCURVE",
"95 556 OFFCURVE",
"95 340 CURVE SMOOTH",
"95 152 OFFCURVE",
"169 0 OFFCURVE",
"363 0 CURVE SMOOTH",
"443 0 OFFCURVE",
"509 26 OFFCURVE",
"560 57 CURVE",
"560 334 LINE",
"383 334 LINE"
);
},
{
closed = 0;
nodes = (
"467 773 LINE",
"358 899 LINE",
"354 899 LINE",
"245 773 LINE"
);
}
);
width = 676;
}
);
leftKerningGroup = O;
rightKerningGroup = O;
unicode = 011C;
},
{
glyphname = Gcommaaccent;
layers = (
{
layerId = master01;
paths = (
{
closed = 0;
nodes = (
"566 537 LINE",
"529 631 OFFCURVE",
"460 680 OFFCURVE",
"358 680 CURVE SMOOTH",
"196 680 OFFCURVE",
"95 556 OFFCURVE",
"95 340 CURVE SMOOTH",
"95 152 OFFCURVE",
"169 0 OFFCURVE",
"363 0 CURVE SMOOTH",
"443 0 OFFCURVE",
"509 26 OFFCURVE",
"560 57 CURVE",
"560 334 LINE",
"383 334 LINE"
);
},
{
closed = 0;
nodes = (
"287 -240 LINE",
"365 -85 LINE"
);
}
);
width = 676;
}
);
leftKerningGroup = O;
rightKerningGroup = O;
unicode = 0122;
},
{
glyphname = Gdotaccent;
layers = (
{
layerId = master01;
paths = (
{
closed = 0;
nodes = (
"566 537 LINE",
"529 631 OFFCURVE",
"460 680 OFFCURVE",
"358 680 CURVE SMOOTH",
"196 680 OFFCURVE",
"95 556 OFFCURVE",
"95 340 CURVE SMOOTH",
"95 152 OFFCURVE",
"169 0 OFFCURVE",
"363 0 CURVE SMOOTH",
"443 0 OFFCURVE",
"509 26 OFFCURVE",
"560 57 CURVE",
"560 334 LINE",
"383 334 LINE"
);
},
{
closed = 0;
nodes = (
"356 803 LINE",
"356 910 LINE"
);
}
);
width = 676;
}
);
leftKerningGroup = O;
rightKerningGroup = O;
unicode = 0120;
},
{
glyphname = H;
layers = (
{
background = {
paths = (
{
closed = 0;
nodes = (
"566 0 LINE",
"566 680 LINE"
);
},
{
closed = 0;
nodes = (
"140 0 LINE",
"140 680 LINE"
);
},
{
closed = 0;
nodes = (
"140 365 LINE",
"566 365 LINE"
);
}
);
};
layerId = master01;
paths = (
{
closed = 0;
nodes = (
"140 0 LINE",
"140 680 LINE"
);
},
{
closed = 0;
nodes = (
"140 365 LINE",
"566 365 LINE"
);
},
{
closed = 0;
nodes = (
"566 0 LINE",
"566 680 LINE"
);
}
);
width = 706;
}
);
leftKerningGroup = H;
rightKerningGroup = H;
unicode = 0048;
},
{
glyphname = Hbar;
layers = (
{
layerId = master01;
paths = (
{
closed = 0;
nodes = (
"40 528 LINE",
"666 528 LINE"
);
},
{
closed = 0;
nodes = (
"140 0 LINE",
"140 680 LINE"
);
},
{
closed = 0;
nodes = (
"140 365 LINE",
"566 365 LINE"
);
},
{
closed = 0;
nodes = (
"566 0 LINE",
"566 680 LINE"
);
}
);
width = 706;
}
);
leftKerningGroup = Hbar;
rightKerningGroup = Hbar;
unicode = 0126;
},
{
glyphname = Hcircumflex;
layers = (
{
layerId = master01;
paths = (
{
closed = 0;
nodes = (
"140 0 LINE",
"140 680 LINE"
);
},
{
closed = 0;
nodes = (
"140 365 LINE",
"566 365 LINE"
);
},
{
closed = 0;
nodes = (
"566 0 LINE",
"566 680 LINE"
);
},
{
closed = 0;
nodes = (
"464 773 LINE",
"355 899 LINE",
"351 899 LINE",
"242 773 LINE"
);
}
);
width = 706;
}
);
leftKerningGroup = H;
rightKerningGroup = H;
unicode = 0124;
},
{
glyphname = I;
layers = (
{
background = {
paths = (
{
closed = 0;
nodes = (
"140 0 LINE",
"140 680 LINE",
"86 680 LINE"
);
}
);
};
layerId = master01;
paths = (
{
closed = 0;
nodes = (
"140 0 LINE",
"140 680 LINE"
);
}
);
width = 280;
},
{
associatedMasterId = master01;
layerId = "CA5028DE-3226-46D2-9980-3253F8F1F2C1";
name = "21 nov. 21 à 22:09";
paths = (
{
closed = 0;
nodes = (
"140 0 LINE",
"140 680 LINE",
"86 680 LINE"
);
}
);
width = 280;
}
);
leftKerningGroup = H;
leftMetricsKey = H;
rightKerningGroup = H;
rightMetricsKey = H;
unicode = 0049;
},
{
glyphname = Iacute;
layers = (
{
layerId = master01;
paths = (
{
closed = 0;
nodes = (
"140 0 LINE",
"140 680 LINE"
);
},
{
closed = 0;
nodes = (
"72 782 LINE",
"207 915 LINE"
);
}
);
width = 280;
}
);
leftKerningGroup = I;
rightKerningGroup = I;
unicode = 00CD;
},
{
glyphname = Ibreve;
layers = (
{
layerId = master01;
paths = (
{
closed = 0;
nodes = (
"140 0 LINE",
"140 680 LINE"
);
},
{
closed = 0;
nodes = (
"20 887 LINE",
"20 832 OFFCURVE",
"72 805 OFFCURVE",
"138 805 CURVE SMOOTH",
"204 805 OFFCURVE",
"260 831 OFFCURVE",
"260 886 CURVE SMOOTH"
);
}
);
width = 280;
}
);
leftKerningGroup = I;
rightKerningGroup = I;
unicode = 012C;
},
{
glyphname = Icircumflex;
layers = (
{
guideLines = (
{
position = "{131, -64}";
}
);
layerId = master01;
paths = (
{
closed = 0;
nodes = (
"140 0 LINE",
"140 680 LINE"
);
},
{
closed = 0;
nodes = (
"251 773 LINE",
"142 899 LINE",
"138 899 LINE",
"29 773 LINE"
);
}
);
width = 280;
}
);
leftKerningGroup = I;
rightKerningGroup = I;
unicode = 00CE;
},
{
glyphname = Idieresis;
layers = (
{
layerId = master01;
paths = (
{
closed = 0;
nodes = (
"140 0 LINE",
"140 680 LINE"
);
},
{
closed = 0;
nodes = (
"69 785 LINE",
"69 910 LINE"
);
},
{
closed = 0;
nodes = (
"211 785 LINE",
"211 910 LINE"
);
}
);
width = 280;
}
);
leftKerningGroup = I;
rightKerningGroup = I;
unicode = 00CF;
},
{
glyphname = Idotaccent;
layers = (
{
layerId = master01;
paths = (
{
closed = 0;
nodes = (
"140 0 LINE",
"140 680 LINE"
);
},
{
closed = 0;
nodes = (
"140 803 LINE",
"140 910 LINE"
);
}
);
width = 280;
}
);
leftKerningGroup = I;
rightKerningGroup = I;
unicode = 0130;
},
{
glyphname = Igrave;
layers = (
{
layerId = master01;
paths = (
{
closed = 0;
nodes = (
"140 0 LINE",
"140 680 LINE"
);
},
{
closed = 0;
nodes = (
"72 916 LINE",
"207 783 LINE"
);
}
);
width = 280;
}
);
leftKerningGroup = I;
rightKerningGroup = I;
unicode = 00CC;
},
{
glyphname = Imacron;
layers = (
{
layerId = master01;
paths = (
{
closed = 0;
nodes = (
"140 0 LINE",
"140 680 LINE"
);
},
{
closed = 0;
nodes = (
"250 828 LINE",
"29 828 LINE"
);
}
);
width = 280;
}
);
leftKerningGroup = I;
rightKerningGroup = I;
unicode = 012A;
},
{
glyphname = Iogonek;
layers = (
{
layerId = master01;
paths = (
{
closed = 0;
nodes = (
"140 0 LINE",
"140 680 LINE"
);
},
{
closed = 0;
nodes = (
"181 -184 LINE SMOOTH",
"168 -192 OFFCURVE",
"143 -200 OFFCURVE",
"119 -200 CURVE SMOOTH",
"69 -200 OFFCURVE",
"42 -175 OFFCURVE",
"42 -130 CURVE SMOOTH",
"42 -87 OFFCURVE",
"93 -38 OFFCURVE",
"140 0 CURVE"
);
}
);
width = 280;
}
);
leftKerningGroup = I;
rightKerningGroup = I;
unicode = 012E;
},
{
glyphname = Itilde;
layers = (
{
layerId = master01;
paths = (
{
closed = 0;
nodes = (
"140 0 LINE",
"140 680 LINE"
);
},
{
closed = 0;
nodes = (
"1 812 LINE",
"23 849 OFFCURVE",
"50 860 OFFCURVE",
"75 860 CURVE SMOOTH",
"122 860 OFFCURVE",
"152 812 OFFCURVE",
"205 812 CURVE SMOOTH",
"230 812 OFFCURVE",
"256 821 OFFCURVE",
"279 859 CURVE"
);
}
);
width = 280;
}
);
leftKerningGroup = I;
rightKerningGroup = I;
unicode = 0128;
},
{
glyphname = J;
layers = (
{
background = {
paths = (
{
closed = 0;
nodes = (
"50 29 LINE SMOOTH",
"73 7 OFFCURVE",
"103 0 OFFCURVE",
"128 0 CURVE SMOOTH",
"185 0 OFFCURVE",
"231 35 OFFCURVE",
"231 138 CURVE SMOOTH",
"231 680 LINE"
);
}
);
};
layerId = master01;
paths = (
{
closed = 0;
nodes = (
"50 29 LINE SMOOTH",
"73 7 OFFCURVE",
"103 0 OFFCURVE",
"128 0 CURVE SMOOTH",
"185 0 OFFCURVE",
"231 35 OFFCURVE",
"231 138 CURVE SMOOTH",
"231 680 LINE"
);
}
);
width = 361;
}
);
leftKerningGroup = J;
rightKerningGroup = H;
unicode = 004A;
},
{
glyphname = Jacute;
layers = (
{
layerId = master01;
paths = (
{
closed = 0;
nodes = (
"50 29 LINE SMOOTH",
"73 7 OFFCURVE",
"103 0 OFFCURVE",
"128 0 CURVE SMOOTH",
"185 0 OFFCURVE",
"231 35 OFFCURVE",
"231 138 CURVE SMOOTH",
"231 680 LINE"
);
},
{
closed = 0;
nodes = (
"163 782 LINE",
"298 915 LINE"
);
}
);
width = 361;
}
);
leftKerningGroup = J;
rightKerningGroup = H;
},
{
glyphname = Jcircumflex;
layers = (
{
layerId = master01;
paths = (
{
closed = 0;
nodes = (
"50 29 LINE SMOOTH",
"73 7 OFFCURVE",
"103 0 OFFCURVE",
"128 0 CURVE SMOOTH",
"185 0 OFFCURVE",
"231 35 OFFCURVE",
"231 138 CURVE SMOOTH",
"231 680 LINE"
);
},
{
closed = 0;
nodes = (
"342 773 LINE",
"233 899 LINE",
"229 899 LINE",
"120 773 LINE"
);
}
);
width = 361;
}
);
leftKerningGroup = J;
rightKerningGroup = H;
unicode = 0134;
},
{
glyphname = K;
layers = (
{
background = {
paths = (
{
closed = 0;
nodes = (
"527 0 LINE",
"191 359 LINE",
"503 680 LINE"
);
},
{
closed = 0;
nodes = (
"140 0 LINE",
"140 680 LINE"
);
}
);
};
layerId = master01;
paths = (
{
closed = 0;
nodes = (
"140 0 LINE",
"140 680 LINE"
);
},
{
closed = 0;
nodes = (
"527 0 LINE",
"191 359 LINE",
"503 680 LINE"
);
}
);
width = 577;
}
);
leftKerningGroup = H;
leftMetricsKey = H;
rightKerningGroup = K;
unicode = 004B;
},
{
glyphname = Kcommaaccent;
layers = (
{
layerId = master01;
paths = (
{
closed = 0;
nodes = (
"140 0 LINE",
"140 680 LINE"
);
},
{
closed = 0;
nodes = (
"527 0 LINE",
"191 359 LINE",
"503 680 LINE"
);
},
{
closed = 0;
nodes = (
"247 -240 LINE",
"325 -85 LINE"
);
}
);
width = 577;
}
);
leftKerningGroup = H;
rightKerningGroup = K;
unicode = 0136;
},
{
glyphname = L;
layers = (
{
layerId = master01;
paths = (
{
closed = 0;
nodes = (
"458 10 LINE",
"140 10 LINE",
"140 680 LINE"
);
}
);
width = 508;
}
);
leftKerningGroup = H;
leftMetricsKey = H;
rightKerningGroup = L;
unicode = 004C;
},
{
glyphname = Lacute;
layers = (
{
layerId = master01;
paths = (
{
closed = 0;
nodes = (
"458 10 LINE",
"140 10 LINE",
"140 680 LINE"
);
},
{
closed = 0;
nodes = (
"140 782 LINE",
"275 915 LINE"
);
}
);
width = 508;
}
);
leftKerningGroup = H;
rightKerningGroup = L;
unicode = 0139;
},
{
glyphname = Lcaron;
layers = (
{
layerId = master01;
paths = (
{
closed = 0;
nodes = (
"458 10 LINE",
"140 10 LINE",
"140 680 LINE"
);
},
{
closed = 0;
nodes = (
"276 567 LINE",
"333 650 LINE",
"333 734 LINE"
);
}
);
width = 508;
}
);
leftKerningGroup = H;
rightKerningGroup = L;
unicode = 013D;
},
{
glyphname = Lcommaaccent;
layers = (
{
layerId = master01;
paths = (
{
closed = 0;
nodes = (
"458 10 LINE",
"140 10 LINE",
"140 680 LINE"
);
},
{
closed = 0;
nodes = (
"205 -240 LINE",
"283 -85 LINE"
);
}
);
width = 508;
}
);
leftKerningGroup = H;
rightKerningGroup = L;
unicode = 013B;
},
{
color = 6;
glyphname = Ldot;
layers = (
{
layerId = master01;
paths = (
{
closed = 0;
nodes = (
"458 10 LINE",
"140 10 LINE",
"140 680 LINE"
);
},
{
closed = 0;
nodes = (
"398 390 LINE",
"398 280 LINE"
);
}
);
width = 508;
}
);
leftKerningGroup = H;
leftMetricsKey = H;
rightKerningGroup = L;
unicode = 013F;
},
{
glyphname = Lslash;
layers = (
{
layerId = master01;
paths = (
{
closed = 0;
nodes = (
"50 297 LINE",
"352 397 LINE"
);
},
{
closed = 0;
nodes = (
"473 10 LINE",
"155 10 LINE",
"155 680 LINE"
);
}
);
width = 523;
}
);
leftKerningGroup = H;
rightKerningGroup = L;
rightMetricsKey = L;
unicode = 0141;
},
{
glyphname = M;
layers = (
{
background = {
paths = (
{
closed = 0;
nodes = (
"722 0 LINE",
"722 680 LINE",
"718 680 LINE",
"433 30 LINE",
"429 30 LINE",
"144 680 LINE",
"140 680 LINE",
"140 0 LINE"
);
}
);
};
layerId = master01;
paths = (
{
closed = 0;
nodes = (
"722 0 LINE",
"722 675 LINE",
"718 675 LINE",
"433 30 LINE",
"429 30 LINE",
"144 675 LINE",
"140 675 LINE",
"140 0 LINE"
);
}
);
width = 862;
}
);
leftKerningGroup = H;
leftMetricsKey = H;
rightKerningGroup = H;
rightMetricsKey = H;
unicode = 004D;
},
{
glyphname = N;
layers = (
{
background = {
paths = (
{
closed = 0;
nodes = (
"140 0 LINE",
"140 680 LINE",
"144 680 LINE",
"596 0 LINE",
"600 0 LINE",
"599 680 LINE"
);
}
);
};
layerId = master01;
paths = (
{
closed = 0;
nodes = (
"140 0 LINE",
"140 675 LINE",
"144 675 LINE",
"596 5 LINE",
"600 5 LINE",
"599 680 LINE"
);
}
);
width = 740;
}
);
leftKerningGroup = H;
leftMetricsKey = H;
rightKerningGroup = H;
rightMetricsKey = H;
unicode = 004E;
},
{
glyphname = Nacute;
layers = (
{
layerId = master01;
paths = (
{
closed = 0;
nodes = (
"140 0 LINE",
"140 675 LINE",
"144 675 LINE",
"596 5 LINE",
"600 5 LINE",
"599 680 LINE"
);
},
{
closed = 0;
nodes = (
"302 782 LINE",
"437 915 LINE"
);
}
);
width = 740;
}
);
leftKerningGroup = H;
rightKerningGroup = H;
unicode = 0143;
},
{
glyphname = Ncaron;
layers = (
{
layerId = master01;
paths = (
{
closed = 0;
nodes = (
"140 0 LINE",
"140 675 LINE",
"144 675 LINE",
"596 5 LINE",
"600 5 LINE",
"599 680 LINE"
);
},
{
closed = 0;
nodes = (
"259 901 LINE",
"368 775 LINE",
"372 775 LINE",
"481 901 LINE"
);
}
);
width = 740;
}
);
leftKerningGroup = H;
rightKerningGroup = H;
unicode = 0147;
},
{
glyphname = Ncommaaccent;
layers = (
{
layerId = master01;
paths = (
{
closed = 0;
nodes = (
"140 0 LINE",
"140 675 LINE",
"144 675 LINE",
"596 5 LINE",
"600 5 LINE",
"599 680 LINE"
);
},
{
closed = 0;
nodes = (
"321 -240 LINE",
"399 -85 LINE"
);
}
);
width = 740;
}
);
leftKerningGroup = H;
rightKerningGroup = H;
unicode = 0145;
},
{
glyphname = Eng;
layers = (
{
layerId = master01;
paths = (
{
closed = 0;
nodes = (
"442 -163 LINE",
"457 -177 OFFCURVE",
"481 -188 OFFCURVE",
"514 -188 CURVE SMOOTH",
"577 -188 OFFCURVE",
"600 -150 OFFCURVE",
"600 -81 CURVE SMOOTH",
"600 0 LINE"
);
},
{
closed = 0;
nodes = (
"140 0 LINE",
"140 675 LINE",
"144 675 LINE",
"596 5 LINE",
"600 5 LINE",
"599 680 LINE"
);
}
);
width = 740;
}
);
leftKerningGroup = H;
leftMetricsKey = N;
rightKerningGroup = H;
rightMetricsKey = N;
unicode = 014A;
},
{
glyphname = Ntilde;
layers = (
{
layerId = master01;
paths = (
{
closed = 0;
nodes = (
"140 0 LINE",
"140 675 LINE",
"144 675 LINE",
"596 5 LINE",
"600 5 LINE",
"599 680 LINE"
);
},
{
closed = 0;
nodes = (
"231 812 LINE",
"253 849 OFFCURVE",
"280 860 OFFCURVE",
"305 860 CURVE SMOOTH",
"352 860 OFFCURVE",
"382 812 OFFCURVE",
"435 812 CURVE SMOOTH",
"460 812 OFFCURVE",
"486 821 OFFCURVE",
"509 859 CURVE"
);
}
);
width = 740;
}
);
leftKerningGroup = H;
rightKerningGroup = H;
unicode = 00D1;
},
{
glyphname = O;
layers = (
{
background = {
paths = (
{
closed = 0;
nodes = (
"357 680 LINE",
"168 680 OFFCURVE",
"95 501 OFFCURVE",
"95 341 CURVE SMOOTH",
"95 207 OFFCURVE",
"147 0 OFFCURVE",
"358 0 CURVE SMOOTH",
"569 0 OFFCURVE",
"621 207 OFFCURVE",
"621 341 CURVE SMOOTH",
"621 501 OFFCURVE",
"548 680 OFFCURVE",
"359 680 CURVE"
);
}
);
};
layerId = master01;
paths = (
{
closed = 0;
nodes = (
"357 680 LINE",
"168 680 OFFCURVE",
"95 501 OFFCURVE",
"95 341 CURVE SMOOTH",
"95 207 OFFCURVE",
"147 0 OFFCURVE",
"358 0 CURVE SMOOTH",
"569 0 OFFCURVE",
"621 207 OFFCURVE",
"621 341 CURVE SMOOTH",
"621 501 OFFCURVE",
"548 680 OFFCURVE",
"359 680 CURVE"
);
}
);
width = 716;
}
);
leftKerningGroup = O;
rightKerningGroup = O;
unicode = 004F;
},
{
glyphname = Oacute;
layers = (
{
layerId = master01;
paths = (
{
closed = 0;
nodes = (
"357 680 LINE",
"168 680 OFFCURVE",
"95 501 OFFCURVE",
"95 341 CURVE SMOOTH",
"95 207 OFFCURVE",
"147 0 OFFCURVE",
"358 0 CURVE SMOOTH",
"569 0 OFFCURVE",
"621 207 OFFCURVE",
"621 341 CURVE SMOOTH",
"621 501 OFFCURVE",
"548 680 OFFCURVE",
"359 680 CURVE"
);
},
{
closed = 0;
nodes = (
"290 782 LINE",
"425 915 LINE"
);
}
);
width = 716;
}
);
leftKerningGroup = O;
rightKerningGroup = O;
unicode = 00D3;
},
{
glyphname = Obreve;
layers = (
{
layerId = master01;
paths = (
{
closed = 0;
nodes = (
"357 680 LINE",
"168 680 OFFCURVE",
"95 501 OFFCURVE",
"95 341 CURVE SMOOTH",
"95 207 OFFCURVE",
"147 0 OFFCURVE",
"358 0 CURVE SMOOTH",
"569 0 OFFCURVE",
"621 207 OFFCURVE",
"621 341 CURVE SMOOTH",
"621 501 OFFCURVE",
"548 680 OFFCURVE",
"359 680 CURVE"
);
},
{
closed = 0;
nodes = (
"238 887 LINE",
"238 832 OFFCURVE",
"290 805 OFFCURVE",
"356 805 CURVE SMOOTH",
"422 805 OFFCURVE",
"478 831 OFFCURVE",
"478 886 CURVE SMOOTH"
);
}
);
width = 716;
}
);
leftKerningGroup = O;
rightKerningGroup = O;
unicode = 014E;
},
{
glyphname = Ocircumflex;
layers = (
{
guideLines = (
{
position = "{353, -64}";
}
);
layerId = master01;
paths = (
{
closed = 0;
nodes = (
"357 680 LINE",
"168 680 OFFCURVE",
"95 501 OFFCURVE",
"95 341 CURVE SMOOTH",
"95 207 OFFCURVE",
"147 0 OFFCURVE",
"358 0 CURVE SMOOTH",
"569 0 OFFCURVE",
"621 207 OFFCURVE",
"621 341 CURVE SMOOTH",
"621 501 OFFCURVE",
"548 680 OFFCURVE",
"359 680 CURVE"
);
},
{
closed = 0;
nodes = (
"469 773 LINE",
"360 899 LINE",
"356 899 LINE",
"247 773 LINE"
);
}
);
width = 716;
}
);
leftKerningGroup = O;
rightKerningGroup = O;
unicode = 00D4;
},
{
glyphname = Odieresis;
layers = (
{
layerId = master01;
paths = (
{
closed = 0;
nodes = (
"357 680 LINE",
"168 680 OFFCURVE",
"95 501 OFFCURVE",
"95 341 CURVE SMOOTH",
"95 207 OFFCURVE",
"147 0 OFFCURVE",
"358 0 CURVE SMOOTH",
"569 0 OFFCURVE",
"621 207 OFFCURVE",
"621 341 CURVE SMOOTH",
"621 501 OFFCURVE",
"548 680 OFFCURVE",
"359 680 CURVE"
);
},
{
closed = 0;
nodes = (
"287 785 LINE",
"287 910 LINE"
);
},
{
closed = 0;
nodes = (
"429 785 LINE",
"429 910 LINE"
);
}
);
width = 716;
}
);
leftKerningGroup = O;
rightKerningGroup = O;
unicode = 00D6;
},
{
glyphname = Ograve;
layers = (
{
layerId = master01;
paths = (
{
closed = 0;
nodes = (
"357 680 LINE",
"168 680 OFFCURVE",
"95 501 OFFCURVE",
"95 341 CURVE SMOOTH",
"95 207 OFFCURVE",
"147 0 OFFCURVE",
"358 0 CURVE SMOOTH",
"569 0 OFFCURVE",
"621 207 OFFCURVE",
"621 341 CURVE SMOOTH",
"621 501 OFFCURVE",
"548 680 OFFCURVE",
"359 680 CURVE"
);
},
{
closed = 0;
nodes = (
"290 916 LINE",
"425 783 LINE"
);
}
);
width = 716;
}
);
leftKerningGroup = O;
rightKerningGroup = O;
unicode = 00D2;
},
{
glyphname = Ohungarumlaut;
layers = (
{
layerId = master01;
paths = (
{
closed = 0;
nodes = (
"357 680 LINE",
"168 680 OFFCURVE",
"95 501 OFFCURVE",
"95 341 CURVE SMOOTH",
"95 207 OFFCURVE",
"147 0 OFFCURVE",
"358 0 CURVE SMOOTH",
"569 0 OFFCURVE",
"621 207 OFFCURVE",
"621 341 CURVE SMOOTH",
"621 501 OFFCURVE",
"548 680 OFFCURVE",
"359 680 CURVE"
);
},
{
closed = 0;
nodes = (
"231 782 LINE",
"358 907 LINE"
);
},
{
closed = 0;
nodes = (
"378 782 LINE",
"505 907 LINE"
);
}
);
width = 716;
}
);
leftKerningGroup = O;
rightKerningGroup = O;
unicode = 0150;
},
{
glyphname = Omacron;
layers = (
{
layerId = master01;
paths = (
{
closed = 0;
nodes = (
"357 680 LINE",
"168 680 OFFCURVE",
"95 501 OFFCURVE",
"95 341 CURVE SMOOTH",
"95 207 OFFCURVE",
"147 0 OFFCURVE",
"358 0 CURVE SMOOTH",
"569 0 OFFCURVE",
"621 207 OFFCURVE",
"621 341 CURVE SMOOTH",
"621 501 OFFCURVE",
"548 680 OFFCURVE",
"359 680 CURVE"
);
},
{
closed = 0;
nodes = (
"468 828 LINE",
"247 828 LINE"
);
}
);
width = 716;
}
);
leftKerningGroup = O;
rightKerningGroup = O;
unicode = 014C;
},
{
glyphname = Oslash;
layers = (
{
layerId = master01;
paths = (
{
closed = 0;
nodes = (
"124 -20 LINE",
"603 700 LINE"
);
},
{
closed = 0;
nodes = (
"357 680 LINE",
"168 680 OFFCURVE",
"95 501 OFFCURVE",
"95 341 CURVE SMOOTH",
"95 207 OFFCURVE",
"147 0 OFFCURVE",
"358 0 CURVE SMOOTH",
"569 0 OFFCURVE",
"621 207 OFFCURVE",
"621 341 CURVE SMOOTH",
"621 501 OFFCURVE",
"548 680 OFFCURVE",
"359 680 CURVE"
);
}
);
width = 716;
}
);
leftKerningGroup = O;
leftMetricsKey = O;
rightKerningGroup = O;
rightMetricsKey = O;
unicode = 00D8;
},
{
glyphname = Otilde;
layers = (
{
layerId = master01;
paths = (
{
closed = 0;
nodes = (
"357 680 LINE",
"168 680 OFFCURVE",
"95 501 OFFCURVE",
"95 341 CURVE SMOOTH",
"95 207 OFFCURVE",
"147 0 OFFCURVE",
"358 0 CURVE SMOOTH",
"569 0 OFFCURVE",
"621 207 OFFCURVE",
"621 341 CURVE SMOOTH",
"621 501 OFFCURVE",
"548 680 OFFCURVE",
"359 680 CURVE"
);
},
{
closed = 0;
nodes = (
"219 812 LINE",
"241 849 OFFCURVE",
"268 860 OFFCURVE",
"293 860 CURVE SMOOTH",
"340 860 OFFCURVE",
"370 812 OFFCURVE",
"423 812 CURVE SMOOTH",
"448 812 OFFCURVE",
"474 821 OFFCURVE",
"497 859 CURVE"
);
}
);
width = 716;
}
);
leftKerningGroup = O;
rightKerningGroup = O;
unicode = 00D5;
},
{
glyphname = OE;
layers = (
{
background = {
components = (
{
name = E;
transform = "{1, 0, 0, 1, 336, 0}";
}
);
};
layerId = master01;
paths = (
{
closed = 0;
nodes = (
"476 10 LINE",
"437 4 OFFCURVE",
"396 0 OFFCURVE",
"353 0 CURVE SMOOTH",
"137 0 OFFCURVE",
"95 207 OFFCURVE",
"95 341 CURVE SMOOTH",
"95 501 OFFCURVE",
"158 680 OFFCURVE",
"352 680 CURVE"
);
},
{
closed = 0;
nodes = (
"817 10 LINE",
"476 10 LINE",
"476 670 LINE",
"817 670 LINE"
);
},
{
closed = 0;
nodes = (
"476 356 LINE",
"800 356 LINE"
);
},
{
closed = 0;
nodes = (
"476 670 LINE",
"438 676 OFFCURVE",
"399 680 OFFCURVE",
"354 680 CURVE"
);
}
);
width = 907;
}
);
leftKerningGroup = O;
leftMetricsKey = O;
rightKerningGroup = E;
rightMetricsKey = E;
unicode = 0152;
},
{
glyphname = P;
layers = (
{
background = {
paths = (
{
closed = 0;
nodes = (
"140 316 LINE",
"314 316 LINE SMOOTH",
"454 316 OFFCURVE",
"525 381 OFFCURVE",
"525 493 CURVE SMOOTH",
"525 602 OFFCURVE",
"458 680 OFFCURVE",
"317 680 CURVE SMOOTH",
"140 680 LINE"
);
},
{
closed = 0;
nodes = (
"140 0 LINE",
"140 680 LINE"
);
}
);
};
layerId = master01;
paths = (
{
closed = 0;
nodes = (
"140 0 LINE",
"140 670 LINE"
);
},
{
closed = 0;
nodes = (
"140 316 LINE",
"314 316 LINE SMOOTH",
"454 316 OFFCURVE",
"525 379 OFFCURVE",
"525 488 CURVE SMOOTH",
"525 594 OFFCURVE",
"458 670 OFFCURVE",
"317 670 CURVE SMOOTH",
"140 670 LINE"
);
}
);
width = 590;
},
{
associatedMasterId = master01;
background = {
paths = (
{
closed = 0;
nodes = (
"140 316 LINE",
"314 316 LINE SMOOTH",
"454 316 OFFCURVE",
"525 381 OFFCURVE",
"525 493 CURVE SMOOTH",
"525 602 OFFCURVE",
"458 680 OFFCURVE",
"317 680 CURVE SMOOTH",
"140 680 LINE"
);
},
{
closed = 0;
nodes = (
"140 0 LINE",
"140 680 LINE"
);
}
);
};
layerId = "740E901D-BDE8-45EF-A085-4B26D1D791E1";
name = "20 nov. 21 à 21:13";
paths = (
{
closed = 0;
nodes = (
"140 316 LINE",
"314 316 LINE SMOOTH",
"454 316 OFFCURVE",
"525 381 OFFCURVE",
"525 493 CURVE SMOOTH",
"525 602 OFFCURVE",
"458 680 OFFCURVE",
"317 680 CURVE SMOOTH",
"140 680 LINE"
);
},
{
closed = 0;
nodes = (
"140 0 LINE",
"140 680 LINE"
);
}
);
width = 590;
}
);
leftKerningGroup = H;
leftMetricsKey = H;
rightKerningGroup = P;
unicode = 0050;
},
{
glyphname = Thorn;
layers = (
{
layerId = master01;
paths = (
{
closed = 0;
nodes = (
"140 0 LINE",
"140 680 LINE"
);
},
{
closed = 0;
nodes = (
"140 177 LINE",
"302 177 LINE SMOOTH",
"468 177 OFFCURVE",
"524 250 OFFCURVE",
"524 348 CURVE SMOOTH",
"524 447 OFFCURVE",
"462 513 OFFCURVE",
"320 513 CURVE SMOOTH",
"140 513 LINE"
);
}
);
width = 583;
}
);
leftKerningGroup = H;
leftMetricsKey = H;
rightKerningGroup = Thorn;
unicode = 00DE;
},
{
glyphname = Q;
layers = (
{
background = {
paths = (
{
closed = 0;
nodes = (
"599 -138 LINE",
"428 7 LINE"
);
}
);
};
layerId = master01;
paths = (
{
closed = 0;
nodes = (
"599 -138 LINE",
"428 7 LINE"
);
},
{
closed = 0;
nodes = (
"357 680 LINE",
"168 680 OFFCURVE",
"95 501 OFFCURVE",
"95 341 CURVE SMOOTH",
"95 207 OFFCURVE",
"147 0 OFFCURVE",
"358 0 CURVE SMOOTH",
"569 0 OFFCURVE",
"621 207 OFFCURVE",
"621 341 CURVE SMOOTH",
"621 501 OFFCURVE",
"548 680 OFFCURVE",
"359 680 CURVE"
);
}
);
width = 716;
}
);
leftKerningGroup = O;
leftMetricsKey = O;
rightKerningGroup = O;
unicode = 0051;
},
{
glyphname = R;
layers = (
{
background = {
paths = (
{
closed = 0;
nodes = (
"140 344 LINE",
"325 344 LINE SMOOTH",
"423 344 OFFCURVE",
"506 406 OFFCURVE",
"506 512 CURVE SMOOTH",
"506 602 OFFCURVE",
"447 680 OFFCURVE",
"313 680 CURVE SMOOTH",
"140 680 LINE SMOOTH"
);
},
{
closed = 0;
nodes = (
"140 0 LINE",
"140 680 LINE"
);
},
{
closed = 0;
nodes = (
"519 0 LINE",
"343 344 LINE"
);
}
);
};
layerId = master01;
paths = (
{
closed = 0;
nodes = (
"140 0 LINE",
"140 670 LINE"
);
},
{
closed = 0;
nodes = (
"519 0 LINE",
"343 344 LINE"
);
},
{
closed = 0;
nodes = (
"140 344 LINE",
"325 344 LINE SMOOTH",
"423 344 OFFCURVE",
"506 404 OFFCURVE",
"506 507 CURVE SMOOTH",
"506 594 OFFCURVE",
"447 670 OFFCURVE",
"313 670 CURVE SMOOTH",
"140 670 LINE SMOOTH"
);
}
);
width = 604;
},
{
associatedMasterId = master01;
background = {
paths = (
{
closed = 0;
nodes = (
"140 344 LINE",
"325 344 LINE SMOOTH",
"423 344 OFFCURVE",
"506 406 OFFCURVE",
"506 512 CURVE SMOOTH",
"506 602 OFFCURVE",
"447 680 OFFCURVE",
"313 680 CURVE SMOOTH",
"140 680 LINE SMOOTH"
);
},
{
closed = 0;
nodes = (
"140 0 LINE",
"140 680 LINE"
);
},
{
closed = 0;
nodes = (
"519 0 LINE",
"343 344 LINE"
);
}
);
};
layerId = "7D11FDD9-E37F-4CF1-9A4B-DE22CE2F7D06";
name = "20 nov. 21 à 21:13";
paths = (
{
closed = 0;
nodes = (
"140 344 LINE",
"325 344 LINE SMOOTH",
"423 344 OFFCURVE",
"506 406 OFFCURVE",
"506 512 CURVE SMOOTH",
"506 602 OFFCURVE",
"447 680 OFFCURVE",
"313 680 CURVE SMOOTH",
"140 680 LINE SMOOTH"
);
},
{
closed = 0;
nodes = (
"140 0 LINE",
"140 680 LINE"
);
},
{
closed = 0;
nodes = (
"519 0 LINE",
"343 344 LINE"
);
}
);
width = 604;
}
);
leftKerningGroup = H;
leftMetricsKey = H;
rightKerningGroup = R;
unicode = 0052;
},
{
glyphname = Racute;
layers = (
{
layerId = master01;
paths = (
{
closed = 0;
nodes = (
"140 0 LINE",
"140 670 LINE"
);
},
{
closed = 0;
nodes = (
"519 0 LINE",
"343 344 LINE"
);
},
{
closed = 0;
nodes = (
"140 344 LINE",
"325 344 LINE SMOOTH",
"423 344 OFFCURVE",
"506 404 OFFCURVE",
"506 507 CURVE SMOOTH",
"506 594 OFFCURVE",
"447 670 OFFCURVE",
"313 670 CURVE SMOOTH",
"140 670 LINE SMOOTH"
);
},
{
closed = 0;
nodes = (
"232 782 LINE",
"367 915 LINE"
);
}
);
width = 604;
}
);
leftKerningGroup = H;
rightKerningGroup = R;
unicode = 0154;
},
{
glyphname = Rcaron;
layers = (
{
layerId = master01;
paths = (
{
closed = 0;
nodes = (
"140 0 LINE",
"140 670 LINE"
);
},
{
closed = 0;
nodes = (
"519 0 LINE",
"343 344 LINE"
);
},
{
closed = 0;
nodes = (
"140 344 LINE",
"325 344 LINE SMOOTH",
"423 344 OFFCURVE",
"506 404 OFFCURVE",
"506 507 CURVE SMOOTH",
"506 594 OFFCURVE",
"447 670 OFFCURVE",
"313 670 CURVE SMOOTH",
"140 670 LINE SMOOTH"
);
},
{
closed = 0;
nodes = (
"189 901 LINE",
"298 775 LINE",
"302 775 LINE",
"411 901 LINE"
);
}
);
width = 604;
}
);
leftKerningGroup = H;
rightKerningGroup = R;
unicode = 0158;
},
{
glyphname = Rcommaaccent;
layers = (
{
layerId = master01;
paths = (
{
closed = 0;
nodes = (
"140 0 LINE",
"140 670 LINE"
);
},
{
closed = 0;
nodes = (
"519 0 LINE",
"343 344 LINE"
);
},
{
closed = 0;
nodes = (
"140 344 LINE",
"325 344 LINE SMOOTH",
"423 344 OFFCURVE",
"506 404 OFFCURVE",
"506 507 CURVE SMOOTH",
"506 594 OFFCURVE",
"447 670 OFFCURVE",
"313 670 CURVE SMOOTH",
"140 670 LINE SMOOTH"
);
},
{
closed = 0;
nodes = (
"256 -240 LINE",
"334 -85 LINE"
);
}
);
width = 604;
}
);
leftKerningGroup = H;
rightKerningGroup = R;
unicode = 0156;
},
{
glyphname = S;
layers = (
{
background = {
components = (
{
name = O;
transform = "{1, 0, 0, 1, -79, 0}";
}
);
paths = (
{
closed = 0;
nodes = (
"95 109 LINE",
"123 43 OFFCURVE",
"193 0 OFFCURVE",
"285 0 CURVE SMOOTH",
"404 0 OFFCURVE",
"476 74 OFFCURVE",
"476 163 CURVE SMOOTH",
"476 364 OFFCURVE",
"109 334 OFFCURVE",
"109 526 CURVE SMOOTH",
"109 605 OFFCURVE",
"171 680 OFFCURVE",
"293 680 CURVE SMOOTH",
"379 680 OFFCURVE",
"432 642 OFFCURVE",
"456 590 CURVE"
);
}
);
};
layerId = master01;
paths = (
{
closed = 0;
nodes = (
"95 109 LINE",
"123 43 OFFCURVE",
"193 0 OFFCURVE",
"285 0 CURVE SMOOTH",
"404 0 OFFCURVE",
"476 74 OFFCURVE",
"476 163 CURVE SMOOTH",
"476 364 OFFCURVE",
"109 334 OFFCURVE",
"109 526 CURVE SMOOTH",
"109 605 OFFCURVE",
"171 680 OFFCURVE",
"293 680 CURVE SMOOTH",
"379 680 OFFCURVE",
"432 642 OFFCURVE",
"456 590 CURVE"
);
}
);
width = 566;
}
);
leftKerningGroup = O;
leftMetricsKey = O;
rightKerningGroup = O;
rightMetricsKey = "=O-5";
unicode = 0053;
},
{
glyphname = Sacute;
layers = (
{
layerId = master01;
paths = (
{
closed = 0;
nodes = (
"95 109 LINE",
"123 43 OFFCURVE",
"193 0 OFFCURVE",
"285 0 CURVE SMOOTH",
"404 0 OFFCURVE",
"476 74 OFFCURVE",
"476 163 CURVE SMOOTH",
"476 364 OFFCURVE",
"109 334 OFFCURVE",
"109 526 CURVE SMOOTH",
"109 605 OFFCURVE",
"171 680 OFFCURVE",
"293 680 CURVE SMOOTH",
"379 680 OFFCURVE",
"432 642 OFFCURVE",
"456 590 CURVE"
);
},
{
closed = 0;
nodes = (
"230 782 LINE",
"365 915 LINE"
);
}
);
width = 566;
}
);
leftKerningGroup = O;
rightKerningGroup = O;
unicode = 015A;
},
{
glyphname = Scaron;
layers = (
{
layerId = master01;
paths = (
{
closed = 0;
nodes = (
"95 109 LINE",
"123 43 OFFCURVE",
"193 0 OFFCURVE",
"285 0 CURVE SMOOTH",
"404 0 OFFCURVE",
"476 74 OFFCURVE",
"476 163 CURVE SMOOTH",
"476 364 OFFCURVE",
"109 334 OFFCURVE",
"109 526 CURVE SMOOTH",
"109 605 OFFCURVE",
"171 680 OFFCURVE",
"293 680 CURVE SMOOTH",
"379 680 OFFCURVE",
"432 642 OFFCURVE",
"456 590 CURVE"
);
},
{
closed = 0;
nodes = (
"187 901 LINE",
"296 775 LINE",
"300 775 LINE",
"409 901 LINE"
);
}
);
width = 566;
}
);
leftKerningGroup = O;
rightKerningGroup = O;
unicode = 0160;
},
{
glyphname = Scedilla;
layers = (
{
layerId = master01;
paths = (
{
closed = 0;
nodes = (
"95 109 LINE",
"123 43 OFFCURVE",
"193 0 OFFCURVE",
"285 0 CURVE SMOOTH",
"404 0 OFFCURVE",
"476 74 OFFCURVE",
"476 163 CURVE SMOOTH",
"476 364 OFFCURVE",
"109 334 OFFCURVE",
"109 526 CURVE SMOOTH",
"109 605 OFFCURVE",
"171 680 OFFCURVE",
"293 680 CURVE SMOOTH",
"379 680 OFFCURVE",
"432 642 OFFCURVE",
"456 590 CURVE"
);
},
{
closed = 0;
nodes = (
"212 -177 LINE SMOOTH",
"225 -184 OFFCURVE",
"244 -191 OFFCURVE",
"273 -191 CURVE SMOOTH",
"325 -191 OFFCURVE",
"357 -168 OFFCURVE",
"357 -132 CURVE SMOOTH",
"357 -95 OFFCURVE",
"326 -78 OFFCURVE",
"272 -78 CURVE SMOOTH",
"246 -78 LINE",
"292 0 LINE"
);
}
);
width = 566;
}
);
leftKerningGroup = O;
rightKerningGroup = O;
unicode = 015E;
},
{
glyphname = Scircumflex;
layers = (
{
layerId = master01;
paths = (
{
closed = 0;
nodes = (
"95 109 LINE",
"123 43 OFFCURVE",
"193 0 OFFCURVE",
"285 0 CURVE SMOOTH",
"404 0 OFFCURVE",
"476 74 OFFCURVE",
"476 163 CURVE SMOOTH",
"476 364 OFFCURVE",
"109 334 OFFCURVE",
"109 526 CURVE SMOOTH",
"109 605 OFFCURVE",
"171 680 OFFCURVE",
"293 680 CURVE SMOOTH",
"379 680 OFFCURVE",
"432 642 OFFCURVE",
"456 590 CURVE"
);
},
{
closed = 0;
nodes = (
"409 773 LINE",
"300 899 LINE",
"296 899 LINE",
"187 773 LINE"
);
}
);
width = 566;
}
);
leftKerningGroup = O;
rightKerningGroup = O;
unicode = 015C;
},
{
glyphname = Scommaaccent;
layers = (
{
layerId = master01;
paths = (
{
closed = 0;
nodes = (
"95 109 LINE",
"123 43 OFFCURVE",
"193 0 OFFCURVE",
"285 0 CURVE SMOOTH",
"404 0 OFFCURVE",
"476 74 OFFCURVE",
"476 163 CURVE SMOOTH",
"476 364 OFFCURVE",
"109 334 OFFCURVE",
"109 526 CURVE SMOOTH",
"109 605 OFFCURVE",
"171 680 OFFCURVE",
"293 680 CURVE SMOOTH",
"379 680 OFFCURVE",
"432 642 OFFCURVE",
"456 590 CURVE"
);
},
{
closed = 0;
nodes = (
"243 -240 LINE",
"321 -85 LINE"
);
}
);
width = 566;
}
);
leftKerningGroup = O;
rightKerningGroup = O;
unicode = 0218;
},
{
glyphname = Germandbls;
layers = (
{
background = {
paths = (
{
closed = 0;
nodes = (
"260 24 LINE",
"283 11 OFFCURVE",
"318 0 OFFCURVE",
"361 0 CURVE SMOOTH",
"472 0 OFFCURVE",
"554 74 OFFCURVE",
"554 186 CURVE SMOOTH",
"554 311 OFFCURVE",
"453 388 OFFCURVE",
"347 401 CURVE",
"511 666 LINE",
"511 670 LINE",
"140 670 LINE",
"140 0 LINE"
);
}
);
};
layerId = master01;
paths = (
{
closed = 0;
nodes = (
"260 24 LINE",
"283 11 OFFCURVE",
"318 0 OFFCURVE",
"361 0 CURVE SMOOTH",
"472 0 OFFCURVE",
"554 74 OFFCURVE",
"554 186 CURVE SMOOTH",
"554 311 OFFCURVE",
"453 388 OFFCURVE",
"347 401 CURVE",
"511 666 LINE",
"511 670 LINE",
"140 670 LINE",
"140 0 LINE"
);
}
);
width = 624;
}
);
leftKerningGroup = H;
leftMetricsKey = H;
rightKerningGroup = Germandbls;
unicode = 1E9E;
},
{
glyphname = T;
layers = (
{
background = {
paths = (
{
closed = 0;
nodes = (
"40 670 LINE",
"480 670 LINE"
);
},
{
closed = 0;
nodes = (
"260 0 LINE",
"260 670 LINE"
);
}
);
};
layerId = master01;
paths = (
{
closed = 0;
nodes = (
"260 0 LINE",
"260 670 LINE"
);
},
{
closed = 0;
nodes = (
"40 670 LINE",
"480 670 LINE"
);
}
);
width = 520;
}
);
leftKerningGroup = T;
rightKerningGroup = T;
unicode = 0054;
},
{
glyphname = Tbar;
layers = (
{
layerId = master01;
paths = (
{
closed = 0;
nodes = (
"120 398 LINE",
"400 398 LINE"
);
},
{
closed = 0;
nodes = (
"260 0 LINE",
"260 670 LINE"
);
},
{
closed = 0;
nodes = (
"40 670 LINE",
"480 670 LINE"
);
}
);
width = 520;
}
);
leftKerningGroup = T;
leftMetricsKey = T;
rightKerningGroup = T;
rightMetricsKey = T;
unicode = 0166;
},
{
glyphname = Tcaron;
layers = (
{
layerId = master01;
paths = (
{
closed = 0;
nodes = (
"260 0 LINE",
"260 670 LINE"
);
},
{
closed = 0;
nodes = (
"40 670 LINE",
"480 670 LINE"
);
},
{
closed = 0;
nodes = (
"149 901 LINE",
"258 775 LINE",
"262 775 LINE",
"371 901 LINE"
);
}
);
width = 520;
}
);
leftKerningGroup = T;
rightKerningGroup = T;
unicode = 0164;
},
{
glyphname = Tcedilla;
layers = (
{
layerId = master01;
paths = (
{
closed = 0;
nodes = (
"260 0 LINE",
"260 670 LINE"
);
},
{
closed = 0;
nodes = (
"40 670 LINE",
"480 670 LINE"
);
},
{
closed = 0;
nodes = (
"180 -177 LINE SMOOTH",
"193 -184 OFFCURVE",
"212 -191 OFFCURVE",
"241 -191 CURVE SMOOTH",
"293 -191 OFFCURVE",
"325 -168 OFFCURVE",
"325 -132 CURVE SMOOTH",
"325 -95 OFFCURVE",
"294 -78 OFFCURVE",
"240 -78 CURVE SMOOTH",
"214 -78 LINE",
"260 0 LINE"
);
}
);
width = 520;
}
);
leftKerningGroup = T;
rightKerningGroup = T;
unicode = 0162;
},
{
glyphname = Tcommaaccent;
layers = (
{
background = {
components = (
{
name = commaaccentcomb;
transform = "{1, 0, 0, 1, 201, 0}";
}
);
};
layerId = master01;
paths = (
{
closed = 0;
nodes = (
"181 -222 LINE",
"259 -67 LINE"
);
},
{
closed = 0;
nodes = (
"260 0 LINE",
"260 670 LINE"
);
},
{
closed = 0;
nodes = (
"40 670 LINE",
"480 670 LINE"
);
}
);
width = 520;
}
);
leftKerningGroup = T;
rightKerningGroup = T;
unicode = 021A;
},
{
glyphname = U;
layers = (
{
background = {
paths = (
{
closed = 0;
nodes = (
"130 680 LINE",
"130 245 LINE SMOOTH",
"130 87 OFFCURVE",
"218 0 OFFCURVE",
"347 0 CURVE SMOOTH",
"482 0 OFFCURVE",
"564 87 OFFCURVE",
"564 245 CURVE SMOOTH",
"564 680 LINE"
);
}
);
};
layerId = master01;
paths = (
{
closed = 0;
nodes = (
"130 680 LINE",
"130 245 LINE SMOOTH",
"130 87 OFFCURVE",
"218 0 OFFCURVE",
"347 0 CURVE SMOOTH",
"482 0 OFFCURVE",
"564 87 OFFCURVE",
"564 245 CURVE SMOOTH",
"564 680 LINE"
);
}
);
width = 694;
}
);
leftKerningGroup = U;
leftMetricsKey = "=H-10";
rightKerningGroup = U;
rightMetricsKey = "=H-10";
unicode = 0055;
},
{
glyphname = Uacute;
layers = (
{
layerId = master01;
paths = (
{
closed = 0;
nodes = (
"130 680 LINE",
"130 245 LINE SMOOTH",
"130 87 OFFCURVE",
"218 0 OFFCURVE",
"347 0 CURVE SMOOTH",
"482 0 OFFCURVE",
"564 87 OFFCURVE",
"564 245 CURVE SMOOTH",
"564 680 LINE"
);
},
{
closed = 0;
nodes = (
"278 782 LINE",
"413 915 LINE"
);
}
);
width = 694;
}
);
leftKerningGroup = U;
rightKerningGroup = U;
unicode = 00DA;
},
{
glyphname = Ubreve;
layers = (
{
layerId = master01;
paths = (
{
closed = 0;
nodes = (
"130 680 LINE",
"130 245 LINE SMOOTH",
"130 87 OFFCURVE",
"218 0 OFFCURVE",
"347 0 CURVE SMOOTH",
"482 0 OFFCURVE",
"564 87 OFFCURVE",
"564 245 CURVE SMOOTH",
"564 680 LINE"
);
},
{
closed = 0;
nodes = (
"226 887 LINE",
"226 832 OFFCURVE",
"278 805 OFFCURVE",
"344 805 CURVE SMOOTH",
"410 805 OFFCURVE",
"466 831 OFFCURVE",
"466 886 CURVE SMOOTH"
);
}
);
width = 694;
}
);
leftKerningGroup = U;
rightKerningGroup = U;
unicode = 016C;
},
{
glyphname = Ucircumflex;
layers = (
{
guideLines = (
{
position = "{337, -64}";
}
);
layerId = master01;
paths = (
{
closed = 0;
nodes = (
"130 680 LINE",
"130 245 LINE SMOOTH",
"130 87 OFFCURVE",
"218 0 OFFCURVE",
"347 0 CURVE SMOOTH",
"482 0 OFFCURVE",
"564 87 OFFCURVE",
"564 245 CURVE SMOOTH",
"564 680 LINE"
);
},
{
closed = 0;
nodes = (
"457 773 LINE",
"348 899 LINE",
"344 899 LINE",
"235 773 LINE"
);
}
);
width = 694;
}
);
leftKerningGroup = U;
rightKerningGroup = U;
unicode = 00DB;
},
{
glyphname = Udieresis;
layers = (
{
layerId = master01;
paths = (
{
closed = 0;
nodes = (
"130 680 LINE",
"130 245 LINE SMOOTH",
"130 87 OFFCURVE",
"218 0 OFFCURVE",
"347 0 CURVE SMOOTH",
"482 0 OFFCURVE",
"564 87 OFFCURVE",
"564 245 CURVE SMOOTH",
"564 680 LINE"
);
},
{
closed = 0;
nodes = (
"275 785 LINE",
"275 910 LINE"
);
},
{
closed = 0;
nodes = (
"417 785 LINE",
"417 910 LINE"
);
}
);
width = 694;
}
);
leftKerningGroup = U;
rightKerningGroup = U;
unicode = 00DC;
},
{
glyphname = Ugrave;
layers = (
{
layerId = master01;
paths = (
{
closed = 0;
nodes = (
"130 680 LINE",
"130 245 LINE SMOOTH",
"130 87 OFFCURVE",
"218 0 OFFCURVE",
"347 0 CURVE SMOOTH",
"482 0 OFFCURVE",
"564 87 OFFCURVE",
"564 245 CURVE SMOOTH",
"564 680 LINE"
);
},
{
closed = 0;
nodes = (
"278 916 LINE",
"413 783 LINE"
);
}
);
width = 694;
}
);
leftKerningGroup = U;
rightKerningGroup = U;
unicode = 00D9;
},
{
glyphname = Uhungarumlaut;
layers = (
{
layerId = master01;
paths = (
{
closed = 0;
nodes = (
"130 680 LINE",
"130 245 LINE SMOOTH",
"130 87 OFFCURVE",
"218 0 OFFCURVE",
"347 0 CURVE SMOOTH",
"482 0 OFFCURVE",
"564 87 OFFCURVE",
"564 245 CURVE SMOOTH",
"564 680 LINE"
);
},
{
closed = 0;
nodes = (
"219 782 LINE",
"346 907 LINE"
);
},
{
closed = 0;
nodes = (
"366 782 LINE",
"493 907 LINE"
);
}
);
width = 694;
}
);
leftKerningGroup = U;
rightKerningGroup = U;
unicode = 0170;
},
{
glyphname = Umacron;
layers = (
{
layerId = master01;
paths = (
{
closed = 0;
nodes = (
"130 680 LINE",
"130 245 LINE SMOOTH",
"130 87 OFFCURVE",
"218 0 OFFCURVE",
"347 0 CURVE SMOOTH",
"482 0 OFFCURVE",
"564 87 OFFCURVE",
"564 245 CURVE SMOOTH",
"564 680 LINE"
);
},
{
closed = 0;
nodes = (
"456 828 LINE",
"235 828 LINE"
);
}
);
width = 694;
}
);
leftKerningGroup = U;
rightKerningGroup = U;
unicode = 016A;
},
{
glyphname = Uogonek;
layers = (
{
layerId = master01;
paths = (
{
closed = 0;
nodes = (
"130 680 LINE",
"130 245 LINE SMOOTH",
"130 87 OFFCURVE",
"218 0 OFFCURVE",
"347 0 CURVE SMOOTH",
"482 0 OFFCURVE",
"564 87 OFFCURVE",
"564 245 CURVE SMOOTH",
"564 680 LINE"
);
},
{
closed = 0;
nodes = (
"403 -184 LINE SMOOTH",
"390 -192 OFFCURVE",
"365 -200 OFFCURVE",
"341 -200 CURVE SMOOTH",
"291 -200 OFFCURVE",
"264 -175 OFFCURVE",
"264 -130 CURVE SMOOTH",
"264 -87 OFFCURVE",
"315 -38 OFFCURVE",
"362 0 CURVE"
);
}
);
width = 694;
}
);
leftKerningGroup = U;
rightKerningGroup = U;
unicode = 0172;
},
{
glyphname = Uring;
layers = (
{
layerId = master01;
paths = (
{
closed = 0;
nodes = (
"130 680 LINE",
"130 245 LINE SMOOTH",
"130 87 OFFCURVE",
"218 0 OFFCURVE",
"347 0 CURVE SMOOTH",
"482 0 OFFCURVE",
"564 87 OFFCURVE",
"564 245 CURVE SMOOTH",
"564 680 LINE"
);
},
{
closed = 0;
nodes = (
"345 916 LINE",
"304 916 OFFCURVE",
"272 883 OFFCURVE",
"272 843 CURVE SMOOTH",
"272 803 OFFCURVE",
"305 770 OFFCURVE",
"345 770 CURVE SMOOTH",
"386 770 OFFCURVE",
"419 803 OFFCURVE",
"419 843 CURVE SMOOTH",
"419 883 OFFCURVE",
"386 916 OFFCURVE",
"345 916 CURVE"
);
}
);
width = 694;
}
);
leftKerningGroup = U;
rightKerningGroup = U;
unicode = 016E;
},
{
glyphname = Utilde;
layers = (
{
layerId = master01;
paths = (
{
closed = 0;
nodes = (
"130 680 LINE",
"130 245 LINE SMOOTH",
"130 87 OFFCURVE",
"218 0 OFFCURVE",
"347 0 CURVE SMOOTH",
"482 0 OFFCURVE",
"564 87 OFFCURVE",
"564 245 CURVE SMOOTH",
"564 680 LINE"
);
},
{
closed = 0;
nodes = (
"207 812 LINE",
"229 849 OFFCURVE",
"256 860 OFFCURVE",
"281 860 CURVE SMOOTH",
"328 860 OFFCURVE",
"358 812 OFFCURVE",
"411 812 CURVE SMOOTH",
"436 812 OFFCURVE",
"462 821 OFFCURVE",
"485 859 CURVE"
);
}
);
width = 694;
}
);
leftKerningGroup = U;
rightKerningGroup = U;
unicode = 0168;
},
{
glyphname = V;
layers = (
{
background = {
paths = (
{
closed = 0;
nodes = (
"70 680 LINE",
"319 0 LINE",
"323 0 LINE",
"571 680 LINE"
);
}
);
};
layerId = master01;
paths = (
{
closed = 0;
nodes = (
"70 680 LINE",
"319 5 LINE",
"323 5 LINE",
"571 680 LINE"
);
}
);
width = 641;
}
);
leftKerningGroup = V;
leftMetricsKey = A;
rightKerningGroup = V;
rightMetricsKey = A;
unicode = 0056;
},
{
glyphname = W;
layers = (
{
background = {
paths = (
{
closed = 0;
nodes = (
"80 680 LINE",
"255 0 LINE",
"259 0 LINE",
"450 670 LINE",
"454 670 LINE",
"645 0 LINE",
"649 0 LINE",
"830 680 LINE"
);
}
);
};
layerId = master01;
paths = (
{
closed = 0;
nodes = (
"80 680 LINE",
"255 5 LINE",
"259 5 LINE",
"450 670 LINE",
"454 670 LINE",
"645 5 LINE",
"649 5 LINE",
"830 680 LINE"
);
}
);
width = 910;
}
);
leftKerningGroup = W;
leftMetricsKey = "=V+10";
rightKerningGroup = W;
rightMetricsKey = "=V+10";
unicode = 0057;
},
{
glyphname = Wacute;
layers = (
{
layerId = master01;
paths = (
{
closed = 0;
nodes = (
"80 680 LINE",
"255 5 LINE",
"259 5 LINE",
"450 670 LINE",
"454 670 LINE",
"645 5 LINE",
"649 5 LINE",
"830 680 LINE"
);
},
{
closed = 0;
nodes = (
"385 782 LINE",
"520 915 LINE"
);
}
);
width = 910;
}
);
leftKerningGroup = V;
rightKerningGroup = V;
unicode = 1E82;
},
{
glyphname = Wcircumflex;
layers = (
{
layerId = master01;
paths = (
{
closed = 0;
nodes = (
"80 680 LINE",
"255 5 LINE",
"259 5 LINE",
"450 670 LINE",
"454 670 LINE",
"645 5 LINE",
"649 5 LINE",
"830 680 LINE"
);
},
{
closed = 0;
nodes = (
"564 773 LINE",
"455 899 LINE",
"451 899 LINE",
"342 773 LINE"
);
}
);
width = 910;
}
);
leftKerningGroup = V;
rightKerningGroup = V;
unicode = 0174;
},
{
glyphname = Wdieresis;
layers = (
{
layerId = master01;
paths = (
{
closed = 0;
nodes = (
"80 680 LINE",
"255 5 LINE",
"259 5 LINE",
"450 670 LINE",
"454 670 LINE",
"645 5 LINE",
"649 5 LINE",
"830 680 LINE"
);
},
{
closed = 0;
nodes = (
"382 785 LINE",
"382 910 LINE"
);
},
{
closed = 0;
nodes = (
"524 785 LINE",
"524 910 LINE"
);
}
);
width = 910;
}
);
leftKerningGroup = V;
rightKerningGroup = V;
unicode = 1E84;
},
{
glyphname = Wgrave;
layers = (
{
layerId = master01;
paths = (
{
closed = 0;
nodes = (
"80 680 LINE",
"255 5 LINE",
"259 5 LINE",
"450 670 LINE",
"454 670 LINE",
"645 5 LINE",
"649 5 LINE",
"830 680 LINE"
);
},
{
closed = 0;
nodes = (
"385 916 LINE",
"520 783 LINE"
);
}
);
width = 910;
}
);
leftKerningGroup = V;
rightKerningGroup = V;
unicode = 1E80;
},
{
glyphname = X;
layers = (
{
background = {
paths = (
{
closed = 0;
nodes = (
"70 0 LINE",
"516 680 LINE"
);
},
{
closed = 0;
nodes = (
"537 0 LINE",
"93 680 LINE"
);
}
);
};
layerId = master01;
paths = (
{
closed = 0;
nodes = (
"70 0 LINE",
"516 680 LINE"
);
},
{
closed = 0;
nodes = (
"537 0 LINE",
"93 680 LINE"
);
}
);
width = 607;
}
);
leftKerningGroup = X;
rightKerningGroup = X;
unicode = 0058;
},
{
glyphname = Y;
layers = (
{
background = {
paths = (
{
closed = 0;
nodes = (
"50 680 LINE",
"285 296 LINE",
"525 680 LINE"
);
},
{
closed = 0;
nodes = (
"285 0 LINE",
"285 296 LINE"
);
}
);
};
layerId = master01;
paths = (
{
closed = 0;
nodes = (
"285 0 LINE",
"285 296 LINE"
);
},
{
closed = 0;
nodes = (
"50 680 LINE",
"285 296 LINE",
"525 680 LINE"
);
}
);
width = 575;
}
);
leftKerningGroup = Y;
rightKerningGroup = Y;
unicode = 0059;
},
{
glyphname = Yacute;
layers = (
{
layerId = master01;
paths = (
{
closed = 0;
nodes = (
"285 0 LINE",
"285 296 LINE"
);
},
{
closed = 0;
nodes = (
"50 680 LINE",
"285 296 LINE",
"525 680 LINE"
);
},
{
closed = 0;
nodes = (
"223 782 LINE",
"358 915 LINE"
);
}
);
width = 575;
}
);
leftKerningGroup = Y;
rightKerningGroup = Y;
unicode = 00DD;
},
{
glyphname = Ycircumflex;
layers = (
{
layerId = master01;
paths = (
{
closed = 0;
nodes = (
"285 0 LINE",
"285 296 LINE"
);
},
{
closed = 0;
nodes = (
"50 680 LINE",
"285 296 LINE",
"525 680 LINE"
);
},
{
closed = 0;
nodes = (
"402 773 LINE",
"293 899 LINE",
"289 899 LINE",
"180 773 LINE"
);
}
);
width = 575;
}
);
leftKerningGroup = Y;
rightKerningGroup = Y;
unicode = 0176;
},
{
glyphname = Ydieresis;
layers = (
{
layerId = master01;
paths = (
{
closed = 0;
nodes = (
"285 0 LINE",
"285 296 LINE"
);
},
{
closed = 0;
nodes = (
"50 680 LINE",
"285 296 LINE",
"525 680 LINE"
);
},
{
closed = 0;
nodes = (
"220 785 LINE",
"220 910 LINE"
);
},
{
closed = 0;
nodes = (
"362 785 LINE",
"362 910 LINE"
);
}
);
width = 575;
}
);
leftKerningGroup = Y;
rightKerningGroup = Y;
unicode = 0178;
},
{
glyphname = Ygrave;
layers = (
{
layerId = master01;
paths = (
{
closed = 0;
nodes = (
"285 0 LINE",
"285 296 LINE"
);
},
{
closed = 0;
nodes = (
"50 680 LINE",
"285 296 LINE",
"525 680 LINE"
);
},
{
closed = 0;
nodes = (
"223 916 LINE",
"358 783 LINE"
);
}
);
width = 575;
}
);
leftKerningGroup = Y;
rightKerningGroup = Y;
unicode = 1EF2;
},
{
glyphname = Z;
layers = (
{
background = {
paths = (
{
closed = 0;
nodes = (
"509 10 LINE",
"111 10 LINE",
"111 14 LINE",
"498 666 LINE",
"498 670 LINE",
"110 670 LINE"
);
}
);
};
layerId = master01;
paths = (
{
closed = 0;
nodes = (
"509 10 LINE",
"111 10 LINE",
"111 14 LINE",
"498 666 LINE",
"498 670 LINE",
"110 670 LINE"
);
}
);
width = 609;
}
);
leftKerningGroup = Z;
rightKerningGroup = Z;
unicode = 005A;
},
{
glyphname = Zacute;
layers = (
{
layerId = master01;
paths = (
{
closed = 0;
nodes = (
"509 10 LINE",
"111 10 LINE",
"111 14 LINE",
"498 666 LINE",
"498 670 LINE",
"110 670 LINE"
);
},
{
closed = 0;
nodes = (
"232 782 LINE",
"367 915 LINE"
);
}
);
width = 609;
}
);
leftKerningGroup = Z;
rightKerningGroup = Z;
unicode = 0179;
},
{
glyphname = Zcaron;
layers = (
{
layerId = master01;
paths = (
{
closed = 0;
nodes = (
"509 10 LINE",
"111 10 LINE",
"111 14 LINE",
"498 666 LINE",
"498 670 LINE",
"110 670 LINE"
);
},
{
closed = 0;
nodes = (
"189 901 LINE",
"298 775 LINE",
"302 775 LINE",
"411 901 LINE"
);
}
);
width = 609;
}
);
leftKerningGroup = Z;
rightKerningGroup = Z;
unicode = 017D;
},
{
glyphname = Zdotaccent;
layers = (
{
layerId = master01;
paths = (
{
closed = 0;
nodes = (
"509 10 LINE",
"111 10 LINE",
"111 14 LINE",
"498 666 LINE",
"498 670 LINE",
"110 670 LINE"
);
},
{
closed = 0;
nodes = (
"300 803 LINE",
"300 910 LINE"
);
}
);
width = 609;
}
);
leftKerningGroup = Z;
rightKerningGroup = Z;
unicode = 017B;
},
{
color = 1;
glyphname = Ldot.ss04;
layers = (
{
layerId = master01;
paths = (
{
closed = 0;
nodes = (
"458 10 LINE",
"140 10 LINE",
"140 680 LINE"
);
},
{
closed = 0;
nodes = (
"398 372 LINE",
"375 372 OFFCURVE",
"358 354 OFFCURVE",
"358 331 CURVE SMOOTH",
"358 308 OFFCURVE",
"376 290 OFFCURVE",
"399 290 CURVE SMOOTH",
"422 290 OFFCURVE",
"439 308 OFFCURVE",
"439 331 CURVE SMOOTH",
"439 354 OFFCURVE",
"422 372 OFFCURVE",
"400 372 CURVE"
);
}
);
width = 508;
}
);
leftKerningGroup = H;
leftMetricsKey = H;
rightKerningGroup = L;
},
{
color = 9;
glyphname = Ldot.ss05;
layers = (
{
layerId = master01;
paths = (
{
closed = 0;
nodes = (
"458 10 LINE",
"140 10 LINE",
"140 680 LINE"
);
},
{
closed = 0;
nodes = (
"412 300 LINE",
"412 367 LINE",
"358 367 LINE"
);
}
);
width = 508;
}
);
leftKerningGroup = H;
leftMetricsKey = H;
rightKerningGroup = L;
},
{
glyphname = a;
layers = (
{
background = {
paths = (
{
closed = 0;
nodes = (
"441 0 LINE",
"438 37 OFFCURVE",
"437 97 OFFCURVE",
"437 138 CURVE SMOOTH",
"437 378 LINE SMOOTH",
"437 475 OFFCURVE",
"398 555 OFFCURVE",
"282 555 CURVE SMOOTH",
"197 555 OFFCURVE",
"147 516 OFFCURVE",
"114 440 CURVE"
);
},
{
closed = 0;
nodes = (
"437 308 LINE",
"376 308 LINE SMOOTH",
"174 308 OFFCURVE",
"90 255 OFFCURVE",
"90 141 CURVE SMOOTH",
"90 68 OFFCURVE",
"134 0 OFFCURVE",
"229 0 CURVE SMOOTH",
"315 0 OFFCURVE",
"382 57 OFFCURVE",
"437 130 CURVE SMOOTH"
);
}
);
};
layerId = master01;
paths = (
{
closed = 0;
nodes = (
"437 308 LINE",
"376 308 LINE SMOOTH",
"174 308 OFFCURVE",
"90 255 OFFCURVE",
"90 141 CURVE SMOOTH",
"90 68 OFFCURVE",
"134 0 OFFCURVE",
"229 0 CURVE SMOOTH",
"315 0 OFFCURVE",
"382 57 OFFCURVE",
"437 130 CURVE SMOOTH"
);
},
{
closed = 0;
nodes = (
"441 0 LINE",
"438 37 OFFCURVE",
"437 97 OFFCURVE",
"437 138 CURVE SMOOTH",
"437 378 LINE SMOOTH",
"437 475 OFFCURVE",
"398 555 OFFCURVE",
"282 555 CURVE SMOOTH",
"197 555 OFFCURVE",
"147 516 OFFCURVE",
"114 440 CURVE"
);
}
);
width = 561;
}
);
leftKerningGroup = a;
rightKerningGroup = a;
unicode = 0061;
},
{
glyphname = aacute;
layers = (
{
layerId = master01;
paths = (
{
closed = 0;
nodes = (
"437 308 LINE",
"376 308 LINE SMOOTH",
"174 308 OFFCURVE",
"90 255 OFFCURVE",
"90 141 CURVE SMOOTH",
"90 68 OFFCURVE",
"134 0 OFFCURVE",
"229 0 CURVE SMOOTH",
"315 0 OFFCURVE",
"382 57 OFFCURVE",
"437 130 CURVE SMOOTH"
);
},
{
closed = 0;
nodes = (
"441 0 LINE",
"438 37 OFFCURVE",
"437 97 OFFCURVE",
"437 138 CURVE SMOOTH",
"437 378 LINE SMOOTH",
"437 475 OFFCURVE",
"398 555 OFFCURVE",
"282 555 CURVE SMOOTH",
"197 555 OFFCURVE",
"147 516 OFFCURVE",
"114 440 CURVE"
);
},
{
closed = 0;
nodes = (
"213 657 LINE",
"348 790 LINE"
);
}
);
width = 561;
}
);
leftKerningGroup = a;
rightKerningGroup = a;
unicode = 00E1;
},
{
glyphname = abreve;
layers = (
{
layerId = master01;
paths = (
{
closed = 0;
nodes = (
"437 308 LINE",
"376 308 LINE SMOOTH",
"174 308 OFFCURVE",
"90 255 OFFCURVE",
"90 141 CURVE SMOOTH",
"90 68 OFFCURVE",
"134 0 OFFCURVE",
"229 0 CURVE SMOOTH",
"315 0 OFFCURVE",
"382 57 OFFCURVE",
"437 130 CURVE SMOOTH"
);
},
{
closed = 0;
nodes = (
"441 0 LINE",
"438 37 OFFCURVE",
"437 97 OFFCURVE",
"437 138 CURVE SMOOTH",
"437 378 LINE SMOOTH",
"437 475 OFFCURVE",
"398 555 OFFCURVE",
"282 555 CURVE SMOOTH",
"197 555 OFFCURVE",
"147 516 OFFCURVE",
"114 440 CURVE"
);
},
{
closed = 0;
nodes = (
"161 762 LINE",
"161 707 OFFCURVE",
"213 680 OFFCURVE",
"279 680 CURVE SMOOTH",
"345 680 OFFCURVE",
"401 706 OFFCURVE",
"401 761 CURVE SMOOTH"
);
}
);
width = 561;
}
);
leftKerningGroup = a;
rightKerningGroup = a;
unicode = 0103;
},
{
glyphname = acircumflex;
layers = (
{
layerId = master01;
paths = (
{
closed = 0;
nodes = (
"437 308 LINE",
"376 308 LINE SMOOTH",
"174 308 OFFCURVE",
"90 255 OFFCURVE",
"90 141 CURVE SMOOTH",
"90 68 OFFCURVE",
"134 0 OFFCURVE",
"229 0 CURVE SMOOTH",
"315 0 OFFCURVE",
"382 57 OFFCURVE",
"437 130 CURVE SMOOTH"
);
},
{
closed = 0;
nodes = (
"441 0 LINE",
"438 37 OFFCURVE",
"437 97 OFFCURVE",
"437 138 CURVE SMOOTH",
"437 378 LINE SMOOTH",
"437 475 OFFCURVE",
"398 555 OFFCURVE",
"282 555 CURVE SMOOTH",
"197 555 OFFCURVE",
"147 516 OFFCURVE",
"114 440 CURVE"
);
},
{
closed = 0;
nodes = (
"392 648 LINE",
"283 774 LINE",
"279 774 LINE",
"170 648 LINE"
);
}
);
width = 561;
}
);
leftKerningGroup = a;
rightKerningGroup = a;
unicode = 00E2;
},
{
glyphname = adieresis;
layers = (
{
layerId = master01;
paths = (
{
closed = 0;
nodes = (
"437 308 LINE",
"376 308 LINE SMOOTH",
"174 308 OFFCURVE",
"90 255 OFFCURVE",
"90 141 CURVE SMOOTH",
"90 68 OFFCURVE",
"134 0 OFFCURVE",
"229 0 CURVE SMOOTH",
"315 0 OFFCURVE",
"382 57 OFFCURVE",
"437 130 CURVE SMOOTH"
);
},
{
closed = 0;
nodes = (
"441 0 LINE",
"438 37 OFFCURVE",
"437 97 OFFCURVE",
"437 138 CURVE SMOOTH",
"437 378 LINE SMOOTH",
"437 475 OFFCURVE",
"398 555 OFFCURVE",
"282 555 CURVE SMOOTH",
"197 555 OFFCURVE",
"147 516 OFFCURVE",
"114 440 CURVE"
);
},
{
closed = 0;
nodes = (
"210 660 LINE",
"210 785 LINE"
);
},
{
closed = 0;
nodes = (
"352 660 LINE",
"352 785 LINE"
);
}
);
width = 561;
}
);
leftKerningGroup = a;
rightKerningGroup = a;
unicode = 00E4;
},
{
glyphname = agrave;
layers = (
{
layerId = master01;
paths = (
{
closed = 0;
nodes = (
"437 308 LINE",
"376 308 LINE SMOOTH",
"174 308 OFFCURVE",
"90 255 OFFCURVE",
"90 141 CURVE SMOOTH",
"90 68 OFFCURVE",
"134 0 OFFCURVE",
"229 0 CURVE SMOOTH",
"315 0 OFFCURVE",
"382 57 OFFCURVE",
"437 130 CURVE SMOOTH"
);
},
{
closed = 0;
nodes = (
"441 0 LINE",
"438 37 OFFCURVE",
"437 97 OFFCURVE",
"437 138 CURVE SMOOTH",
"437 378 LINE SMOOTH",
"437 475 OFFCURVE",
"398 555 OFFCURVE",
"282 555 CURVE SMOOTH",
"197 555 OFFCURVE",
"147 516 OFFCURVE",
"114 440 CURVE"
);
},
{
closed = 0;
nodes = (
"213 791 LINE",
"348 658 LINE"
);
}
);
width = 561;
}
);
leftKerningGroup = a;
rightKerningGroup = a;
unicode = 00E0;
},
{
glyphname = amacron;
layers = (
{
layerId = master01;
paths = (
{
closed = 0;
nodes = (
"437 308 LINE",
"376 308 LINE SMOOTH",
"174 308 OFFCURVE",
"90 255 OFFCURVE",
"90 141 CURVE SMOOTH",
"90 68 OFFCURVE",
"134 0 OFFCURVE",
"229 0 CURVE SMOOTH",
"315 0 OFFCURVE",
"382 57 OFFCURVE",
"437 130 CURVE SMOOTH"
);
},
{
closed = 0;
nodes = (
"441 0 LINE",
"438 37 OFFCURVE",
"437 97 OFFCURVE",
"437 138 CURVE SMOOTH",
"437 378 LINE SMOOTH",
"437 475 OFFCURVE",
"398 555 OFFCURVE",
"282 555 CURVE SMOOTH",
"197 555 OFFCURVE",
"147 516 OFFCURVE",
"114 440 CURVE"
);
},
{
closed = 0;
nodes = (
"391 703 LINE",
"170 703 LINE"
);
}
);
width = 561;
}
);
leftKerningGroup = a;
rightKerningGroup = a;
unicode = 0101;
},
{
glyphname = aogonek;
layers = (
{
layerId = master01;
paths = (
{
closed = 0;
nodes = (
"437 308 LINE",
"376 308 LINE SMOOTH",
"174 308 OFFCURVE",
"90 255 OFFCURVE",
"90 141 CURVE SMOOTH",
"90 68 OFFCURVE",
"134 0 OFFCURVE",
"229 0 CURVE SMOOTH",
"315 0 OFFCURVE",
"382 57 OFFCURVE",
"437 130 CURVE SMOOTH"
);
},
{
closed = 0;
nodes = (
"441 0 LINE",
"438 37 OFFCURVE",
"437 97 OFFCURVE",
"437 138 CURVE SMOOTH",
"437 378 LINE SMOOTH",
"437 475 OFFCURVE",
"398 555 OFFCURVE",
"282 555 CURVE SMOOTH",
"197 555 OFFCURVE",
"147 516 OFFCURVE",
"114 440 CURVE"
);
},
{
closed = 0;
nodes = (
"482 -184 LINE SMOOTH",
"469 -192 OFFCURVE",
"444 -200 OFFCURVE",
"420 -200 CURVE SMOOTH",
"370 -200 OFFCURVE",
"343 -175 OFFCURVE",
"343 -130 CURVE SMOOTH",
"343 -87 OFFCURVE",
"394 -38 OFFCURVE",
"441 0 CURVE"
);
}
);
width = 561;
}
);
leftKerningGroup = a;
rightKerningGroup = a;
unicode = 0105;
},
{
glyphname = aring;
layers = (
{
layerId = master01;
paths = (
{
closed = 0;
nodes = (
"437 308 LINE",
"376 308 LINE SMOOTH",
"174 308 OFFCURVE",
"90 255 OFFCURVE",
"90 141 CURVE SMOOTH",
"90 68 OFFCURVE",
"134 0 OFFCURVE",
"229 0 CURVE SMOOTH",
"315 0 OFFCURVE",
"382 57 OFFCURVE",
"437 130 CURVE SMOOTH"
);
},
{
closed = 0;
nodes = (
"441 0 LINE",
"438 37 OFFCURVE",
"437 97 OFFCURVE",
"437 138 CURVE SMOOTH",
"437 378 LINE SMOOTH",
"437 475 OFFCURVE",
"398 555 OFFCURVE",
"282 555 CURVE SMOOTH",
"197 555 OFFCURVE",
"147 516 OFFCURVE",
"114 440 CURVE"
);
},
{
closed = 0;
nodes = (
"280 791 LINE",
"239 791 OFFCURVE",
"207 758 OFFCURVE",
"207 718 CURVE SMOOTH",
"207 678 OFFCURVE",
"240 645 OFFCURVE",
"280 645 CURVE SMOOTH",
"321 645 OFFCURVE",
"354 678 OFFCURVE",
"354 718 CURVE SMOOTH",
"354 758 OFFCURVE",
"321 791 OFFCURVE",
"280 791 CURVE"
);
}
);
width = 561;
}
);
leftKerningGroup = a;
rightKerningGroup = a;
unicode = 00E5;
},
{
glyphname = atilde;
layers = (
{
layerId = master01;
paths = (
{
closed = 0;
nodes = (
"437 308 LINE",
"376 308 LINE SMOOTH",
"174 308 OFFCURVE",
"90 255 OFFCURVE",
"90 141 CURVE SMOOTH",
"90 68 OFFCURVE",
"134 0 OFFCURVE",
"229 0 CURVE SMOOTH",
"315 0 OFFCURVE",
"382 57 OFFCURVE",
"437 130 CURVE SMOOTH"
);
},
{
closed = 0;
nodes = (
"441 0 LINE",
"438 37 OFFCURVE",
"437 97 OFFCURVE",
"437 138 CURVE SMOOTH",
"437 378 LINE SMOOTH",
"437 475 OFFCURVE",
"398 555 OFFCURVE",
"282 555 CURVE SMOOTH",
"197 555 OFFCURVE",
"147 516 OFFCURVE",
"114 440 CURVE"
);
},
{
closed = 0;
nodes = (
"142 687 LINE",
"164 724 OFFCURVE",
"191 735 OFFCURVE",
"216 735 CURVE SMOOTH",
"263 735 OFFCURVE",
"293 687 OFFCURVE",
"346 687 CURVE SMOOTH",
"371 687 OFFCURVE",
"397 696 OFFCURVE",
"420 734 CURVE"
);
}
);
width = 561;
}
);
leftKerningGroup = a;
rightKerningGroup = a;
unicode = 00E3;
},
{
glyphname = ae;
layers = (
{
guideLines = (
{
position = "{861, -64}";
},
{
position = "{118, -64}";
}
);
layerId = master01;
paths = (
{
closed = 0;
nodes = (
"450 138 LINE",
"389 49 OFFCURVE",
"321 0 OFFCURVE",
"233 0 CURVE SMOOTH",
"135 0 OFFCURVE",
"90 68 OFFCURVE",
"90 138 CURVE SMOOTH",
"90 248 OFFCURVE",
"166 308 OFFCURVE",
"374 308 CURVE SMOOTH",
"437 308 LINE",
"437 378 LINE",
"436 475 OFFCURVE",
"402 555 OFFCURVE",
"283 555 CURVE SMOOTH",
"195 555 OFFCURVE",
"145 516 OFFCURVE",
"115 440 CURVE"
);
},
{
closed = 0;
nodes = (
"439 308 LINE",
"823 308 LINE",
"823 420 OFFCURVE",
"786 558 OFFCURVE",
"641 558 CURVE SMOOTH",
"516 558 OFFCURVE",
"437 454 OFFCURVE",
"437 278 CURVE SMOOTH",
"437 119 OFFCURVE",
"501 3 OFFCURVE",
"644 3 CURVE SMOOTH",
"738 3 OFFCURVE",
"790 54 OFFCURVE",
"815 113 CURVE SMOOTH"
);
}
);
width = 908;
}
);
leftKerningGroup = a;
leftMetricsKey = a;
rightKerningGroup = o;
rightMetricsKey = "=o-5";
unicode = 00E6;
},
{
glyphname = b;
layers = (
{
layerId = master01;
paths = (
{
closed = 0;
nodes = (
"140 745 LINE",
"140 0 LINE"
);
},
{
closed = 0;
nodes = (
"140 137 LINE",
"183 52 OFFCURVE",
"248 0 OFFCURVE",
"333 0 CURVE SMOOTH",
"469 0 OFFCURVE",
"523 132 OFFCURVE",
"523 279 CURVE SMOOTH",
"523 447 OFFCURVE",
"456 555 OFFCURVE",
"334 555 CURVE SMOOTH",
"261 555 OFFCURVE",
"194 517 OFFCURVE",
"140 421 CURVE"
);
}
);
width = 613;
}
);
leftKerningGroup = h;
leftMetricsKey = n;
rightKerningGroup = o;
rightMetricsKey = o;
unicode = 0062;
},
{
glyphname = c;
layers = (
{
background = {
components = (
{
name = o;
}
);
paths = (
{
closed = 0;
nodes = (
"445 450 LINE",
"423 504 OFFCURVE",
"372 555 OFFCURVE",
"289 555 CURVE SMOOTH",
"163 555 OFFCURVE",
"90 439 OFFCURVE",
"90 271 CURVE SMOOTH",
"90 107 OFFCURVE",
"160 0 OFFCURVE",
"290 0 CURVE SMOOTH",
"368 0 OFFCURVE",
"411 38 OFFCURVE",
"446 98 CURVE SMOOTH"
);
}
);
};
layerId = master01;
paths = (
{
closed = 0;
nodes = (
"445 450 LINE",
"423 504 OFFCURVE",
"372 555 OFFCURVE",
"289 555 CURVE SMOOTH",
"163 555 OFFCURVE",
"90 439 OFFCURVE",
"90 271 CURVE SMOOTH",
"90 107 OFFCURVE",
"160 0 OFFCURVE",
"290 0 CURVE SMOOTH",
"368 0 OFFCURVE",
"411 38 OFFCURVE",
"446 98 CURVE SMOOTH"
);
}
);
width = 531;
}
);
leftKerningGroup = o;
leftMetricsKey = o;
rightKerningGroup = o;
rightMetricsKey = "=o-5";
unicode = 0063;
},
{
glyphname = cacute;
layers = (
{
layerId = master01;
paths = (
{
closed = 0;
nodes = (
"445 450 LINE",
"423 504 OFFCURVE",
"372 555 OFFCURVE",
"289 555 CURVE SMOOTH",
"163 555 OFFCURVE",
"90 439 OFFCURVE",
"90 271 CURVE SMOOTH",
"90 107 OFFCURVE",
"160 0 OFFCURVE",
"290 0 CURVE SMOOTH",
"368 0 OFFCURVE",
"411 38 OFFCURVE",
"446 98 CURVE SMOOTH"
);
},
{
closed = 0;
nodes = (
"222 657 LINE",
"357 790 LINE"
);
}
);
width = 531;
}
);
leftKerningGroup = o;
rightKerningGroup = o;
unicode = 0107;
},
{
glyphname = ccaron;
layers = (
{
layerId = master01;
paths = (
{
closed = 0;
nodes = (
"445 450 LINE",
"423 504 OFFCURVE",
"372 555 OFFCURVE",
"289 555 CURVE SMOOTH",
"163 555 OFFCURVE",
"90 439 OFFCURVE",
"90 271 CURVE SMOOTH",
"90 107 OFFCURVE",
"160 0 OFFCURVE",
"290 0 CURVE SMOOTH",
"368 0 OFFCURVE",
"411 38 OFFCURVE",
"446 98 CURVE SMOOTH"
);
},
{
closed = 0;
nodes = (
"179 776 LINE",
"288 650 LINE",
"292 650 LINE",
"401 776 LINE"
);
}
);
width = 531;
}
);
leftKerningGroup = o;
rightKerningGroup = o;
unicode = 010D;
},
{
glyphname = ccedilla;
layers = (
{
layerId = master01;
paths = (
{
closed = 0;
nodes = (
"445 450 LINE",
"423 504 OFFCURVE",
"372 555 OFFCURVE",
"289 555 CURVE SMOOTH",
"163 555 OFFCURVE",
"90 439 OFFCURVE",
"90 271 CURVE SMOOTH",
"90 107 OFFCURVE",
"160 0 OFFCURVE",
"290 0 CURVE SMOOTH",
"368 0 OFFCURVE",
"411 38 OFFCURVE",
"446 98 CURVE SMOOTH"
);
},
{
closed = 0;
nodes = (
"201 -177 LINE SMOOTH",
"214 -184 OFFCURVE",
"233 -191 OFFCURVE",
"262 -191 CURVE SMOOTH",
"314 -191 OFFCURVE",
"346 -168 OFFCURVE",
"346 -132 CURVE SMOOTH",
"346 -95 OFFCURVE",
"315 -78 OFFCURVE",
"261 -78 CURVE SMOOTH",
"235 -78 LINE",
"281 0 LINE"
);
}
);
width = 531;
}
);
leftKerningGroup = o;
rightKerningGroup = o;
unicode = 00E7;
},
{
glyphname = ccircumflex;
layers = (
{
layerId = master01;
paths = (
{
closed = 0;
nodes = (
"445 450 LINE",
"423 504 OFFCURVE",
"372 555 OFFCURVE",
"289 555 CURVE SMOOTH",
"163 555 OFFCURVE",
"90 439 OFFCURVE",
"90 271 CURVE SMOOTH",
"90 107 OFFCURVE",
"160 0 OFFCURVE",
"290 0 CURVE SMOOTH",
"368 0 OFFCURVE",
"411 38 OFFCURVE",
"446 98 CURVE SMOOTH"
);
},
{
closed = 0;
nodes = (
"401 648 LINE",
"292 774 LINE",
"288 774 LINE",
"179 648 LINE"
);
}
);
width = 531;
}
);
leftKerningGroup = o;
rightKerningGroup = o;
unicode = 0109;
},
{
glyphname = cdotaccent;
layers = (
{
layerId = master01;
paths = (
{
closed = 0;
nodes = (
"445 450 LINE",
"423 504 OFFCURVE",
"372 555 OFFCURVE",
"289 555 CURVE SMOOTH",
"163 555 OFFCURVE",
"90 439 OFFCURVE",
"90 271 CURVE SMOOTH",
"90 107 OFFCURVE",
"160 0 OFFCURVE",
"290 0 CURVE SMOOTH",
"368 0 OFFCURVE",
"411 38 OFFCURVE",
"446 98 CURVE SMOOTH"
);
},
{
closed = 0;
nodes = (
"290 678 LINE",
"290 785 LINE"
);
}
);
width = 531;
}
);
leftKerningGroup = o;
rightKerningGroup = o;
unicode = 010B;
},
{
glyphname = d;
layers = (
{
guideLines = (
{
position = "{258, 697}";
}
);
layerId = master01;
paths = (
{
closed = 0;
nodes = (
"473 745 LINE",
"473 0 LINE"
);
},
{
closed = 0;
nodes = (
"473 421 LINE",
"419 517 OFFCURVE",
"352 555 OFFCURVE",
"279 555 CURVE SMOOTH",
"157 555 OFFCURVE",
"90 447 OFFCURVE",
"90 279 CURVE SMOOTH",
"90 132 OFFCURVE",
"144 0 OFFCURVE",
"280 0 CURVE SMOOTH",
"365 0 OFFCURVE",
"430 52 OFFCURVE",
"473 137 CURVE"
);
}
);
width = 613;
}
);
leftKerningGroup = o;
leftMetricsKey = o;
rightKerningGroup = d;
rightMetricsKey = "=|n";
unicode = 0064;
},
{
glyphname = eth;
layers = (
{
layerId = master01;
paths = (
{
closed = 0;
nodes = (
"222 503 LINE",
"446 612 LINE"
);
},
{
closed = 0;
nodes = (
"497 297 LINE SMOOTH",
"451 368 OFFCURVE",
"373 401 OFFCURVE",
"304 401 CURVE SMOOTH",
"201 401 OFFCURVE",
"110 324 OFFCURVE",
"110 198 CURVE SMOOTH",
"110 84 OFFCURVE",
"182 0 OFFCURVE",
"310 0 CURVE SMOOTH",
"458 0 OFFCURVE",
"512 105 OFFCURVE",
"512 205 CURVE SMOOTH",
"512 284 OFFCURVE",
"483 359 OFFCURVE",
"401 468 CURVE SMOOTH",
"242 680 LINE"
);
}
);
width = 592;
}
);
leftKerningGroup = o;
rightKerningGroup = eth;
unicode = 00F0;
},
{
glyphname = dcaron;
layers = (
{
layerId = master01;
paths = (
{
closed = 0;
nodes = (
"473 745 LINE",
"473 0 LINE"
);
},
{
closed = 0;
nodes = (
"473 421 LINE",
"419 517 OFFCURVE",
"352 555 OFFCURVE",
"279 555 CURVE SMOOTH",
"157 555 OFFCURVE",
"90 447 OFFCURVE",
"90 279 CURVE SMOOTH",
"90 132 OFFCURVE",
"144 0 OFFCURVE",
"280 0 CURVE SMOOTH",
"365 0 OFFCURVE",
"430 52 OFFCURVE",
"473 137 CURVE"
);
},
{
closed = 0;
nodes = (
"566 578 LINE",
"623 661 LINE",
"623 745 LINE"
);
}
);
width = 613;
}
);
leftKerningGroup = o;
rightKerningGroup = dcaron;
unicode = 010F;
},
{
glyphname = dcroat;
layers = (
{
layerId = master01;
paths = (
{
closed = 0;
nodes = (
"565 644 LINE",
"337 644 LINE"
);
},
{
closed = 0;
nodes = (
"473 745 LINE",
"473 0 LINE"
);
},
{
closed = 0;
nodes = (
"473 421 LINE",
"419 517 OFFCURVE",
"352 555 OFFCURVE",
"279 555 CURVE SMOOTH",
"157 555 OFFCURVE",
"90 447 OFFCURVE",
"90 279 CURVE SMOOTH",
"90 132 OFFCURVE",
"144 0 OFFCURVE",
"280 0 CURVE SMOOTH",
"365 0 OFFCURVE",
"430 52 OFFCURVE",
"473 137 CURVE"
);
}
);
width = 610;
}
);
leftKerningGroup = o;
rightKerningGroup = dcroat;
unicode = 0111;
},
{
glyphname = e;
layers = (
{
background = {
paths = (
{
closed = 0;
nodes = (
"92 305 LINE",
"476 305 LINE",
"476 417 OFFCURVE",
"439 555 OFFCURVE",
"294 555 CURVE SMOOTH",
"169 555 OFFCURVE",
"90 451 OFFCURVE",
"90 275 CURVE SMOOTH",
"90 116 OFFCURVE",
"154 0 OFFCURVE",
"297 0 CURVE SMOOTH",
"391 0 OFFCURVE",
"443 51 OFFCURVE",
"468 110 CURVE SMOOTH"
);
}
);
};
layerId = master01;
paths = (
{
closed = 0;
nodes = (
"92 305 LINE",
"476 305 LINE",
"476 417 OFFCURVE",
"439 555 OFFCURVE",
"294 555 CURVE SMOOTH",
"169 555 OFFCURVE",
"90 451 OFFCURVE",
"90 275 CURVE SMOOTH",
"90 116 OFFCURVE",
"154 0 OFFCURVE",
"297 0 CURVE SMOOTH",
"391 0 OFFCURVE",
"443 51 OFFCURVE",
"468 110 CURVE SMOOTH"
);
}
);
userData = {
com.schriftgestaltung.Glyphs.lastChange = "2021-03-17 07:34:11 +0000";
};
width = 561;
}
);
leftKerningGroup = o;
leftMetricsKey = o;
rightKerningGroup = o;
rightMetricsKey = "=o-5";
unicode = 0065;
},
{
glyphname = eacute;
layers = (
{
guideLines = (
{
position = "{272, -64}";
},
{
position = "{0, 78}";
},
{
position = "{0, 68}";
},
{
position = "{0, 50}";
}
);
layerId = master01;
paths = (
{
closed = 0;
nodes = (
"92 305 LINE",
"476 305 LINE",
"476 417 OFFCURVE",
"439 555 OFFCURVE",
"294 555 CURVE SMOOTH",
"169 555 OFFCURVE",
"90 451 OFFCURVE",
"90 275 CURVE SMOOTH",
"90 116 OFFCURVE",
"154 0 OFFCURVE",
"297 0 CURVE SMOOTH",
"391 0 OFFCURVE",
"443 51 OFFCURVE",
"468 110 CURVE SMOOTH"
);
},
{
closed = 0;
nodes = (
"227 657 LINE",
"362 790 LINE"
);
}
);
userData = {
com.schriftgestaltung.Glyphs.lastChange = "2021-03-17 07:33:32 +0000";
};
width = 561;
}
);
leftKerningGroup = o;
rightKerningGroup = o;
unicode = 00E9;
},
{
glyphname = ebreve;
layers = (
{
layerId = master01;
paths = (
{
closed = 0;
nodes = (
"92 305 LINE",
"476 305 LINE",
"476 417 OFFCURVE",
"439 555 OFFCURVE",
"294 555 CURVE SMOOTH",
"169 555 OFFCURVE",
"90 451 OFFCURVE",
"90 275 CURVE SMOOTH",
"90 116 OFFCURVE",
"154 0 OFFCURVE",
"297 0 CURVE SMOOTH",
"391 0 OFFCURVE",
"443 51 OFFCURVE",
"468 110 CURVE SMOOTH"
);
},
{
closed = 0;
nodes = (
"175 762 LINE",
"175 707 OFFCURVE",
"227 680 OFFCURVE",
"293 680 CURVE SMOOTH",
"359 680 OFFCURVE",
"415 706 OFFCURVE",
"415 761 CURVE SMOOTH"
);
}
);
width = 561;
}
);
leftKerningGroup = o;
rightKerningGroup = o;
unicode = 0115;
},
{
glyphname = ecaron;
layers = (
{
layerId = master01;
paths = (
{
closed = 0;
nodes = (
"92 305 LINE",
"476 305 LINE",
"476 417 OFFCURVE",
"439 555 OFFCURVE",
"294 555 CURVE SMOOTH",
"169 555 OFFCURVE",
"90 451 OFFCURVE",
"90 275 CURVE SMOOTH",
"90 116 OFFCURVE",
"154 0 OFFCURVE",
"297 0 CURVE SMOOTH",
"391 0 OFFCURVE",
"443 51 OFFCURVE",
"468 110 CURVE SMOOTH"
);
},
{
closed = 0;
nodes = (
"184 776 LINE",
"293 650 LINE",
"297 650 LINE",
"406 776 LINE"
);
}
);
width = 561;
}
);
leftKerningGroup = o;
rightKerningGroup = o;
unicode = 011B;
},
{
glyphname = ecircumflex;
layers = (
{
guideLines = (
{
position = "{272, -64}";
},
{
position = "{0, 78}";
},
{
position = "{0, 68}";
},
{
position = "{0, 50}";
}
);
layerId = master01;
paths = (
{
closed = 0;
nodes = (
"92 305 LINE",
"476 305 LINE",
"476 417 OFFCURVE",
"439 555 OFFCURVE",
"294 555 CURVE SMOOTH",
"169 555 OFFCURVE",
"90 451 OFFCURVE",
"90 275 CURVE SMOOTH",
"90 116 OFFCURVE",
"154 0 OFFCURVE",
"297 0 CURVE SMOOTH",
"391 0 OFFCURVE",
"443 51 OFFCURVE",
"468 110 CURVE SMOOTH"
);
},
{
closed = 0;
nodes = (
"406 648 LINE",
"297 774 LINE",
"293 774 LINE",
"184 648 LINE"
);
}
);
userData = {
com.schriftgestaltung.Glyphs.lastChange = "2021-03-17 07:33:32 +0000";
};
width = 561;
}
);
leftKerningGroup = o;
rightKerningGroup = o;
unicode = 00EA;
},
{
glyphname = edieresis;
layers = (
{
layerId = master01;
paths = (
{
closed = 0;
nodes = (
"92 305 LINE",
"476 305 LINE",
"476 417 OFFCURVE",
"439 555 OFFCURVE",
"294 555 CURVE SMOOTH",
"169 555 OFFCURVE",
"90 451 OFFCURVE",
"90 275 CURVE SMOOTH",
"90 116 OFFCURVE",
"154 0 OFFCURVE",
"297 0 CURVE SMOOTH",
"391 0 OFFCURVE",
"443 51 OFFCURVE",
"468 110 CURVE SMOOTH"
);
},
{
closed = 0;
nodes = (
"224 660 LINE",
"224 785 LINE"
);
},
{
closed = 0;
nodes = (
"366 660 LINE",
"366 785 LINE"
);
}
);
userData = {
com.schriftgestaltung.Glyphs.lastChange = "2021-03-17 07:33:32 +0000";
};
width = 561;
}
);
leftKerningGroup = o;
rightKerningGroup = o;
unicode = 00EB;
},
{
glyphname = edotaccent;
layers = (
{
layerId = master01;
paths = (
{
closed = 0;
nodes = (
"92 305 LINE",
"476 305 LINE",
"476 417 OFFCURVE",
"439 555 OFFCURVE",
"294 555 CURVE SMOOTH",
"169 555 OFFCURVE",
"90 451 OFFCURVE",
"90 275 CURVE SMOOTH",
"90 116 OFFCURVE",
"154 0 OFFCURVE",
"297 0 CURVE SMOOTH",
"391 0 OFFCURVE",
"443 51 OFFCURVE",
"468 110 CURVE SMOOTH"
);
},
{
closed = 0;
nodes = (
"295 678 LINE",
"295 785 LINE"
);
}
);
width = 561;
}
);
leftKerningGroup = o;
rightKerningGroup = o;
unicode = 0117;
},
{
glyphname = egrave;
layers = (
{
guideLines = (
{
position = "{272, -64}";
},
{
position = "{0, 78}";
},
{
position = "{0, 68}";
},
{
position = "{0, 50}";
}
);
layerId = master01;
paths = (
{
closed = 0;
nodes = (
"92 305 LINE",
"476 305 LINE",
"476 417 OFFCURVE",
"439 555 OFFCURVE",
"294 555 CURVE SMOOTH",
"169 555 OFFCURVE",
"90 451 OFFCURVE",
"90 275 CURVE SMOOTH",
"90 116 OFFCURVE",
"154 0 OFFCURVE",
"297 0 CURVE SMOOTH",
"391 0 OFFCURVE",
"443 51 OFFCURVE",
"468 110 CURVE SMOOTH"
);
},
{
closed = 0;
nodes = (
"227 791 LINE",
"362 658 LINE"
);
}
);
userData = {
com.schriftgestaltung.Glyphs.lastChange = "2021-03-17 07:33:32 +0000";
};
width = 561;
}
);
leftKerningGroup = o;
rightKerningGroup = o;
unicode = 00E8;
},
{
glyphname = emacron;
layers = (
{
layerId = master01;
paths = (
{
closed = 0;
nodes = (
"92 305 LINE",
"476 305 LINE",
"476 417 OFFCURVE",
"439 555 OFFCURVE",
"294 555 CURVE SMOOTH",
"169 555 OFFCURVE",
"90 451 OFFCURVE",
"90 275 CURVE SMOOTH",
"90 116 OFFCURVE",
"154 0 OFFCURVE",
"297 0 CURVE SMOOTH",
"391 0 OFFCURVE",
"443 51 OFFCURVE",
"468 110 CURVE SMOOTH"
);
},
{
closed = 0;
nodes = (
"405 703 LINE",
"184 703 LINE"
);
}
);
width = 561;
}
);
leftKerningGroup = o;
rightKerningGroup = o;
unicode = 0113;
},
{
glyphname = eogonek;
layers = (
{
layerId = master01;
paths = (
{
closed = 0;
nodes = (
"92 305 LINE",
"476 305 LINE",
"476 417 OFFCURVE",
"439 555 OFFCURVE",
"294 555 CURVE SMOOTH",
"169 555 OFFCURVE",
"90 451 OFFCURVE",
"90 275 CURVE SMOOTH",
"90 116 OFFCURVE",
"154 0 OFFCURVE",
"297 0 CURVE SMOOTH",
"391 0 OFFCURVE",
"443 51 OFFCURVE",
"468 110 CURVE SMOOTH"
);
},
{
closed = 0;
nodes = (
"453 -149 LINE SMOOTH",
"440 -157 OFFCURVE",
"415 -165 OFFCURVE",
"391 -165 CURVE SMOOTH",
"341 -165 OFFCURVE",
"314 -140 OFFCURVE",
"314 -95 CURVE SMOOTH",
"314 -52 OFFCURVE",
"365 -3 OFFCURVE",
"412 35 CURVE"
);
}
);
width = 561;
}
);
leftKerningGroup = o;
rightKerningGroup = o;
unicode = 0119;
},
{
glyphname = f;
layers = (
{
background = {
paths = (
{
closed = 0;
nodes = (
"150 0 LINE",
"150 619 LINE SMOOTH",
"150 696 OFFCURVE",
"187 745 OFFCURVE",
"258 745 CURVE SMOOTH",
"285 745 OFFCURVE",
"309 738 OFFCURVE",
"328 724 CURVE"
);
},
{
closed = 0;
nodes = (
"50 500 LINE",
"297 500 LINE"
);
}
);
};
layerId = master01;
paths = (
{
closed = 0;
nodes = (
"150 0 LINE",
"150 619 LINE SMOOTH",
"150 696 OFFCURVE",
"187 745 OFFCURVE",
"258 745 CURVE SMOOTH",
"285 745 OFFCURVE",
"309 738 OFFCURVE",
"328 724 CURVE"
);
},
{
closed = 0;
nodes = (
"50 500 LINE",
"297 500 LINE"
);
}
);
width = 333;
}
);
leftKerningGroup = f;
rightKerningGroup = f;
unicode = 0066;
},
{
glyphname = g;
layers = (
{
background = {
paths = (
{
closed = 0;
nodes = (
"473 421 LINE",
"419 517 OFFCURVE",
"352 555 OFFCURVE",
"280 555 CURVE SMOOTH",
"157 555 OFFCURVE",
"90 447 OFFCURVE",
"90 289 CURVE SMOOTH",
"90 147 OFFCURVE",
"144 20 OFFCURVE",
"280 20 CURVE SMOOTH",
"365 20 OFFCURVE",
"430 68 OFFCURVE",
"473 147 CURVE"
);
}
);
};
layerId = master01;
paths = (
{
closed = 0;
nodes = (
"473 421 LINE",
"419 517 OFFCURVE",
"352 555 OFFCURVE",
"280 555 CURVE SMOOTH",
"157 555 OFFCURVE",
"90 447 OFFCURVE",
"90 289 CURVE SMOOTH",
"90 147 OFFCURVE",
"144 20 OFFCURVE",
"280 20 CURVE SMOOTH",
"365 20 OFFCURVE",
"430 68 OFFCURVE",
"473 147 CURVE"
);
},
{
closed = 0;
nodes = (
"127 -107 LINE",
"161 -164 OFFCURVE",
"218 -190 OFFCURVE",
"292 -190 CURVE SMOOTH",
"407 -190 OFFCURVE",
"473 -126 OFFCURVE",
"473 -2 CURVE SMOOTH",
"473 555 LINE"
);
}
);
width = 608;
}
);
leftKerningGroup = o;
leftMetricsKey = o;
rightKerningGroup = n;
rightMetricsKey = n;
unicode = 0067;
},
{
glyphname = gbreve;
layers = (
{
layerId = master01;
paths = (
{
closed = 0;
nodes = (
"473 421 LINE",
"419 517 OFFCURVE",
"352 555 OFFCURVE",
"280 555 CURVE SMOOTH",
"157 555 OFFCURVE",
"90 447 OFFCURVE",
"90 289 CURVE SMOOTH",
"90 147 OFFCURVE",
"144 20 OFFCURVE",
"280 20 CURVE SMOOTH",
"365 20 OFFCURVE",
"430 68 OFFCURVE",
"473 147 CURVE"
);
},
{
closed = 0;
nodes = (
"127 -107 LINE",
"161 -164 OFFCURVE",
"218 -190 OFFCURVE",
"292 -190 CURVE SMOOTH",
"407 -190 OFFCURVE",
"473 -126 OFFCURVE",
"473 -2 CURVE SMOOTH",
"473 555 LINE"
);
},
{
closed = 0;
nodes = (
"188 762 LINE",
"188 707 OFFCURVE",
"240 680 OFFCURVE",
"306 680 CURVE SMOOTH",
"372 680 OFFCURVE",
"428 706 OFFCURVE",
"428 761 CURVE SMOOTH"
);
}
);
width = 608;
}
);
leftKerningGroup = o;
rightKerningGroup = n;
unicode = 011F;
},
{
glyphname = gcircumflex;
layers = (
{
layerId = master01;
paths = (
{
closed = 0;
nodes = (
"473 421 LINE",
"419 517 OFFCURVE",
"352 555 OFFCURVE",
"280 555 CURVE SMOOTH",
"157 555 OFFCURVE",
"90 447 OFFCURVE",
"90 289 CURVE SMOOTH",
"90 147 OFFCURVE",
"144 20 OFFCURVE",
"280 20 CURVE SMOOTH",
"365 20 OFFCURVE",
"430 68 OFFCURVE",
"473 147 CURVE"
);
},
{
closed = 0;
nodes = (
"127 -107 LINE",
"161 -164 OFFCURVE",
"218 -190 OFFCURVE",
"292 -190 CURVE SMOOTH",
"407 -190 OFFCURVE",
"473 -126 OFFCURVE",
"473 -2 CURVE SMOOTH",
"473 555 LINE"
);
},
{
closed = 0;
nodes = (
"419 648 LINE",
"310 774 LINE",
"306 774 LINE",
"197 648 LINE"
);
}
);
width = 608;
}
);
leftKerningGroup = o;
rightKerningGroup = n;
unicode = 011D;
},
{
glyphname = gcommaaccent;
layers = (
{
layerId = master01;
paths = (
{
closed = 0;
nodes = (
"473 421 LINE",
"419 517 OFFCURVE",
"352 555 OFFCURVE",
"280 555 CURVE SMOOTH",
"157 555 OFFCURVE",
"90 447 OFFCURVE",
"90 289 CURVE SMOOTH",
"90 147 OFFCURVE",
"144 20 OFFCURVE",
"280 20 CURVE SMOOTH",
"365 20 OFFCURVE",
"430 68 OFFCURVE",
"473 147 CURVE"
);
},
{
closed = 0;
nodes = (
"127 -107 LINE",
"161 -164 OFFCURVE",
"218 -190 OFFCURVE",
"292 -190 CURVE SMOOTH",
"407 -190 OFFCURVE",
"473 -126 OFFCURVE",
"473 -2 CURVE SMOOTH",
"473 555 LINE"
);
},
{
closed = 0;
nodes = (
"347 802 LINE",
"269 647 LINE"
);
}
);
width = 608;
}
);
leftKerningGroup = o;
rightKerningGroup = n;
unicode = 0123;
},
{
glyphname = gdotaccent;
layers = (
{
layerId = master01;
paths = (
{
closed = 0;
nodes = (
"473 421 LINE",
"419 517 OFFCURVE",
"352 555 OFFCURVE",
"280 555 CURVE SMOOTH",
"157 555 OFFCURVE",
"90 447 OFFCURVE",
"90 289 CURVE SMOOTH",
"90 147 OFFCURVE",
"144 20 OFFCURVE",
"280 20 CURVE SMOOTH",
"365 20 OFFCURVE",
"430 68 OFFCURVE",
"473 147 CURVE"
);
},
{
closed = 0;
nodes = (
"127 -107 LINE",
"161 -164 OFFCURVE",
"218 -190 OFFCURVE",
"292 -190 CURVE SMOOTH",
"407 -190 OFFCURVE",
"473 -126 OFFCURVE",
"473 -2 CURVE SMOOTH",
"473 555 LINE"
);
},
{
closed = 0;
nodes = (
"308 678 LINE",
"308 785 LINE"
);
}
);
width = 608;
}
);
leftKerningGroup = o;
rightKerningGroup = n;
unicode = 0121;
},
{
glyphname = h;
layers = (
{
layerId = master01;
paths = (
{
closed = 0;
nodes = (
"140 745 LINE",
"140 0 LINE"
);
},
{
closed = 0;
nodes = (
"473 0 LINE",
"473 415 LINE SMOOTH",
"473 502 OFFCURVE",
"433 555 OFFCURVE",
"356 555 CURVE SMOOTH",
"267 555 OFFCURVE",
"201 485 OFFCURVE",
"140 415 CURVE"
);
}
);
userData = {
com.schriftgestaltung.Glyphs.lastChange = "2021-03-17 07:33:32 +0000";
};
width = 608;
}
);
leftKerningGroup = h;
leftMetricsKey = n;
rightKerningGroup = n;
rightMetricsKey = n;
unicode = 0068;
},
{
glyphname = hbar;
layers = (
{
layerId = master01;
paths = (
{
closed = 0;
nodes = (
"48 644 LINE",
"276 644 LINE"
);
},
{
closed = 0;
nodes = (
"140 745 LINE",
"140 0 LINE"
);
},
{
closed = 0;
nodes = (
"473 0 LINE",
"473 415 LINE SMOOTH",
"473 502 OFFCURVE",
"433 555 OFFCURVE",
"356 555 CURVE SMOOTH",
"267 555 OFFCURVE",
"201 485 OFFCURVE",
"140 415 CURVE"
);
}
);
width = 608;
}
);
leftKerningGroup = h;
rightKerningGroup = n;
unicode = 0127;
},
{
glyphname = hcircumflex;
layers = (
{
layerId = master01;
paths = (
{
closed = 0;
nodes = (
"140 745 LINE",
"140 0 LINE"
);
},
{
closed = 0;
nodes = (
"473 0 LINE",
"473 415 LINE SMOOTH",
"473 502 OFFCURVE",
"433 555 OFFCURVE",
"356 555 CURVE SMOOTH",
"267 555 OFFCURVE",
"201 485 OFFCURVE",
"140 415 CURVE"
);
},
{
closed = 0;
nodes = (
"415 838 LINE",
"306 964 LINE",
"302 964 LINE",
"193 838 LINE"
);
}
);
width = 608;
}
);
leftKerningGroup = h;
rightKerningGroup = n;
unicode = 0125;
},
{
glyphname = i;
layers = (
{
guideLines = (
{
position = "{20, 1971}";
}
);
layerId = master01;
paths = (
{
closed = 0;
nodes = (
"140 0 LINE",
"140 555 LINE"
);
},
{
closed = 0;
nodes = (
"140 678 LINE",
"140 785 LINE"
);
}
);
width = 280;
}
);
leftKerningGroup = i;
leftMetricsKey = n;
rightKerningGroup = i;
rightMetricsKey = "=|n";
unicode = 0069;
},
{
glyphname = idotless;
layers = (
{
background = {
paths = (
{
closed = 0;
nodes = (
"140 0 LINE",
"140 555 LINE",
"86 555 LINE"
);
}
);
};
layerId = master01;
paths = (
{
closed = 0;
nodes = (
"140 0 LINE",
"140 555 LINE"
);
}
);
width = 280;
},
{
associatedMasterId = master01;
background = {
paths = (
{
closed = 0;
nodes = (
"140 0 LINE",
"140 555 LINE"
);
}
);
};
layerId = "1A9DB11B-B7EB-4BC9-9F04-68C449EC9411";
name = "21 nov. 21 à 22:07";
paths = (
{
closed = 0;
nodes = (
"140 0 LINE",
"140 555 LINE",
"86 555 LINE"
);
}
);
width = 280;
}
);
leftKerningGroup = i;
leftMetricsKey = n;
rightKerningGroup = i;
rightMetricsKey = "=|n";
unicode = 0131;
},
{
glyphname = iacute;
layers = (
{
layerId = master01;
paths = (
{
closed = 0;
nodes = (
"140 0 LINE",
"140 555 LINE"
);
},
{
closed = 0;
nodes = (
"72 657 LINE",
"207 790 LINE"
);
}
);
userData = {
com.schriftgestaltung.Glyphs.lastChange = "2021-03-17 07:33:32 +0000";
};
width = 280;
}
);
leftKerningGroup = i;
rightKerningGroup = i;
unicode = 00ED;
},
{
glyphname = ibreve;
layers = (
{
layerId = master01;
paths = (
{
closed = 0;
nodes = (
"140 0 LINE",
"140 555 LINE"
);
},
{
closed = 0;
nodes = (
"20 762 LINE",
"20 707 OFFCURVE",
"72 680 OFFCURVE",
"138 680 CURVE SMOOTH",
"204 680 OFFCURVE",
"260 706 OFFCURVE",
"260 761 CURVE SMOOTH"
);
}
);
width = 280;
}
);
leftKerningGroup = i;
rightKerningGroup = i;
unicode = 012D;
},
{
glyphname = icircumflex;
layers = (
{
layerId = master01;
paths = (
{
closed = 0;
nodes = (
"140 0 LINE",
"140 555 LINE"
);
},
{
closed = 0;
nodes = (
"251 648 LINE",
"142 774 LINE",
"138 774 LINE",
"29 648 LINE"
);
}
);
userData = {
com.schriftgestaltung.Glyphs.lastChange = "2021-03-17 07:33:32 +0000";
};
width = 280;
}
);
leftKerningGroup = i;
rightKerningGroup = i;
unicode = 00EE;
},
{
glyphname = idieresis;
layers = (
{
layerId = master01;
paths = (
{
closed = 0;
nodes = (
"140 0 LINE",
"140 555 LINE"
);
},
{
closed = 0;
nodes = (
"69 660 LINE",
"69 785 LINE"
);
},
{
closed = 0;
nodes = (
"211 660 LINE",
"211 785 LINE"
);
}
);
userData = {
com.schriftgestaltung.Glyphs.lastChange = "2021-03-17 07:33:32 +0000";
};
width = 280;
}
);
leftKerningGroup = i;
rightKerningGroup = i;
unicode = 00EF;
},
{
glyphname = idotaccent;
layers = (
{
layerId = master01;
paths = (
{
closed = 0;
nodes = (
"140 0 LINE",
"140 555 LINE"
);
},
{
closed = 0;
nodes = (
"140 678 LINE",
"140 785 LINE"
);
}
);
width = 280;
}
);
leftKerningGroup = i;
rightKerningGroup = i;
},
{
glyphname = igrave;
layers = (
{
layerId = master01;
paths = (
{
closed = 0;
nodes = (
"140 0 LINE",
"140 555 LINE"
);
},
{
closed = 0;
nodes = (
"72 791 LINE",
"207 658 LINE"
);
}
);
userData = {
com.schriftgestaltung.Glyphs.lastChange = "2021-03-17 07:33:32 +0000";
};
width = 280;
}
);
leftKerningGroup = i;
rightKerningGroup = i;
unicode = 00EC;
},
{
glyphname = imacron;
layers = (
{
layerId = master01;
paths = (
{
closed = 0;
nodes = (
"140 0 LINE",
"140 555 LINE"
);
},
{
closed = 0;
nodes = (
"250 703 LINE",
"29 703 LINE"
);
}
);
width = 280;
}
);
leftKerningGroup = i;
rightKerningGroup = i;
unicode = 012B;
},
{
glyphname = iogonek;
layers = (
{
layerId = master01;
paths = (
{
closed = 0;
nodes = (
"140 0 LINE",
"140 555 LINE"
);
},
{
closed = 0;
nodes = (
"140 678 LINE",
"140 785 LINE"
);
},
{
closed = 0;
nodes = (
"181 -184 LINE SMOOTH",
"168 -192 OFFCURVE",
"143 -200 OFFCURVE",
"119 -200 CURVE SMOOTH",
"69 -200 OFFCURVE",
"42 -175 OFFCURVE",
"42 -130 CURVE SMOOTH",
"42 -87 OFFCURVE",
"93 -38 OFFCURVE",
"140 0 CURVE"
);
}
);
width = 280;
}
);
leftKerningGroup = i;
rightKerningGroup = i;
unicode = 012F;
},
{
glyphname = itilde;
layers = (
{
layerId = master01;
paths = (
{
closed = 0;
nodes = (
"140 0 LINE",
"140 555 LINE"
);
},
{
closed = 0;
nodes = (
"1 687 LINE",
"23 724 OFFCURVE",
"50 735 OFFCURVE",
"75 735 CURVE SMOOTH",
"122 735 OFFCURVE",
"152 687 OFFCURVE",
"205 687 CURVE SMOOTH",
"230 687 OFFCURVE",
"256 696 OFFCURVE",
"279 734 CURVE"
);
}
);
width = 280;
}
);
leftKerningGroup = i;
rightKerningGroup = i;
unicode = 0129;
},
{
glyphname = j;
layers = (
{
layerId = master01;
paths = (
{
closed = 0;
nodes = (
"156 678 LINE",
"156 785 LINE"
);
},
{
closed = 0;
nodes = (
"0 -165 LINE",
"15 -179 OFFCURVE",
"39 -190 OFFCURVE",
"72 -190 CURVE SMOOTH",
"135 -190 OFFCURVE",
"158 -152 OFFCURVE",
"158 -83 CURVE SMOOTH",
"158 555 LINE"
);
}
);
width = 293;
}
);
leftKerningGroup = j;
rightKerningGroup = i;
rightMetricsKey = n;
unicode = 006A;
},
{
glyphname = jdotless;
layers = (
{
background = {
paths = (
{
closed = 0;
nodes = (
"0 -165 LINE",
"15 -179 OFFCURVE",
"39 -190 OFFCURVE",
"72 -190 CURVE SMOOTH",
"135 -190 OFFCURVE",
"158 -152 OFFCURVE",
"158 -83 CURVE SMOOTH",
"158 555 LINE"
);
}
);
};
layerId = master01;
paths = (
{
closed = 0;
nodes = (
"0 -165 LINE",
"15 -179 OFFCURVE",
"39 -190 OFFCURVE",
"72 -190 CURVE SMOOTH",
"135 -190 OFFCURVE",
"158 -152 OFFCURVE",
"158 -83 CURVE SMOOTH",
"158 555 LINE"
);
}
);
width = 293;
}
);
leftKerningGroup = j;
rightKerningGroup = i;
rightMetricsKey = n;
unicode = 0237;
},
{
glyphname = jacute;
layers = (
{
layerId = master01;
paths = (
{
closed = 0;
nodes = (
"0 -165 LINE",
"15 -179 OFFCURVE",
"39 -190 OFFCURVE",
"72 -190 CURVE SMOOTH",
"135 -190 OFFCURVE",
"158 -152 OFFCURVE",
"158 -83 CURVE SMOOTH",
"158 555 LINE"
);
},
{
closed = 0;
nodes = (
"90 657 LINE",
"225 790 LINE"
);
}
);
width = 293;
}
);
leftKerningGroup = j;
rightKerningGroup = i;
},
{
glyphname = jcircumflex;
layers = (
{
layerId = master01;
paths = (
{
closed = 0;
nodes = (
"0 -165 LINE",
"15 -179 OFFCURVE",
"39 -190 OFFCURVE",
"72 -190 CURVE SMOOTH",
"135 -190 OFFCURVE",
"158 -152 OFFCURVE",
"158 -83 CURVE SMOOTH",
"158 555 LINE"
);
},
{
closed = 0;
nodes = (
"269 648 LINE",
"160 774 LINE",
"156 774 LINE",
"47 648 LINE"
);
}
);
width = 293;
}
);
leftKerningGroup = j;
rightKerningGroup = i;
unicode = 0135;
},
{
glyphname = k;
layers = (
{
background = {
paths = (
{
closed = 0;
nodes = (
"478 0 LINE",
"200 302 LINE",
"456 555 LINE"
);
}
);
};
layerId = master01;
paths = (
{
closed = 0;
nodes = (
"140 745 LINE",
"140 0 LINE"
);
},
{
closed = 0;
nodes = (
"478 0 LINE",
"200 302 LINE",
"456 555 LINE"
);
}
);
width = 528;
}
);
leftKerningGroup = h;
leftMetricsKey = n;
rightKerningGroup = k;
unicode = 006B;
},
{
glyphname = kcommaaccent;
layers = (
{
layerId = master01;
paths = (
{
closed = 0;
nodes = (
"140 745 LINE",
"140 0 LINE"
);
},
{
closed = 0;
nodes = (
"478 0 LINE",
"200 302 LINE",
"456 555 LINE"
);
},
{
closed = 0;
nodes = (
"240 -240 LINE",
"318 -85 LINE"
);
}
);
width = 528;
}
);
leftKerningGroup = h;
rightKerningGroup = k;
unicode = 0137;
},
{
glyphname = l;
layers = (
{
layerId = master01;
paths = (
{
closed = 0;
nodes = (
"252 4 LINE",
"245 2 OFFCURVE",
"234 0 OFFCURVE",
"221 0 CURVE SMOOTH",
"164 0 OFFCURVE",
"135 35 OFFCURVE",
"135 107 CURVE SMOOTH",
"135 745 LINE"
);
}
);
width = 307;
}
);
leftKerningGroup = h;
leftMetricsKey = "=|n";
rightKerningGroup = l;
unicode = 006C;
},
{
glyphname = lacute;
layers = (
{
layerId = master01;
paths = (
{
closed = 0;
nodes = (
"252 4 LINE",
"245 2 OFFCURVE",
"234 0 OFFCURVE",
"221 0 CURVE SMOOTH",
"164 0 OFFCURVE",
"135 35 OFFCURVE",
"135 107 CURVE SMOOTH",
"135 745 LINE"
);
},
{
closed = 0;
nodes = (
"134 847 LINE",
"269 980 LINE"
);
}
);
width = 307;
}
);
leftKerningGroup = h;
rightKerningGroup = l;
unicode = 013A;
},
{
glyphname = lcaron;
layers = (
{
layerId = master01;
paths = (
{
closed = 0;
nodes = (
"252 4 LINE",
"245 2 OFFCURVE",
"234 0 OFFCURVE",
"221 0 CURVE SMOOTH",
"164 0 OFFCURVE",
"135 35 OFFCURVE",
"135 107 CURVE SMOOTH",
"135 745 LINE"
);
},
{
closed = 0;
nodes = (
"228 578 LINE",
"285 661 LINE",
"285 745 LINE"
);
}
);
width = 307;
}
);
leftKerningGroup = h;
rightKerningGroup = l;
unicode = 013E;
},
{
glyphname = lcommaaccent;
layers = (
{
layerId = master01;
paths = (
{
closed = 0;
nodes = (
"252 4 LINE",
"245 2 OFFCURVE",
"234 0 OFFCURVE",
"221 0 CURVE SMOOTH",
"164 0 OFFCURVE",
"135 35 OFFCURVE",
"135 107 CURVE SMOOTH",
"135 745 LINE"
);
},
{
closed = 0;
nodes = (
"145 -240 LINE",
"223 -85 LINE"
);
}
);
width = 307;
}
);
leftKerningGroup = h;
rightKerningGroup = l;
unicode = 013C;
},
{
color = 6;
glyphname = ldot;
layers = (
{
layerId = master01;
paths = (
{
closed = 0;
nodes = (
"252 4 LINE",
"245 2 OFFCURVE",
"234 0 OFFCURVE",
"221 0 CURVE SMOOTH",
"164 0 OFFCURVE",
"135 35 OFFCURVE",
"135 107 CURVE SMOOTH",
"135 745 LINE"
);
},
{
closed = 0;
nodes = (
"317 375 LINE",
"317 265 LINE"
);
}
);
width = 352;
}
);
leftKerningGroup = h;
leftMetricsKey = "=|n";
rightKerningGroup = l;
unicode = 0140;
},
{
glyphname = lslash;
layers = (
{
layerId = master01;
paths = (
{
closed = 0;
nodes = (
"35 327 LINE",
"257 407 LINE"
);
},
{
closed = 0;
nodes = (
"252 4 LINE",
"245 2 OFFCURVE",
"234 0 OFFCURVE",
"221 0 CURVE SMOOTH",
"164 0 OFFCURVE",
"135 35 OFFCURVE",
"135 107 CURVE SMOOTH",
"135 745 LINE"
);
}
);
width = 307;
}
);
leftKerningGroup = h;
rightKerningGroup = l;
unicode = 0142;
},
{
glyphname = m;
layers = (
{
layerId = master01;
paths = (
{
closed = 0;
nodes = (
"140 555 LINE",
"140 0 LINE"
);
},
{
closed = 0;
nodes = (
"473 0 LINE",
"473 415 LINE SMOOTH",
"473 502 OFFCURVE",
"433 555 OFFCURVE",
"356 555 CURVE SMOOTH",
"267 555 OFFCURVE",
"201 485 OFFCURVE",
"140 415 CURVE"
);
},
{
closed = 0;
nodes = (
"806 0 LINE",
"806 415 LINE SMOOTH",
"806 502 OFFCURVE",
"766 555 OFFCURVE",
"689 555 CURVE SMOOTH",
"600 555 OFFCURVE",
"534 485 OFFCURVE",
"473 415 CURVE"
);
}
);
userData = {
com.schriftgestaltung.Glyphs.lastChange = "2021-03-17 07:33:32 +0000";
};
width = 941;
}
);
leftKerningGroup = n;
leftMetricsKey = n;
rightKerningGroup = n;
rightMetricsKey = n;
unicode = 006D;
},
{
glyphname = n;
layers = (
{
layerId = master01;
paths = (
{
closed = 0;
nodes = (
"140 555 LINE",
"140 0 LINE"
);
},
{
closed = 0;
nodes = (
"473 0 LINE",
"473 415 LINE SMOOTH",
"473 502 OFFCURVE",
"433 555 OFFCURVE",
"356 555 CURVE SMOOTH",
"267 555 OFFCURVE",
"201 485 OFFCURVE",
"140 415 CURVE"
);
}
);
userData = {
com.schriftgestaltung.Glyphs.lastChange = "2021-03-17 07:33:32 +0000";
};
width = 608;
}
);
leftKerningGroup = n;
rightKerningGroup = n;
unicode = 006E;
},
{
glyphname = nacute;
layers = (
{
layerId = master01;
paths = (
{
closed = 0;
nodes = (
"140 555 LINE",
"140 0 LINE"
);
},
{
closed = 0;
nodes = (
"473 0 LINE",
"473 415 LINE SMOOTH",
"473 502 OFFCURVE",
"433 555 OFFCURVE",
"356 555 CURVE SMOOTH",
"267 555 OFFCURVE",
"201 485 OFFCURVE",
"140 415 CURVE"
);
},
{
closed = 0;
nodes = (
"246 657 LINE",
"381 790 LINE"
);
}
);
width = 608;
}
);
leftKerningGroup = n;
rightKerningGroup = n;
unicode = 0144;
},
{
glyphname = ncaron;
layers = (
{
layerId = master01;
paths = (
{
closed = 0;
nodes = (
"140 555 LINE",
"140 0 LINE"
);
},
{
closed = 0;
nodes = (
"473 0 LINE",
"473 415 LINE SMOOTH",
"473 502 OFFCURVE",
"433 555 OFFCURVE",
"356 555 CURVE SMOOTH",
"267 555 OFFCURVE",
"201 485 OFFCURVE",
"140 415 CURVE"
);
},
{
closed = 0;
nodes = (
"203 776 LINE",
"312 650 LINE",
"316 650 LINE",
"425 776 LINE"
);
}
);
width = 608;
}
);
leftKerningGroup = n;
rightKerningGroup = n;
unicode = 0148;
},
{
glyphname = ncommaaccent;
layers = (
{
layerId = master01;
paths = (
{
closed = 0;
nodes = (
"140 555 LINE",
"140 0 LINE"
);
},
{
closed = 0;
nodes = (
"473 0 LINE",
"473 415 LINE SMOOTH",
"473 502 OFFCURVE",
"433 555 OFFCURVE",
"356 555 CURVE SMOOTH",
"267 555 OFFCURVE",
"201 485 OFFCURVE",
"140 415 CURVE"
);
},
{
closed = 0;
nodes = (
"265 -240 LINE",
"343 -85 LINE"
);
}
);
width = 608;
}
);
leftKerningGroup = n;
rightKerningGroup = n;
unicode = 0146;
},
{
glyphname = eng;
layers = (
{
layerId = master01;
paths = (
{
closed = 0;
nodes = (
"315 -163 LINE",
"330 -177 OFFCURVE",
"354 -188 OFFCURVE",
"387 -188 CURVE SMOOTH",
"450 -188 OFFCURVE",
"473 -150 OFFCURVE",
"473 -81 CURVE SMOOTH",
"473 0 LINE"
);
},
{
closed = 0;
nodes = (
"140 555 LINE",
"140 0 LINE"
);
},
{
closed = 0;
nodes = (
"473 0 LINE",
"473 415 LINE SMOOTH",
"473 502 OFFCURVE",
"433 555 OFFCURVE",
"356 555 CURVE SMOOTH",
"267 555 OFFCURVE",
"201 485 OFFCURVE",
"140 415 CURVE"
);
}
);
width = 608;
}
);
leftKerningGroup = n;
leftMetricsKey = n;
rightKerningGroup = n;
rightMetricsKey = n;
unicode = 014B;
},
{
glyphname = ntilde;
layers = (
{
layerId = master01;
paths = (
{
closed = 0;
nodes = (
"140 555 LINE",
"140 0 LINE"
);
},
{
closed = 0;
nodes = (
"473 0 LINE",
"473 415 LINE SMOOTH",
"473 502 OFFCURVE",
"433 555 OFFCURVE",
"356 555 CURVE SMOOTH",
"267 555 OFFCURVE",
"201 485 OFFCURVE",
"140 415 CURVE"
);
},
{
closed = 0;
nodes = (
"175 687 LINE",
"197 724 OFFCURVE",
"224 735 OFFCURVE",
"249 735 CURVE SMOOTH",
"296 735 OFFCURVE",
"326 687 OFFCURVE",
"379 687 CURVE SMOOTH",
"404 687 OFFCURVE",
"430 696 OFFCURVE",
"453 734 CURVE"
);
}
);
userData = {
com.schriftgestaltung.Glyphs.lastChange = "2021-03-17 07:33:32 +0000";
};
width = 608;
}
);
leftKerningGroup = n;
rightKerningGroup = n;
unicode = 00F1;
},
{
glyphname = o;
layers = (
{
background = {
paths = (
{
closed = 0;
nodes = (
"295 555 LINE",
"131 555 OFFCURVE",
"90 384 OFFCURVE",
"90 275 CURVE SMOOTH",
"90 140 OFFCURVE",
"152 0 OFFCURVE",
"296 0 CURVE SMOOTH",
"440 0 OFFCURVE",
"502 140 OFFCURVE",
"502 275 CURVE SMOOTH",
"502 384 OFFCURVE",
"461 555 OFFCURVE",
"297 555 CURVE"
);
}
);
};
layerId = master01;
paths = (
{
closed = 0;
nodes = (
"295 555 LINE",
"131 555 OFFCURVE",
"90 384 OFFCURVE",
"90 275 CURVE SMOOTH",
"90 140 OFFCURVE",
"152 0 OFFCURVE",
"296 0 CURVE SMOOTH",
"440 0 OFFCURVE",
"502 140 OFFCURVE",
"502 275 CURVE SMOOTH",
"502 384 OFFCURVE",
"461 555 OFFCURVE",
"297 555 CURVE"
);
}
);
width = 592;
}
);
leftKerningGroup = o;
rightKerningGroup = o;
unicode = 006F;
},
{
glyphname = oacute;
layers = (
{
layerId = master01;
paths = (
{
closed = 0;
nodes = (
"295 555 LINE",
"131 555 OFFCURVE",
"90 384 OFFCURVE",
"90 275 CURVE SMOOTH",
"90 140 OFFCURVE",
"152 0 OFFCURVE",
"296 0 CURVE SMOOTH",
"440 0 OFFCURVE",
"502 140 OFFCURVE",
"502 275 CURVE SMOOTH",
"502 384 OFFCURVE",
"461 555 OFFCURVE",
"297 555 CURVE"
);
},
{
closed = 0;
nodes = (
"227 657 LINE",
"362 790 LINE"
);
}
);
width = 592;
}
);
leftKerningGroup = o;
rightKerningGroup = o;
unicode = 00F3;
},
{
glyphname = obreve;
layers = (
{
layerId = master01;
paths = (
{
closed = 0;
nodes = (
"295 555 LINE",
"131 555 OFFCURVE",
"90 384 OFFCURVE",
"90 275 CURVE SMOOTH",
"90 140 OFFCURVE",
"152 0 OFFCURVE",
"296 0 CURVE SMOOTH",
"440 0 OFFCURVE",
"502 140 OFFCURVE",
"502 275 CURVE SMOOTH",
"502 384 OFFCURVE",
"461 555 OFFCURVE",
"297 555 CURVE"
);
},
{
closed = 0;
nodes = (
"175 762 LINE",
"175 707 OFFCURVE",
"227 680 OFFCURVE",
"293 680 CURVE SMOOTH",
"359 680 OFFCURVE",
"415 706 OFFCURVE",
"415 761 CURVE SMOOTH"
);
}
);
width = 592;
}
);
leftKerningGroup = o;
rightKerningGroup = o;
unicode = 014F;
},
{
glyphname = ocircumflex;
layers = (
{
layerId = master01;
paths = (
{
closed = 0;
nodes = (
"295 555 LINE",
"131 555 OFFCURVE",
"90 384 OFFCURVE",
"90 275 CURVE SMOOTH",
"90 140 OFFCURVE",
"152 0 OFFCURVE",
"296 0 CURVE SMOOTH",
"440 0 OFFCURVE",
"502 140 OFFCURVE",
"502 275 CURVE SMOOTH",
"502 384 OFFCURVE",
"461 555 OFFCURVE",
"297 555 CURVE"
);
},
{
closed = 0;
nodes = (
"406 648 LINE",
"297 774 LINE",
"293 774 LINE",
"184 648 LINE"
);
}
);
width = 592;
}
);
leftKerningGroup = o;
rightKerningGroup = o;
unicode = 00F4;
},
{
glyphname = odieresis;
layers = (
{
layerId = master01;
paths = (
{
closed = 0;
nodes = (
"295 555 LINE",
"131 555 OFFCURVE",
"90 384 OFFCURVE",
"90 275 CURVE SMOOTH",
"90 140 OFFCURVE",
"152 0 OFFCURVE",
"296 0 CURVE SMOOTH",
"440 0 OFFCURVE",
"502 140 OFFCURVE",
"502 275 CURVE SMOOTH",
"502 384 OFFCURVE",
"461 555 OFFCURVE",
"297 555 CURVE"
);
},
{
closed = 0;
nodes = (
"224 660 LINE",
"224 785 LINE"
);
},
{
closed = 0;
nodes = (
"366 660 LINE",
"366 785 LINE"
);
}
);
width = 592;
}
);
leftKerningGroup = o;
rightKerningGroup = o;
unicode = 00F6;
},
{
glyphname = ograve;
layers = (
{
layerId = master01;
paths = (
{
closed = 0;
nodes = (
"295 555 LINE",
"131 555 OFFCURVE",
"90 384 OFFCURVE",
"90 275 CURVE SMOOTH",
"90 140 OFFCURVE",
"152 0 OFFCURVE",
"296 0 CURVE SMOOTH",
"440 0 OFFCURVE",
"502 140 OFFCURVE",
"502 275 CURVE SMOOTH",
"502 384 OFFCURVE",
"461 555 OFFCURVE",
"297 555 CURVE"
);
},
{
closed = 0;
nodes = (
"227 791 LINE",
"362 658 LINE"
);
}
);
width = 592;
}
);
leftKerningGroup = o;
rightKerningGroup = o;
unicode = 00F2;
},
{
glyphname = ohungarumlaut;
layers = (
{
layerId = master01;
paths = (
{
closed = 0;
nodes = (
"295 555 LINE",
"131 555 OFFCURVE",
"90 384 OFFCURVE",
"90 275 CURVE SMOOTH",
"90 140 OFFCURVE",
"152 0 OFFCURVE",
"296 0 CURVE SMOOTH",
"440 0 OFFCURVE",
"502 140 OFFCURVE",
"502 275 CURVE SMOOTH",
"502 384 OFFCURVE",
"461 555 OFFCURVE",
"297 555 CURVE"
);
},
{
closed = 0;
nodes = (
"168 657 LINE",
"295 782 LINE"
);
},
{
closed = 0;
nodes = (
"315 657 LINE",
"442 782 LINE"
);
}
);
width = 592;
}
);
leftKerningGroup = o;
rightKerningGroup = o;
unicode = 0151;
},
{
glyphname = omacron;
layers = (
{
layerId = master01;
paths = (
{
closed = 0;
nodes = (
"295 555 LINE",
"131 555 OFFCURVE",
"90 384 OFFCURVE",
"90 275 CURVE SMOOTH",
"90 140 OFFCURVE",
"152 0 OFFCURVE",
"296 0 CURVE SMOOTH",
"440 0 OFFCURVE",
"502 140 OFFCURVE",
"502 275 CURVE SMOOTH",
"502 384 OFFCURVE",
"461 555 OFFCURVE",
"297 555 CURVE"
);
},
{
closed = 0;
nodes = (
"405 703 LINE",
"184 703 LINE"
);
}
);
width = 592;
}
);
leftKerningGroup = o;
rightKerningGroup = o;
unicode = 014D;
},
{
glyphname = oslash;
layers = (
{
layerId = master01;
paths = (
{
closed = 0;
nodes = (
"113 -20 LINE",
"480 575 LINE"
);
},
{
closed = 0;
nodes = (
"295 555 LINE",
"131 555 OFFCURVE",
"90 384 OFFCURVE",
"90 275 CURVE SMOOTH",
"90 140 OFFCURVE",
"152 0 OFFCURVE",
"296 0 CURVE SMOOTH",
"440 0 OFFCURVE",
"502 140 OFFCURVE",
"502 275 CURVE SMOOTH",
"502 384 OFFCURVE",
"461 555 OFFCURVE",
"297 555 CURVE"
);
}
);
width = 592;
}
);
leftKerningGroup = o;
leftMetricsKey = o;
rightKerningGroup = o;
rightMetricsKey = o;
unicode = 00F8;
},
{
glyphname = otilde;
layers = (
{
layerId = master01;
paths = (
{
closed = 0;
nodes = (
"295 555 LINE",
"131 555 OFFCURVE",
"90 384 OFFCURVE",
"90 275 CURVE SMOOTH",
"90 140 OFFCURVE",
"152 0 OFFCURVE",
"296 0 CURVE SMOOTH",
"440 0 OFFCURVE",
"502 140 OFFCURVE",
"502 275 CURVE SMOOTH",
"502 384 OFFCURVE",
"461 555 OFFCURVE",
"297 555 CURVE"
);
},
{
closed = 0;
nodes = (
"156 687 LINE",
"178 724 OFFCURVE",
"205 735 OFFCURVE",
"230 735 CURVE SMOOTH",
"277 735 OFFCURVE",
"307 687 OFFCURVE",
"360 687 CURVE SMOOTH",
"385 687 OFFCURVE",
"411 696 OFFCURVE",
"434 734 CURVE"
);
}
);
width = 592;
}
);
leftKerningGroup = o;
rightKerningGroup = o;
unicode = 00F5;
},
{
glyphname = oe;
layers = (
{
guideLines = (
{
position = "{862, -64}";
},
{
position = "{48, 78}";
},
{
position = "{48, 68}";
},
{
position = "{48, 50}";
}
);
layerId = master01;
paths = (
{
closed = 0;
nodes = (
"295 555 LINE",
"131 555 OFFCURVE",
"90 384 OFFCURVE",
"90 275 CURVE SMOOTH",
"90 140 OFFCURVE",
"152 0 OFFCURVE",
"296 0 CURVE SMOOTH",
"440 0 OFFCURVE",
"502 140 OFFCURVE",
"502 275 CURVE SMOOTH",
"502 384 OFFCURVE",
"461 555 OFFCURVE",
"297 555 CURVE"
);
},
{
closed = 0;
nodes = (
"504 305 LINE",
"888 305 LINE",
"888 417 OFFCURVE",
"851 555 OFFCURVE",
"706 555 CURVE SMOOTH",
"581 555 OFFCURVE",
"502 451 OFFCURVE",
"502 275 CURVE SMOOTH",
"502 116 OFFCURVE",
"566 0 OFFCURVE",
"709 0 CURVE SMOOTH",
"803 0 OFFCURVE",
"855 51 OFFCURVE",
"880 110 CURVE SMOOTH"
);
}
);
userData = {
com.schriftgestaltung.Glyphs.lastChange = "2021-03-17 07:33:32 +0000";
};
width = 973;
}
);
leftKerningGroup = o;
leftMetricsKey = o;
rightKerningGroup = o;
rightMetricsKey = "=o-5";
unicode = 0153;
},
{
glyphname = p;
layers = (
{
layerId = master01;
paths = (
{
closed = 0;
nodes = (
"140 555 LINE",
"140 -190 LINE"
);
},
{
closed = 0;
nodes = (
"140 137 LINE",
"183 52 OFFCURVE",
"248 0 OFFCURVE",
"333 0 CURVE SMOOTH",
"469 0 OFFCURVE",
"523 132 OFFCURVE",
"523 279 CURVE SMOOTH",
"523 447 OFFCURVE",
"456 555 OFFCURVE",
"334 555 CURVE SMOOTH",
"261 555 OFFCURVE",
"194 517 OFFCURVE",
"140 421 CURVE"
);
}
);
width = 613;
}
);
leftKerningGroup = n;
leftMetricsKey = n;
rightKerningGroup = o;
rightMetricsKey = o;
unicode = 0070;
},
{
glyphname = thorn;
layers = (
{
layerId = master01;
paths = (
{
closed = 0;
nodes = (
"140 -190 LINE",
"140 745 LINE"
);
},
{
closed = 0;
nodes = (
"140 137 LINE",
"183 52 OFFCURVE",
"248 0 OFFCURVE",
"333 0 CURVE SMOOTH",
"469 0 OFFCURVE",
"523 132 OFFCURVE",
"523 279 CURVE SMOOTH",
"523 447 OFFCURVE",
"456 555 OFFCURVE",
"334 555 CURVE SMOOTH",
"261 555 OFFCURVE",
"194 517 OFFCURVE",
"140 421 CURVE"
);
}
);
width = 613;
}
);
leftKerningGroup = h;
leftMetricsKey = n;
rightKerningGroup = o;
rightMetricsKey = o;
unicode = 00FE;
},
{
glyphname = q;
layers = (
{
layerId = master01;
paths = (
{
closed = 0;
nodes = (
"473 555 LINE",
"473 -190 LINE"
);
},
{
closed = 0;
nodes = (
"473 421 LINE",
"419 517 OFFCURVE",
"352 555 OFFCURVE",
"279 555 CURVE SMOOTH",
"157 555 OFFCURVE",
"90 447 OFFCURVE",
"90 279 CURVE SMOOTH",
"90 132 OFFCURVE",
"144 0 OFFCURVE",
"280 0 CURVE SMOOTH",
"365 0 OFFCURVE",
"430 52 OFFCURVE",
"473 137 CURVE"
);
}
);
width = 613;
}
);
leftKerningGroup = o;
leftMetricsKey = o;
rightKerningGroup = n;
rightMetricsKey = "=|n";
unicode = 0071;
},
{
glyphname = r;
layers = (
{
background = {
components = (
{
alignment = -1;
name = _module_n;
transform = "{1, 0, 0, 1, 140, 0}";
}
);
paths = (
{
closed = 0;
nodes = (
"140 415 LINE",
"211 497 OFFCURVE",
"277 555 OFFCURVE",
"338 555 CURVE SMOOTH"
);
},
{
closed = 0;
nodes = (
"140 555 LINE",
"140 0 LINE"
);
}
);
};
layerId = master01;
paths = (
{
closed = 0;
nodes = (
"140 555 LINE",
"140 0 LINE"
);
},
{
closed = 0;
nodes = (
"140 415 LINE",
"211 497 OFFCURVE",
"277 555 OFFCURVE",
"338 555 CURVE SMOOTH"
);
}
);
width = 394;
}
);
leftKerningGroup = n;
leftMetricsKey = n;
rightKerningGroup = r;
unicode = 0072;
},
{
glyphname = racute;
layers = (
{
layerId = master01;
paths = (
{
closed = 0;
nodes = (
"140 555 LINE",
"140 0 LINE"
);
},
{
closed = 0;
nodes = (
"140 415 LINE",
"211 497 OFFCURVE",
"277 555 OFFCURVE",
"338 555 CURVE SMOOTH"
);
},
{
closed = 0;
nodes = (
"166 657 LINE",
"301 790 LINE"
);
}
);
width = 394;
}
);
leftKerningGroup = n;
rightKerningGroup = r;
unicode = 0155;
},
{
glyphname = rcaron;
layers = (
{
layerId = master01;
paths = (
{
closed = 0;
nodes = (
"140 555 LINE",
"140 0 LINE"
);
},
{
closed = 0;
nodes = (
"140 415 LINE",
"211 497 OFFCURVE",
"277 555 OFFCURVE",
"338 555 CURVE SMOOTH"
);
},
{
closed = 0;
nodes = (
"123 776 LINE",
"232 650 LINE",
"236 650 LINE",
"345 776 LINE"
);
}
);
width = 394;
}
);
leftKerningGroup = n;
rightKerningGroup = r;
unicode = 0159;
},
{
glyphname = rcommaaccent;
layers = (
{
layerId = master01;
paths = (
{
closed = 0;
nodes = (
"140 555 LINE",
"140 0 LINE"
);
},
{
closed = 0;
nodes = (
"140 415 LINE",
"211 497 OFFCURVE",
"277 555 OFFCURVE",
"338 555 CURVE SMOOTH"
);
},
{
closed = 0;
nodes = (
"61 -240 LINE",
"139 -85 LINE"
);
}
);
width = 394;
}
);
leftKerningGroup = n;
rightKerningGroup = r;
unicode = 0157;
},
{
glyphname = s;
layers = (
{
background = {
paths = (
{
closed = 0;
nodes = (
"90 118 LINE SMOOTH",
"114 44 OFFCURVE",
"185 0 OFFCURVE",
"270 0 CURVE SMOOTH",
"351 0 OFFCURVE",
"436 41 OFFCURVE",
"436 135 CURVE SMOOTH",
"436 320 OFFCURVE",
"109 256 OFFCURVE",
"109 430 CURVE SMOOTH",
"109 518 OFFCURVE",
"193 555 OFFCURVE",
"265 555 CURVE SMOOTH",
"335 555 OFFCURVE",
"390 520 OFFCURVE",
"415 462 CURVE"
);
}
);
};
layerId = master01;
paths = (
{
closed = 0;
nodes = (
"90 118 LINE SMOOTH",
"114 44 OFFCURVE",
"185 0 OFFCURVE",
"270 0 CURVE SMOOTH",
"351 0 OFFCURVE",
"436 41 OFFCURVE",
"436 135 CURVE SMOOTH",
"436 320 OFFCURVE",
"109 256 OFFCURVE",
"109 430 CURVE SMOOTH",
"109 518 OFFCURVE",
"193 555 OFFCURVE",
"265 555 CURVE SMOOTH",
"335 555 OFFCURVE",
"390 520 OFFCURVE",
"415 462 CURVE"
);
}
);
width = 521;
},
{
associatedMasterId = master01;
background = {
paths = (
{
closed = 0;
nodes = (
"90 118 LINE",
"114 44 OFFCURVE",
"185 0 OFFCURVE",
"270 0 CURVE SMOOTH",
"351 0 OFFCURVE",
"436 41 OFFCURVE",
"436 135 CURVE SMOOTH",
"436 320 OFFCURVE",
"109 252 OFFCURVE",
"109 433 CURVE SMOOTH",
"109 524 OFFCURVE",
"193 555 OFFCURVE",
"265 555 CURVE SMOOTH",
"338 555 OFFCURVE",
"388 523 OFFCURVE",
"413 457 CURVE"
);
}
);
};
layerId = "17AFE0F8-A466-4762-BA93-C962EE6B8127";
name = "Sep 17 21, 18:58";
paths = (
{
closed = 0;
nodes = (
"90 118 LINE SMOOTH",
"114 44 OFFCURVE",
"185 0 OFFCURVE",
"270 0 CURVE SMOOTH",
"351 0 OFFCURVE",
"436 41 OFFCURVE",
"436 135 CURVE SMOOTH",
"436 320 OFFCURVE",
"109 256 OFFCURVE",
"109 430 CURVE SMOOTH",
"109 518 OFFCURVE",
"193 555 OFFCURVE",
"265 555 CURVE SMOOTH",
"337 555 OFFCURVE",
"391 519 OFFCURVE",
"415 457 CURVE"
);
}
);
width = 521;
}
);
leftKerningGroup = o;
leftMetricsKey = o;
rightKerningGroup = o;
rightMetricsKey = "=o-5";
unicode = 0073;
},
{
glyphname = sacute;
layers = (
{
layerId = master01;
paths = (
{
closed = 0;
nodes = (
"90 118 LINE SMOOTH",
"114 44 OFFCURVE",
"185 0 OFFCURVE",
"270 0 CURVE SMOOTH",
"351 0 OFFCURVE",
"436 41 OFFCURVE",
"436 135 CURVE SMOOTH",
"436 320 OFFCURVE",
"109 256 OFFCURVE",
"109 430 CURVE SMOOTH",
"109 518 OFFCURVE",
"193 555 OFFCURVE",
"265 555 CURVE SMOOTH",
"335 555 OFFCURVE",
"390 520 OFFCURVE",
"415 462 CURVE"
);
},
{
closed = 0;
nodes = (
"199 657 LINE",
"334 790 LINE"
);
}
);
width = 521;
}
);
leftKerningGroup = o;
rightKerningGroup = o;
unicode = 015B;
},
{
glyphname = scaron;
layers = (
{
layerId = master01;
paths = (
{
closed = 0;
nodes = (
"90 118 LINE SMOOTH",
"114 44 OFFCURVE",
"185 0 OFFCURVE",
"270 0 CURVE SMOOTH",
"351 0 OFFCURVE",
"436 41 OFFCURVE",
"436 135 CURVE SMOOTH",
"436 320 OFFCURVE",
"109 256 OFFCURVE",
"109 430 CURVE SMOOTH",
"109 518 OFFCURVE",
"193 555 OFFCURVE",
"265 555 CURVE SMOOTH",
"335 555 OFFCURVE",
"390 520 OFFCURVE",
"415 462 CURVE"
);
},
{
closed = 0;
nodes = (
"156 776 LINE",
"265 650 LINE",
"269 650 LINE",
"378 776 LINE"
);
}
);
width = 521;
}
);
leftKerningGroup = o;
rightKerningGroup = o;
unicode = 0161;
},
{
glyphname = scedilla;
layers = (
{
layerId = master01;
paths = (
{
closed = 0;
nodes = (
"90 118 LINE SMOOTH",
"114 44 OFFCURVE",
"185 0 OFFCURVE",
"270 0 CURVE SMOOTH",
"351 0 OFFCURVE",
"436 41 OFFCURVE",
"436 135 CURVE SMOOTH",
"436 320 OFFCURVE",
"109 256 OFFCURVE",
"109 430 CURVE SMOOTH",
"109 518 OFFCURVE",
"193 555 OFFCURVE",
"265 555 CURVE SMOOTH",
"335 555 OFFCURVE",
"390 520 OFFCURVE",
"415 462 CURVE"
);
},
{
closed = 0;
nodes = (
"185 -177 LINE SMOOTH",
"198 -184 OFFCURVE",
"217 -191 OFFCURVE",
"246 -191 CURVE SMOOTH",
"298 -191 OFFCURVE",
"330 -168 OFFCURVE",
"330 -132 CURVE SMOOTH",
"330 -95 OFFCURVE",
"299 -78 OFFCURVE",
"245 -78 CURVE SMOOTH",
"219 -78 LINE",
"265 0 LINE"
);
}
);
width = 521;
}
);
leftKerningGroup = o;
rightKerningGroup = o;
unicode = 015F;
},
{
glyphname = scircumflex;
layers = (
{
layerId = master01;
paths = (
{
closed = 0;
nodes = (
"90 118 LINE SMOOTH",
"114 44 OFFCURVE",
"185 0 OFFCURVE",
"270 0 CURVE SMOOTH",
"351 0 OFFCURVE",
"436 41 OFFCURVE",
"436 135 CURVE SMOOTH",
"436 320 OFFCURVE",
"109 256 OFFCURVE",
"109 430 CURVE SMOOTH",
"109 518 OFFCURVE",
"193 555 OFFCURVE",
"265 555 CURVE SMOOTH",
"335 555 OFFCURVE",
"390 520 OFFCURVE",
"415 462 CURVE"
);
},
{
closed = 0;
nodes = (
"378 648 LINE",
"269 774 LINE",
"265 774 LINE",
"156 648 LINE"
);
}
);
width = 521;
}
);
leftKerningGroup = o;
rightKerningGroup = o;
unicode = 015D;
},
{
glyphname = scommaaccent;
layers = (
{
layerId = master01;
paths = (
{
closed = 0;
nodes = (
"90 118 LINE SMOOTH",
"114 44 OFFCURVE",
"185 0 OFFCURVE",
"270 0 CURVE SMOOTH",
"351 0 OFFCURVE",
"436 41 OFFCURVE",
"436 135 CURVE SMOOTH",
"436 320 OFFCURVE",
"109 256 OFFCURVE",
"109 430 CURVE SMOOTH",
"109 518 OFFCURVE",
"193 555 OFFCURVE",
"265 555 CURVE SMOOTH",
"335 555 OFFCURVE",
"390 520 OFFCURVE",
"415 462 CURVE"
);
},
{
closed = 0;
nodes = (
"216 -240 LINE",
"294 -85 LINE"
);
}
);
width = 521;
}
);
leftKerningGroup = o;
rightKerningGroup = o;
unicode = 0219;
},
{
glyphname = germandbls;
layers = (
{
background = {
paths = (
{
closed = 0;
nodes = (
"261 406 LINE",
"302 406 LINE SMOOTH",
"418 406 OFFCURVE",
"469 494 OFFCURVE",
"469 582 CURVE SMOOTH",
"469 670 OFFCURVE",
"417 745 OFFCURVE",
"309 745 CURVE SMOOTH",
"200 745 OFFCURVE",
"140 668 OFFCURVE",
"140 529 CURVE SMOOTH",
"140 0 LINE"
);
},
{
closed = 0;
nodes = (
"250 24 LINE SMOOTH",
"273 11 OFFCURVE",
"304 0 OFFCURVE",
"341 0 CURVE SMOOTH",
"445 0 OFFCURVE",
"509 85 OFFCURVE",
"509 195 CURVE SMOOTH",
"509 317 OFFCURVE",
"426 406 OFFCURVE",
"302 406 CURVE"
);
}
);
};
layerId = master01;
paths = (
{
closed = 0;
nodes = (
"250 24 LINE SMOOTH",
"273 11 OFFCURVE",
"304 0 OFFCURVE",
"341 0 CURVE SMOOTH",
"445 0 OFFCURVE",
"509 85 OFFCURVE",
"509 194 CURVE SMOOTH",
"509 317 OFFCURVE",
"426 406 OFFCURVE",
"302 406 CURVE"
);
},
{
closed = 0;
nodes = (
"261 406 LINE",
"302 406 LINE SMOOTH",
"418 406 OFFCURVE",
"469 494 OFFCURVE",
"469 582 CURVE SMOOTH",
"469 670 OFFCURVE",
"417 745 OFFCURVE",
"309 745 CURVE SMOOTH",
"200 745 OFFCURVE",
"140 668 OFFCURVE",
"140 529 CURVE SMOOTH",
"140 0 LINE"
);
}
);
width = 594;
}
);
leftKerningGroup = h;
leftMetricsKey = n;
rightKerningGroup = germandbls;
unicode = 00DF;
},
{
glyphname = t;
layers = (
{
background = {
paths = (
{
closed = 0;
nodes = (
"327 27 LINE SMOOTH",
"309 11 OFFCURVE",
"281 0 OFFCURVE",
"247 0 CURVE SMOOTH",
"185 0 OFFCURVE",
"150 35 OFFCURVE",
"150 117 CURVE SMOOTH",
"150 660 LINE"
);
},
{
closed = 0;
nodes = (
"50 501 LINE",
"313 501 LINE"
);
}
);
};
layerId = master01;
paths = (
{
closed = 0;
nodes = (
"327 27 LINE SMOOTH",
"309 11 OFFCURVE",
"281 0 OFFCURVE",
"247 0 CURVE SMOOTH",
"185 0 OFFCURVE",
"150 35 OFFCURVE",
"150 117 CURVE SMOOTH",
"150 660 LINE"
);
},
{
closed = 0;
nodes = (
"50 501 LINE",
"313 501 LINE"
);
}
);
width = 387;
}
);
leftKerningGroup = t;
rightKerningGroup = t;
unicode = 0074;
},
{
glyphname = tbar;
layers = (
{
layerId = master01;
paths = (
{
closed = 0;
nodes = (
"50 311 LINE",
"313 311 LINE"
);
},
{
closed = 0;
nodes = (
"327 27 LINE SMOOTH",
"309 11 OFFCURVE",
"281 0 OFFCURVE",
"247 0 CURVE SMOOTH",
"185 0 OFFCURVE",
"150 35 OFFCURVE",
"150 117 CURVE SMOOTH",
"150 660 LINE"
);
},
{
closed = 0;
nodes = (
"50 501 LINE",
"313 501 LINE"
);
}
);
width = 387;
}
);
leftKerningGroup = t;
rightKerningGroup = t;
unicode = 0167;
},
{
glyphname = tcaron;
layers = (
{
layerId = master01;
paths = (
{
closed = 0;
nodes = (
"327 27 LINE SMOOTH",
"309 11 OFFCURVE",
"281 0 OFFCURVE",
"247 0 CURVE SMOOTH",
"185 0 OFFCURVE",
"150 35 OFFCURVE",
"150 117 CURVE SMOOTH",
"150 660 LINE"
);
},
{
closed = 0;
nodes = (
"50 501 LINE",
"313 501 LINE"
);
},
{
closed = 0;
nodes = (
"233 578 LINE",
"290 661 LINE",
"290 745 LINE"
);
}
);
width = 387;
}
);
leftKerningGroup = t;
rightKerningGroup = t;
unicode = 0165;
},
{
glyphname = tcedilla;
layers = (
{
layerId = master01;
paths = (
{
closed = 0;
nodes = (
"327 27 LINE SMOOTH",
"309 11 OFFCURVE",
"281 0 OFFCURVE",
"247 0 CURVE SMOOTH",
"185 0 OFFCURVE",
"150 35 OFFCURVE",
"150 117 CURVE SMOOTH",
"150 660 LINE"
);
},
{
closed = 0;
nodes = (
"50 501 LINE",
"313 501 LINE"
);
},
{
closed = 0;
nodes = (
"164 -177 LINE SMOOTH",
"177 -184 OFFCURVE",
"196 -191 OFFCURVE",
"225 -191 CURVE SMOOTH",
"277 -191 OFFCURVE",
"309 -168 OFFCURVE",
"309 -132 CURVE SMOOTH",
"309 -95 OFFCURVE",
"278 -78 OFFCURVE",
"224 -78 CURVE SMOOTH",
"198 -78 LINE",
"244 0 LINE"
);
}
);
width = 387;
}
);
leftKerningGroup = t;
rightKerningGroup = t;
unicode = 0163;
},
{
glyphname = tcommaaccent;
layers = (
{
layerId = master01;
paths = (
{
closed = 0;
nodes = (
"327 27 LINE SMOOTH",
"309 11 OFFCURVE",
"281 0 OFFCURVE",
"247 0 CURVE SMOOTH",
"185 0 OFFCURVE",
"150 35 OFFCURVE",
"150 117 CURVE SMOOTH",
"150 660 LINE"
);
},
{
closed = 0;
nodes = (
"50 501 LINE",
"313 501 LINE"
);
},
{
closed = 0;
nodes = (
"195 -240 LINE",
"273 -85 LINE"
);
}
);
width = 387;
}
);
leftKerningGroup = t;
rightKerningGroup = t;
unicode = 021B;
},
{
glyphname = u;
layers = (
{
background = {
components = (
{
alignment = -1;
name = _module_n;
transform = "{-1, 0, 0, -1, 463, 555}";
}
);
};
layerId = master01;
paths = (
{
closed = 0;
nodes = (
"463 140 LINE",
"423 72 OFFCURVE",
"351 0 OFFCURVE",
"262 0 CURVE SMOOTH",
"185 0 OFFCURVE",
"135 53 OFFCURVE",
"135 150 CURVE SMOOTH",
"135 555 LINE"
);
},
{
closed = 0;
nodes = (
"463 555 LINE",
"463 0 LINE"
);
}
);
width = 603;
}
);
leftKerningGroup = n;
leftMetricsKey = "=|n";
rightKerningGroup = n;
rightMetricsKey = "=|n";
unicode = 0075;
},
{
glyphname = uacute;
layers = (
{
layerId = master01;
paths = (
{
closed = 0;
nodes = (
"463 140 LINE",
"423 72 OFFCURVE",
"351 0 OFFCURVE",
"262 0 CURVE SMOOTH",
"185 0 OFFCURVE",
"135 53 OFFCURVE",
"135 150 CURVE SMOOTH",
"135 555 LINE"
);
},
{
closed = 0;
nodes = (
"463 555 LINE",
"463 0 LINE"
);
},
{
closed = 0;
nodes = (
"234 657 LINE",
"369 790 LINE"
);
}
);
width = 603;
}
);
leftKerningGroup = n;
rightKerningGroup = n;
unicode = 00FA;
},
{
glyphname = ubreve;
layers = (
{
layerId = master01;
paths = (
{
closed = 0;
nodes = (
"463 140 LINE",
"423 72 OFFCURVE",
"351 0 OFFCURVE",
"262 0 CURVE SMOOTH",
"185 0 OFFCURVE",
"135 53 OFFCURVE",
"135 150 CURVE SMOOTH",
"135 555 LINE"
);
},
{
closed = 0;
nodes = (
"463 555 LINE",
"463 0 LINE"
);
},
{
closed = 0;
nodes = (
"182 762 LINE",
"182 707 OFFCURVE",
"234 680 OFFCURVE",
"300 680 CURVE SMOOTH",
"366 680 OFFCURVE",
"422 706 OFFCURVE",
"422 761 CURVE SMOOTH"
);
}
);
width = 603;
}
);
leftKerningGroup = n;
rightKerningGroup = n;
unicode = 016D;
},
{
glyphname = ucircumflex;
layers = (
{
layerId = master01;
paths = (
{
closed = 0;
nodes = (
"463 140 LINE",
"423 72 OFFCURVE",
"351 0 OFFCURVE",
"262 0 CURVE SMOOTH",
"185 0 OFFCURVE",
"135 53 OFFCURVE",
"135 150 CURVE SMOOTH",
"135 555 LINE"
);
},
{
closed = 0;
nodes = (
"463 555 LINE",
"463 0 LINE"
);
},
{
closed = 0;
nodes = (
"413 648 LINE",
"304 774 LINE",
"300 774 LINE",
"191 648 LINE"
);
}
);
width = 603;
}
);
leftKerningGroup = n;
rightKerningGroup = n;
unicode = 00FB;
},
{
glyphname = udieresis;
layers = (
{
layerId = master01;
paths = (
{
closed = 0;
nodes = (
"463 140 LINE",
"423 72 OFFCURVE",
"351 0 OFFCURVE",
"262 0 CURVE SMOOTH",
"185 0 OFFCURVE",
"135 53 OFFCURVE",
"135 150 CURVE SMOOTH",
"135 555 LINE"
);
},
{
closed = 0;
nodes = (
"463 555 LINE",
"463 0 LINE"
);
},
{
closed = 0;
nodes = (
"231 660 LINE",
"231 785 LINE"
);
},
{
closed = 0;
nodes = (
"373 660 LINE",
"373 785 LINE"
);
}
);
width = 603;
}
);
leftKerningGroup = n;
rightKerningGroup = n;
unicode = 00FC;
},
{
glyphname = ugrave;
layers = (
{
layerId = master01;
paths = (
{
closed = 0;
nodes = (
"463 140 LINE",
"423 72 OFFCURVE",
"351 0 OFFCURVE",
"262 0 CURVE SMOOTH",
"185 0 OFFCURVE",
"135 53 OFFCURVE",
"135 150 CURVE SMOOTH",
"135 555 LINE"
);
},
{
closed = 0;
nodes = (
"463 555 LINE",
"463 0 LINE"
);
},
{
closed = 0;
nodes = (
"234 791 LINE",
"369 658 LINE"
);
}
);
width = 603;
}
);
leftKerningGroup = n;
rightKerningGroup = n;
unicode = 00F9;
},
{
glyphname = uhungarumlaut;
layers = (
{
layerId = master01;
paths = (
{
closed = 0;
nodes = (
"463 140 LINE",
"423 72 OFFCURVE",
"351 0 OFFCURVE",
"262 0 CURVE SMOOTH",
"185 0 OFFCURVE",
"135 53 OFFCURVE",
"135 150 CURVE SMOOTH",
"135 555 LINE"
);
},
{
closed = 0;
nodes = (
"463 555 LINE",
"463 0 LINE"
);
},
{
closed = 0;
nodes = (
"175 657 LINE",
"302 782 LINE"
);
},
{
closed = 0;
nodes = (
"322 657 LINE",
"449 782 LINE"
);
}
);
width = 603;
}
);
leftKerningGroup = n;
rightKerningGroup = n;
unicode = 0171;
},
{
glyphname = umacron;
layers = (
{
layerId = master01;
paths = (
{
closed = 0;
nodes = (
"463 140 LINE",
"423 72 OFFCURVE",
"351 0 OFFCURVE",
"262 0 CURVE SMOOTH",
"185 0 OFFCURVE",
"135 53 OFFCURVE",
"135 150 CURVE SMOOTH",
"135 555 LINE"
);
},
{
closed = 0;
nodes = (
"463 555 LINE",
"463 0 LINE"
);
},
{
closed = 0;
nodes = (
"412 703 LINE",
"191 703 LINE"
);
}
);
width = 603;
}
);
leftKerningGroup = n;
rightKerningGroup = n;
unicode = 016B;
},
{
glyphname = uogonek;
layers = (
{
layerId = master01;
paths = (
{
closed = 0;
nodes = (
"463 140 LINE",
"423 72 OFFCURVE",
"351 0 OFFCURVE",
"262 0 CURVE SMOOTH",
"185 0 OFFCURVE",
"135 53 OFFCURVE",
"135 150 CURVE SMOOTH",
"135 555 LINE"
);
},
{
closed = 0;
nodes = (
"463 555 LINE",
"463 0 LINE"
);
},
{
closed = 0;
nodes = (
"504 -184 LINE SMOOTH",
"491 -192 OFFCURVE",
"466 -200 OFFCURVE",
"442 -200 CURVE SMOOTH",
"392 -200 OFFCURVE",
"365 -175 OFFCURVE",
"365 -130 CURVE SMOOTH",
"365 -87 OFFCURVE",
"416 -38 OFFCURVE",
"463 0 CURVE"
);
}
);
width = 603;
}
);
leftKerningGroup = n;
rightKerningGroup = n;
unicode = 0173;
},
{
glyphname = uring;
layers = (
{
layerId = master01;
paths = (
{
closed = 0;
nodes = (
"463 140 LINE",
"423 72 OFFCURVE",
"351 0 OFFCURVE",
"262 0 CURVE SMOOTH",
"185 0 OFFCURVE",
"135 53 OFFCURVE",
"135 150 CURVE SMOOTH",
"135 555 LINE"
);
},
{
closed = 0;
nodes = (
"463 555 LINE",
"463 0 LINE"
);
},
{
closed = 0;
nodes = (
"301 791 LINE",
"260 791 OFFCURVE",
"228 758 OFFCURVE",
"228 718 CURVE SMOOTH",
"228 678 OFFCURVE",
"261 645 OFFCURVE",
"301 645 CURVE SMOOTH",
"342 645 OFFCURVE",
"375 678 OFFCURVE",
"375 718 CURVE SMOOTH",
"375 758 OFFCURVE",
"342 791 OFFCURVE",
"301 791 CURVE"
);
}
);
width = 603;
}
);
leftKerningGroup = n;
rightKerningGroup = n;
unicode = 016F;
},
{
glyphname = utilde;
layers = (
{
layerId = master01;
paths = (
{
closed = 0;
nodes = (
"463 140 LINE",
"423 72 OFFCURVE",
"351 0 OFFCURVE",
"262 0 CURVE SMOOTH",
"185 0 OFFCURVE",
"135 53 OFFCURVE",
"135 150 CURVE SMOOTH",
"135 555 LINE"
);
},
{
closed = 0;
nodes = (
"463 555 LINE",
"463 0 LINE"
);
},
{
closed = 0;
nodes = (
"163 687 LINE",
"185 724 OFFCURVE",
"212 735 OFFCURVE",
"237 735 CURVE SMOOTH",
"284 735 OFFCURVE",
"314 687 OFFCURVE",
"367 687 CURVE SMOOTH",
"392 687 OFFCURVE",
"418 696 OFFCURVE",
"441 734 CURVE"
);
}
);
width = 603;
}
);
leftKerningGroup = n;
rightKerningGroup = n;
unicode = 0169;
},
{
glyphname = v;
layers = (
{
background = {
paths = (
{
closed = 0;
nodes = (
"60 555 LINE",
"268 0 LINE",
"274 0 LINE",
"479 555 LINE"
);
}
);
};
layerId = master01;
paths = (
{
closed = 0;
nodes = (
"60 555 LINE",
"268 0 LINE",
"274 0 LINE",
"479 555 LINE"
);
}
);
width = 539;
}
);
leftKerningGroup = v;
rightKerningGroup = v;
unicode = 0076;
},
{
glyphname = w;
layers = (
{
background = {
paths = (
{
closed = 0;
nodes = (
"70 555 LINE",
"237 0 LINE",
"241 0 LINE",
"408 545 LINE",
"412 545 LINE",
"584 0 LINE",
"588 0 LINE",
"747 555 LINE"
);
}
);
};
layerId = master01;
paths = (
{
closed = 0;
nodes = (
"70 555 LINE",
"237 0 LINE",
"241 0 LINE",
"408 545 LINE",
"412 545 LINE",
"584 0 LINE",
"588 0 LINE",
"747 555 LINE"
);
}
);
width = 817;
}
);
leftKerningGroup = w;
leftMetricsKey = "=v+10";
rightKerningGroup = w;
rightMetricsKey = "=v+10";
unicode = 0077;
},
{
glyphname = wacute;
layers = (
{
layerId = master01;
paths = (
{
closed = 0;
nodes = (
"70 555 LINE",
"237 0 LINE",
"241 0 LINE",
"408 545 LINE",
"412 545 LINE",
"584 0 LINE",
"588 0 LINE",
"747 555 LINE"
);
},
{
closed = 0;
nodes = (
"341 657 LINE",
"476 790 LINE"
);
}
);
width = 817;
}
);
leftKerningGroup = v;
rightKerningGroup = v;
unicode = 1E83;
},
{
glyphname = wcircumflex;
layers = (
{
layerId = master01;
paths = (
{
closed = 0;
nodes = (
"70 555 LINE",
"237 0 LINE",
"241 0 LINE",
"408 545 LINE",
"412 545 LINE",
"584 0 LINE",
"588 0 LINE",
"747 555 LINE"
);
},
{
closed = 0;
nodes = (
"520 648 LINE",
"411 774 LINE",
"407 774 LINE",
"298 648 LINE"
);
}
);
width = 817;
}
);
leftKerningGroup = v;
rightKerningGroup = v;
unicode = 0175;
},
{
glyphname = wdieresis;
layers = (
{
layerId = master01;
paths = (
{
closed = 0;
nodes = (
"70 555 LINE",
"237 0 LINE",
"241 0 LINE",
"408 545 LINE",
"412 545 LINE",
"584 0 LINE",
"588 0 LINE",
"747 555 LINE"
);
},
{
closed = 0;
nodes = (
"338 660 LINE",
"338 785 LINE"
);
},
{
closed = 0;
nodes = (
"480 660 LINE",
"480 785 LINE"
);
}
);
width = 817;
}
);
leftKerningGroup = v;
rightKerningGroup = v;
unicode = 1E85;
},
{
glyphname = wgrave;
layers = (
{
layerId = master01;
paths = (
{
closed = 0;
nodes = (
"70 555 LINE",
"237 0 LINE",
"241 0 LINE",
"408 545 LINE",
"412 545 LINE",
"584 0 LINE",
"588 0 LINE",
"747 555 LINE"
);
},
{
closed = 0;
nodes = (
"341 791 LINE",
"476 658 LINE"
);
}
);
width = 817;
}
);
leftKerningGroup = v;
rightKerningGroup = v;
unicode = 1E81;
},
{
glyphname = x;
layers = (
{
background = {
paths = (
{
closed = 0;
nodes = (
"70 0 LINE",
"458 555 LINE"
);
},
{
closed = 0;
nodes = (
"470 0 LINE",
"95 555 LINE"
);
}
);
};
layerId = master01;
paths = (
{
closed = 0;
nodes = (
"70 0 LINE",
"458 555 LINE"
);
},
{
closed = 0;
nodes = (
"470 0 LINE",
"95 555 LINE"
);
}
);
width = 540;
}
);
leftKerningGroup = x;
rightKerningGroup = x;
unicode = 0078;
},
{
glyphname = y;
layers = (
{
background = {
paths = (
{
closed = 0;
nodes = (
"103 -175 LINE",
"119 -185 OFFCURVE",
"138 -190 OFFCURVE",
"156 -190 CURVE SMOOTH",
"213 -190 OFFCURVE",
"242 -138 OFFCURVE",
"276 -16 CURVE",
"478 555 LINE"
);
},
{
closed = 0;
nodes = (
"276 -16 LINE",
"70 555 LINE"
);
}
);
};
layerId = master01;
paths = (
{
closed = 0;
nodes = (
"276 -16 LINE",
"70 555 LINE"
);
},
{
closed = 0;
nodes = (
"103 -175 LINE",
"119 -185 OFFCURVE",
"138 -190 OFFCURVE",
"156 -190 CURVE SMOOTH",
"213 -190 OFFCURVE",
"242 -138 OFFCURVE",
"276 -16 CURVE",
"478 555 LINE"
);
}
);
width = 538;
}
);
leftKerningGroup = v;
rightKerningGroup = v;
unicode = 0079;
},
{
glyphname = yacute;
layers = (
{
layerId = master01;
paths = (
{
closed = 0;
nodes = (
"276 -16 LINE",
"70 555 LINE"
);
},
{
closed = 0;
nodes = (
"103 -175 LINE",
"119 -185 OFFCURVE",
"138 -190 OFFCURVE",
"156 -190 CURVE SMOOTH",
"213 -190 OFFCURVE",
"242 -138 OFFCURVE",
"276 -16 CURVE",
"478 555 LINE"
);
},
{
closed = 0;
nodes = (
"201 657 LINE",
"336 790 LINE"
);
}
);
width = 538;
}
);
leftKerningGroup = v;
rightKerningGroup = v;
unicode = 00FD;
},
{
glyphname = ycircumflex;
layers = (
{
layerId = master01;
paths = (
{
closed = 0;
nodes = (
"276 -16 LINE",
"70 555 LINE"
);
},
{
closed = 0;
nodes = (
"103 -175 LINE",
"119 -185 OFFCURVE",
"138 -190 OFFCURVE",
"156 -190 CURVE SMOOTH",
"213 -190 OFFCURVE",
"242 -138 OFFCURVE",
"276 -16 CURVE",
"478 555 LINE"
);
},
{
closed = 0;
nodes = (
"380 648 LINE",
"271 774 LINE",
"267 774 LINE",
"158 648 LINE"
);
}
);
width = 538;
}
);
leftKerningGroup = v;
rightKerningGroup = v;
unicode = 0177;
},
{
glyphname = ydieresis;
layers = (
{
layerId = master01;
paths = (
{
closed = 0;
nodes = (
"276 -16 LINE",
"70 555 LINE"
);
},
{
closed = 0;
nodes = (
"103 -175 LINE",
"119 -185 OFFCURVE",
"138 -190 OFFCURVE",
"156 -190 CURVE SMOOTH",
"213 -190 OFFCURVE",
"242 -138 OFFCURVE",
"276 -16 CURVE",
"478 555 LINE"
);
},
{
closed = 0;
nodes = (
"198 660 LINE",
"198 785 LINE"
);
},
{
closed = 0;
nodes = (
"340 660 LINE",
"340 785 LINE"
);
}
);
width = 538;
}
);
leftKerningGroup = v;
rightKerningGroup = v;
unicode = 00FF;
},
{
glyphname = ygrave;
layers = (
{
layerId = master01;
paths = (
{
closed = 0;
nodes = (
"276 -16 LINE",
"70 555 LINE"
);
},
{
closed = 0;
nodes = (
"103 -175 LINE",
"119 -185 OFFCURVE",
"138 -190 OFFCURVE",
"156 -190 CURVE SMOOTH",
"213 -190 OFFCURVE",
"242 -138 OFFCURVE",
"276 -16 CURVE",
"478 555 LINE"
);
},
{
closed = 0;
nodes = (
"201 791 LINE",
"336 658 LINE"
);
}
);
width = 538;
}
);
leftKerningGroup = v;
rightKerningGroup = v;
unicode = 1EF3;
},
{
glyphname = z;
layers = (
{
background = {
paths = (
{
closed = 0;
nodes = (
"450 10 LINE",
"90 10 LINE",
"90 14 LINE",
"435 541 LINE",
"435 545 LINE",
"93 545 LINE"
);
}
);
};
layerId = master01;
paths = (
{
closed = 0;
nodes = (
"450 10 LINE",
"90 10 LINE",
"90 14 LINE",
"435 541 LINE",
"435 545 LINE",
"93 545 LINE"
);
}
);
width = 530;
}
);
leftKerningGroup = z;
rightKerningGroup = z;
unicode = 007A;
},
{
glyphname = zacute;
layers = (
{
layerId = master01;
paths = (
{
closed = 0;
nodes = (
"450 10 LINE",
"90 10 LINE",
"90 14 LINE",
"435 541 LINE",
"435 545 LINE",
"93 545 LINE"
);
},
{
closed = 0;
nodes = (
"191 657 LINE",
"326 790 LINE"
);
}
);
width = 530;
}
);
leftKerningGroup = z;
rightKerningGroup = z;
unicode = 017A;
},
{
glyphname = zcaron;
layers = (
{
layerId = master01;
paths = (
{
closed = 0;
nodes = (
"450 10 LINE",
"90 10 LINE",
"90 14 LINE",
"435 541 LINE",
"435 545 LINE",
"93 545 LINE"
);
},
{
closed = 0;
nodes = (
"148 776 LINE",
"257 650 LINE",
"261 650 LINE",
"370 776 LINE"
);
}
);
width = 530;
}
);
leftKerningGroup = z;
rightKerningGroup = z;
unicode = 017E;
},
{
glyphname = zdotaccent;
layers = (
{
layerId = master01;
paths = (
{
closed = 0;
nodes = (
"450 10 LINE",
"90 10 LINE",
"90 14 LINE",
"435 541 LINE",
"435 545 LINE",
"93 545 LINE"
);
},
{
closed = 0;
nodes = (
"259 678 LINE",
"259 785 LINE"
);
}
);
width = 530;
}
);
leftKerningGroup = z;
rightKerningGroup = z;
unicode = 017C;
},
{
glyphname = g.ss01;
layers = (
{
background = {
paths = (
{
closed = 0;
nodes = (
"219 93 LINE",
"143 63 OFFCURVE",
"80 -6 OFFCURVE",
"80 -68 CURVE SMOOTH",
"80 -151 OFFCURVE",
"161 -190 OFFCURVE",
"277 -190 CURVE SMOOTH",
"402 -190 OFFCURVE",
"487 -142 OFFCURVE",
"487 -59 CURVE SMOOTH",
"487 109 OFFCURVE",
"152 44 OFFCURVE",
"152 158 CURVE SMOOTH",
"152 186 OFFCURVE",
"173 216 OFFCURVE",
"220 239 CURVE"
);
},
{
closed = 0;
nodes = (
"273 555 LINE",
"177 555 OFFCURVE",
"101 495 OFFCURVE",
"101 394 CURVE SMOOTH",
"101 297 OFFCURVE",
"168 235 OFFCURVE",
"275 235 CURVE SMOOTH",
"380 235 OFFCURVE",
"449 294 OFFCURVE",
"449 391 CURVE SMOOTH",
"449 503 OFFCURVE",
"363 555 OFFCURVE",
"275 555 CURVE"
);
},
{
closed = 0;
nodes = (
"344 543 LINE",
"517 543 LINE"
);
}
);
};
layerId = master01;
paths = (
{
closed = 0;
nodes = (
"219 93 LINE",
"143 63 OFFCURVE",
"80 -6 OFFCURVE",
"80 -68 CURVE SMOOTH",
"80 -151 OFFCURVE",
"161 -190 OFFCURVE",
"277 -190 CURVE SMOOTH",
"402 -190 OFFCURVE",
"487 -142 OFFCURVE",
"487 -59 CURVE SMOOTH",
"487 109 OFFCURVE",
"152 44 OFFCURVE",
"152 158 CURVE SMOOTH",
"152 186 OFFCURVE",
"173 216 OFFCURVE",
"220 239 CURVE"
);
},
{
closed = 0;
nodes = (
"273 555 LINE",
"177 555 OFFCURVE",
"101 495 OFFCURVE",
"101 394 CURVE SMOOTH",
"101 297 OFFCURVE",
"168 235 OFFCURVE",
"275 235 CURVE SMOOTH",
"380 235 OFFCURVE",
"449 294 OFFCURVE",
"449 391 CURVE SMOOTH",
"449 503 OFFCURVE",
"363 555 OFFCURVE",
"275 555 CURVE"
);
},
{
closed = 0;
nodes = (
"344 543 LINE",
"517 543 LINE"
);
}
);
width = 562;
}
);
leftKerningGroup = g.ss01;
rightKerningGroup = g.ss01;
},
{
glyphname = gbreve.ss01;
layers = (
{
layerId = master01;
paths = (
{
closed = 0;
nodes = (
"219 93 LINE",
"143 63 OFFCURVE",
"80 -6 OFFCURVE",
"80 -68 CURVE SMOOTH",
"80 -151 OFFCURVE",
"161 -190 OFFCURVE",
"277 -190 CURVE SMOOTH",
"402 -190 OFFCURVE",
"487 -142 OFFCURVE",
"487 -59 CURVE SMOOTH",
"487 109 OFFCURVE",
"152 44 OFFCURVE",
"152 158 CURVE SMOOTH",
"152 186 OFFCURVE",
"173 216 OFFCURVE",
"220 239 CURVE"
);
},
{
closed = 0;
nodes = (
"273 555 LINE",
"177 555 OFFCURVE",
"101 495 OFFCURVE",
"101 394 CURVE SMOOTH",
"101 297 OFFCURVE",
"168 235 OFFCURVE",
"275 235 CURVE SMOOTH",
"380 235 OFFCURVE",
"449 294 OFFCURVE",
"449 391 CURVE SMOOTH",
"449 503 OFFCURVE",
"363 555 OFFCURVE",
"275 555 CURVE"
);
},
{
closed = 0;
nodes = (
"344 543 LINE",
"517 543 LINE"
);
},
{
closed = 0;
nodes = (
"159 762 LINE",
"159 707 OFFCURVE",
"211 680 OFFCURVE",
"277 680 CURVE SMOOTH",
"343 680 OFFCURVE",
"399 706 OFFCURVE",
"399 761 CURVE SMOOTH"
);
}
);
width = 562;
}
);
leftKerningGroup = g.ss01;
rightKerningGroup = g.ss01;
},
{
glyphname = gcircumflex.ss01;
layers = (
{
layerId = master01;
paths = (
{
closed = 0;
nodes = (
"219 93 LINE",
"143 63 OFFCURVE",
"80 -6 OFFCURVE",
"80 -68 CURVE SMOOTH",
"80 -151 OFFCURVE",
"161 -190 OFFCURVE",
"277 -190 CURVE SMOOTH",
"402 -190 OFFCURVE",
"487 -142 OFFCURVE",
"487 -59 CURVE SMOOTH",
"487 109 OFFCURVE",
"152 44 OFFCURVE",
"152 158 CURVE SMOOTH",
"152 186 OFFCURVE",
"173 216 OFFCURVE",
"220 239 CURVE"
);
},
{
closed = 0;
nodes = (
"273 555 LINE",
"177 555 OFFCURVE",
"101 495 OFFCURVE",
"101 394 CURVE SMOOTH",
"101 297 OFFCURVE",
"168 235 OFFCURVE",
"275 235 CURVE SMOOTH",
"380 235 OFFCURVE",
"449 294 OFFCURVE",
"449 391 CURVE SMOOTH",
"449 503 OFFCURVE",
"363 555 OFFCURVE",
"275 555 CURVE"
);
},
{
closed = 0;
nodes = (
"344 543 LINE",
"517 543 LINE"
);
},
{
closed = 0;
nodes = (
"390 648 LINE",
"281 774 LINE",
"277 774 LINE",
"168 648 LINE"
);
}
);
width = 562;
}
);
leftKerningGroup = g.ss01;
rightKerningGroup = g.ss01;
},
{
glyphname = gcommaaccent.ss01;
layers = (
{
layerId = master01;
paths = (
{
closed = 0;
nodes = (
"219 93 LINE",
"143 63 OFFCURVE",
"80 -6 OFFCURVE",
"80 -68 CURVE SMOOTH",
"80 -151 OFFCURVE",
"161 -190 OFFCURVE",
"277 -190 CURVE SMOOTH",
"402 -190 OFFCURVE",
"487 -142 OFFCURVE",
"487 -59 CURVE SMOOTH",
"487 109 OFFCURVE",
"152 44 OFFCURVE",
"152 158 CURVE SMOOTH",
"152 186 OFFCURVE",
"173 216 OFFCURVE",
"220 239 CURVE"
);
},
{
closed = 0;
nodes = (
"273 555 LINE",
"177 555 OFFCURVE",
"101 495 OFFCURVE",
"101 394 CURVE SMOOTH",
"101 297 OFFCURVE",
"168 235 OFFCURVE",
"275 235 CURVE SMOOTH",
"380 235 OFFCURVE",
"449 294 OFFCURVE",
"449 391 CURVE SMOOTH",
"449 503 OFFCURVE",
"363 555 OFFCURVE",
"275 555 CURVE"
);
},
{
closed = 0;
nodes = (
"344 543 LINE",
"517 543 LINE"
);
},
{
closed = 0;
nodes = (
"318 802 LINE",
"240 647 LINE"
);
}
);
width = 562;
}
);
leftKerningGroup = g.ss01;
rightKerningGroup = g.ss01;
},
{
glyphname = gdotaccent.ss01;
layers = (
{
layerId = master01;
paths = (
{
closed = 0;
nodes = (
"219 93 LINE",
"143 63 OFFCURVE",
"80 -6 OFFCURVE",
"80 -68 CURVE SMOOTH",
"80 -151 OFFCURVE",
"161 -190 OFFCURVE",
"277 -190 CURVE SMOOTH",
"402 -190 OFFCURVE",
"487 -142 OFFCURVE",
"487 -59 CURVE SMOOTH",
"487 109 OFFCURVE",
"152 44 OFFCURVE",
"152 158 CURVE SMOOTH",
"152 186 OFFCURVE",
"173 216 OFFCURVE",
"220 239 CURVE"
);
},
{
closed = 0;
nodes = (
"273 555 LINE",
"177 555 OFFCURVE",
"101 495 OFFCURVE",
"101 394 CURVE SMOOTH",
"101 297 OFFCURVE",
"168 235 OFFCURVE",
"275 235 CURVE SMOOTH",
"380 235 OFFCURVE",
"449 294 OFFCURVE",
"449 391 CURVE SMOOTH",
"449 503 OFFCURVE",
"363 555 OFFCURVE",
"275 555 CURVE"
);
},
{
closed = 0;
nodes = (
"344 543 LINE",
"517 543 LINE"
);
},
{
closed = 0;
nodes = (
"279 678 LINE",
"279 785 LINE"
);
}
);
width = 562;
}
);
leftKerningGroup = g.ss01;
rightKerningGroup = g.ss01;
},
{
glyphname = l.ss02;
layers = (
{
layerId = master01;
paths = (
{
closed = 0;
nodes = (
"140 0 LINE",
"140 745 LINE"
);
}
);
width = 270;
},
{
associatedMasterId = master01;
layerId = "54D47EC0-96E3-44B7-8B3E-D4EB5EBE61A2";
name = "21 nov. 21 à 22:11";
paths = (
{
closed = 0;
nodes = (
"140 0 LINE",
"140 745 LINE",
"86 745 LINE"
);
}
);
width = 270;
}
);
leftKerningGroup = h;
leftMetricsKey = n;
rightKerningGroup = l.ss02;
},
{
glyphname = lacute.ss02;
layers = (
{
layerId = master01;
paths = (
{
closed = 0;
nodes = (
"140 0 LINE",
"140 745 LINE"
);
},
{
closed = 0;
nodes = (
"141 847 LINE",
"276 980 LINE"
);
}
);
width = 270;
}
);
leftKerningGroup = h;
rightKerningGroup = l.ss02;
},
{
glyphname = lcaron.ss02;
layers = (
{
layerId = master01;
paths = (
{
closed = 0;
nodes = (
"140 0 LINE",
"140 745 LINE"
);
},
{
closed = 0;
nodes = (
"233 578 LINE",
"290 661 LINE",
"290 745 LINE"
);
}
);
width = 270;
}
);
leftKerningGroup = h;
rightKerningGroup = l.ss02;
},
{
glyphname = lcommaaccent.ss02;
layers = (
{
layerId = master01;
paths = (
{
closed = 0;
nodes = (
"140 0 LINE",
"140 745 LINE"
);
},
{
closed = 0;
nodes = (
"60 -240 LINE",
"138 -85 LINE"
);
}
);
width = 270;
}
);
leftKerningGroup = h;
rightKerningGroup = l.ss02;
},
{
color = 6;
glyphname = ldot.ss02;
layers = (
{
layerId = master01;
paths = (
{
closed = 0;
nodes = (
"140 0 LINE",
"140 745 LINE"
);
},
{
closed = 0;
nodes = (
"300 375 LINE",
"300 265 LINE"
);
}
);
width = 315;
}
);
leftKerningGroup = h;
},
{
glyphname = lslash.ss02;
layers = (
{
layerId = master01;
paths = (
{
closed = 0;
nodes = (
"35 327 LINE",
"257 407 LINE"
);
},
{
closed = 0;
nodes = (
"140 0 LINE",
"140 745 LINE"
);
}
);
width = 307;
}
);
leftKerningGroup = h;
rightKerningGroup = l.ss02;
},
{
glyphname = y.ss03;
layers = (
{
background = {
paths = (
{
closed = 0;
nodes = (
"466 155 LINE",
"426 87 OFFCURVE",
"354 20 OFFCURVE",
"266 20 CURVE SMOOTH",
"188 20 OFFCURVE",
"138 73 OFFCURVE",
"138 170 CURVE SMOOTH",
"138 555 LINE"
);
}
);
};
layerId = master01;
paths = (
{
closed = 0;
nodes = (
"466 155 LINE",
"426 87 OFFCURVE",
"354 20 OFFCURVE",
"266 20 CURVE SMOOTH",
"188 20 OFFCURVE",
"138 73 OFFCURVE",
"138 170 CURVE SMOOTH",
"138 555 LINE"
);
},
{
closed = 0;
nodes = (
"120 -107 LINE",
"154 -164 OFFCURVE",
"211 -190 OFFCURVE",
"285 -190 CURVE SMOOTH",
"400 -190 OFFCURVE",
"466 -126 OFFCURVE",
"466 -2 CURVE SMOOTH",
"466 555 LINE"
);
}
);
width = 606;
}
);
leftKerningGroup = n;
rightKerningGroup = n;
rightMetricsKey = "=|n";
},
{
glyphname = yacute.ss03;
layers = (
{
layerId = master01;
paths = (
{
closed = 0;
nodes = (
"466 155 LINE",
"426 87 OFFCURVE",
"354 20 OFFCURVE",
"266 20 CURVE SMOOTH",
"188 20 OFFCURVE",
"138 73 OFFCURVE",
"138 170 CURVE SMOOTH",
"138 555 LINE"
);
},
{
closed = 0;
nodes = (
"120 -107 LINE",
"154 -164 OFFCURVE",
"211 -190 OFFCURVE",
"285 -190 CURVE SMOOTH",
"400 -190 OFFCURVE",
"466 -126 OFFCURVE",
"466 -2 CURVE SMOOTH",
"466 555 LINE"
);
},
{
closed = 0;
nodes = (
"226 657 LINE",
"361 790 LINE"
);
}
);
width = 606;
}
);
leftKerningGroup = n;
rightKerningGroup = n;
},
{
glyphname = ycircumflex.ss03;
layers = (
{
layerId = master01;
paths = (
{
closed = 0;
nodes = (
"466 155 LINE",
"426 87 OFFCURVE",
"354 20 OFFCURVE",
"266 20 CURVE SMOOTH",
"188 20 OFFCURVE",
"138 73 OFFCURVE",
"138 170 CURVE SMOOTH",
"138 555 LINE"
);
},
{
closed = 0;
nodes = (
"120 -107 LINE",
"154 -164 OFFCURVE",
"211 -190 OFFCURVE",
"285 -190 CURVE SMOOTH",
"400 -190 OFFCURVE",
"466 -126 OFFCURVE",
"466 -2 CURVE SMOOTH",
"466 555 LINE"
);
},
{
closed = 0;
nodes = (
"405 648 LINE",
"296 774 LINE",
"292 774 LINE",
"183 648 LINE"
);
}
);
width = 606;
}
);
leftKerningGroup = n;
rightKerningGroup = n;
},
{
glyphname = ydieresis.ss03;
layers = (
{
layerId = master01;
paths = (
{
closed = 0;
nodes = (
"466 155 LINE",
"426 87 OFFCURVE",
"354 20 OFFCURVE",
"266 20 CURVE SMOOTH",
"188 20 OFFCURVE",
"138 73 OFFCURVE",
"138 170 CURVE SMOOTH",
"138 555 LINE"
);
},
{
closed = 0;
nodes = (
"120 -107 LINE",
"154 -164 OFFCURVE",
"211 -190 OFFCURVE",
"285 -190 CURVE SMOOTH",
"400 -190 OFFCURVE",
"466 -126 OFFCURVE",
"466 -2 CURVE SMOOTH",
"466 555 LINE"
);
},
{
closed = 0;
nodes = (
"223 660 LINE",
"223 785 LINE"
);
},
{
closed = 0;
nodes = (
"365 660 LINE",
"365 785 LINE"
);
}
);
width = 606;
}
);
leftKerningGroup = n;
rightKerningGroup = n;
},
{
glyphname = ygrave.ss03;
layers = (
{
layerId = master01;
paths = (
{
closed = 0;
nodes = (
"466 155 LINE",
"426 87 OFFCURVE",
"354 20 OFFCURVE",
"266 20 CURVE SMOOTH",
"188 20 OFFCURVE",
"138 73 OFFCURVE",
"138 170 CURVE SMOOTH",
"138 555 LINE"
);
},
{
closed = 0;
nodes = (
"120 -107 LINE",
"154 -164 OFFCURVE",
"211 -190 OFFCURVE",
"285 -190 CURVE SMOOTH",
"400 -190 OFFCURVE",
"466 -126 OFFCURVE",
"466 -2 CURVE SMOOTH",
"466 555 LINE"
);
},
{
closed = 0;
nodes = (
"226 791 LINE",
"361 658 LINE"
);
}
);
width = 606;
}
);
leftKerningGroup = n;
rightKerningGroup = n;
},
{
color = 1;
glyphname = ldot.ss04;
layers = (
{
layerId = master01;
paths = (
{
closed = 0;
nodes = (
"252 4 LINE",
"245 2 OFFCURVE",
"234 0 OFFCURVE",
"221 0 CURVE SMOOTH",
"164 0 OFFCURVE",
"135 35 OFFCURVE",
"135 107 CURVE SMOOTH",
"135 745 LINE"
);
},
{
closed = 0;
nodes = (
"327 357 LINE",
"304 357 OFFCURVE",
"287 339 OFFCURVE",
"287 316 CURVE SMOOTH",
"287 293 OFFCURVE",
"305 275 OFFCURVE",
"328 275 CURVE SMOOTH",
"351 275 OFFCURVE",
"368 293 OFFCURVE",
"368 316 CURVE SMOOTH",
"368 339 OFFCURVE",
"351 357 OFFCURVE",
"329 357 CURVE"
);
}
);
width = 373;
}
);
leftKerningGroup = h;
leftMetricsKey = "=|n";
rightKerningGroup = l;
},
{
color = 1;
glyphname = ldot.ss02.ss04;
layers = (
{
layerId = master01;
paths = (
{
closed = 0;
nodes = (
"140 0 LINE",
"140 745 LINE"
);
},
{
closed = 0;
nodes = (
"310 357 LINE",
"287 357 OFFCURVE",
"270 339 OFFCURVE",
"270 316 CURVE SMOOTH",
"270 293 OFFCURVE",
"288 275 OFFCURVE",
"311 275 CURVE SMOOTH",
"334 275 OFFCURVE",
"351 293 OFFCURVE",
"351 316 CURVE SMOOTH",
"351 339 OFFCURVE",
"334 357 OFFCURVE",
"312 357 CURVE"
);
}
);
width = 341;
}
);
leftKerningGroup = h;
},
{
color = 9;
glyphname = ldot.ss05;
layers = (
{
layerId = master01;
paths = (
{
closed = 0;
nodes = (
"252 4 LINE",
"245 2 OFFCURVE",
"234 0 OFFCURVE",
"221 0 CURVE SMOOTH",
"164 0 OFFCURVE",
"135 35 OFFCURVE",
"135 107 CURVE SMOOTH",
"135 745 LINE"
);
},
{
closed = 0;
nodes = (
"336 285 LINE",
"336 352 LINE",
"282 352 LINE"
);
}
);
width = 371;
}
);
leftKerningGroup = h;
leftMetricsKey = "=|n";
rightKerningGroup = l;
},
{
color = 9;
glyphname = ldot.ss02.ss05;
layers = (
{
layerId = master01;
paths = (
{
closed = 0;
nodes = (
"140 0 LINE",
"140 745 LINE"
);
},
{
closed = 0;
nodes = (
"324 285 LINE",
"324 352 LINE",
"270 352 LINE"
);
}
);
width = 339;
}
);
leftKerningGroup = h;
},
{
glyphname = fi;
layers = (
{
background = {
components = (
{
name = n;
transform = "{1, 0, 0, 1, 10, 0}";
}
);
};
guideLines = (
{
position = "{48, 697}";
},
{
position = "{48, 1971}";
}
);
layerId = master01;
paths = (
{
closed = 0;
nodes = (
"150 0 LINE",
"150 619 LINE SMOOTH",
"150 696 OFFCURVE",
"187 745 OFFCURVE",
"258 745 CURVE SMOOTH",
"285 745 OFFCURVE",
"309 738 OFFCURVE",
"328 724 CURVE"
);
},
{
closed = 0;
nodes = (
"50 500 LINE",
"297 500 LINE"
);
},
{
closed = 0;
nodes = (
"473 0 LINE",
"473 555 LINE"
);
},
{
closed = 0;
nodes = (
"473 678 LINE",
"473 785 LINE"
);
}
);
userData = {
com.schriftgestaltung.Glyphs.lastChange = "2021-03-17 07:33:32 +0000";
};
width = 613;
}
);
leftKerningGroup = f;
leftMetricsKey = f;
rightKerningGroup = i;
rightMetricsKey = i;
unicode = FB01;
},
{
glyphname = fl;
layers = (
{
background = {
components = (
{
name = n;
transform = "{1, 0, 0, 1, 10, 0}";
}
);
};
guideLines = (
{
position = "{48, 697}";
}
);
layerId = master01;
paths = (
{
closed = 0;
nodes = (
"150 0 LINE",
"150 619 LINE SMOOTH",
"150 696 OFFCURVE",
"187 745 OFFCURVE",
"258 745 CURVE SMOOTH",
"285 745 OFFCURVE",
"309 738 OFFCURVE",
"328 724 CURVE"
);
},
{
closed = 0;
nodes = (
"50 500 LINE",
"297 500 LINE"
);
},
{
closed = 0;
nodes = (
"590 4 LINE",
"583 2 OFFCURVE",
"572 0 OFFCURVE",
"559 0 CURVE SMOOTH",
"502 0 OFFCURVE",
"473 35 OFFCURVE",
"473 107 CURVE SMOOTH",
"473 745 LINE"
);
}
);
userData = {
com.schriftgestaltung.Glyphs.lastChange = "2021-03-17 07:33:32 +0000";
};
width = 645;
}
);
leftKerningGroup = f;
leftMetricsKey = f;
rightKerningGroup = l;
rightMetricsKey = l;
unicode = FB02;
},
{
glyphname = fl.ss02;
layers = (
{
background = {
components = (
{
name = n;
transform = "{1, 0, 0, 1, 10, 0}";
}
);
};
guideLines = (
{
position = "{48, 697}";
}
);
layerId = master01;
paths = (
{
closed = 0;
nodes = (
"150 0 LINE",
"150 619 LINE SMOOTH",
"150 696 OFFCURVE",
"187 745 OFFCURVE",
"258 745 CURVE SMOOTH",
"285 745 OFFCURVE",
"309 738 OFFCURVE",
"328 724 CURVE"
);
},
{
closed = 0;
nodes = (
"50 500 LINE",
"297 500 LINE"
);
},
{
closed = 0;
nodes = (
"473 0 LINE",
"473 745 LINE"
);
}
);
userData = {
com.schriftgestaltung.Glyphs.lastChange = "2021-03-17 07:33:32 +0000";
};
width = 603;
}
);
leftKerningGroup = f;
leftMetricsKey = f;
rightKerningGroup = l.ss02;
rightMetricsKey = l.ss02;
},
{
glyphname = ordfeminine;
layers = (
{
layerId = master01;
paths = (
{
closed = 0;
nodes = (
"258 532 LINE",
"222 532 LINE SMOOTH",
"100 532 OFFCURVE",
"50 500 OFFCURVE",
"50 432 CURVE SMOOTH",
"50 388 OFFCURVE",
"76 347 OFFCURVE",
"133 347 CURVE SMOOTH",
"185 347 OFFCURVE",
"225 381 OFFCURVE",
"258 425 CURVE SMOOTH"
);
},
{
closed = 0;
nodes = (
"261 347 LINE",
"259 369 OFFCURVE",
"258 405 OFFCURVE",
"258 430 CURVE SMOOTH",
"258 574 LINE SMOOTH",
"258 632 OFFCURVE",
"235 680 OFFCURVE",
"165 680 CURVE SMOOTH",
"114 680 OFFCURVE",
"84 657 OFFCURVE",
"64 611 CURVE"
);
}
);
width = 331;
}
);
leftKerningGroup = ordfeminine;
rightKerningGroup = ordfeminine;
unicode = 00AA;
},
{
glyphname = ordmasculine;
layers = (
{
layerId = master01;
paths = (
{
closed = 0;
nodes = (
"173 680 LINE",
"75 680 OFFCURVE",
"50 577 OFFCURVE",
"50 512 CURVE SMOOTH",
"50 431 OFFCURVE",
"87 347 OFFCURVE",
"174 347 CURVE SMOOTH",
"260 347 OFFCURVE",
"297 431 OFFCURVE",
"297 512 CURVE SMOOTH",
"297 577 OFFCURVE",
"273 680 OFFCURVE",
"174 680 CURVE"
);
}
);
width = 347;
}
);
leftKerningGroup = ordmasculine;
rightKerningGroup = ordmasculine;
unicode = 00BA;
},
{
glyphname = Delta;
layers = (
{
background = {
paths = (
{
closed = 0;
nodes = (
"100 8 LINE",
"100 0 LINE",
"600 0 LINE",
"600 10 LINE",
"355 675 LINE",
"345 675 LINE",
"100 10 LINE"
);
}
);
};
layerId = master01;
paths = (
{
closed = 0;
nodes = (
"100 18 LINE",
"100 10 LINE",
"600 10 LINE",
"600 20 LINE",
"355 675 LINE",
"345 675 LINE",
"100 20 LINE"
);
}
);
width = 700;
}
);
leftKerningGroup = A;
rightKerningGroup = A;
unicode = 03B4;
},
{
glyphname = pi;
layers = (
{
layerId = master01;
paths = (
{
closed = 0;
nodes = (
"181 0 LINE",
"181 545 LINE"
);
},
{
closed = 0;
nodes = (
"560 4 LINE SMOOTH",
"553 2 OFFCURVE",
"542 0 OFFCURVE",
"529 0 CURVE SMOOTH",
"472 0 OFFCURVE",
"443 35 OFFCURVE",
"443 107 CURVE SMOOTH",
"443 545 LINE"
);
},
{
closed = 0;
nodes = (
"564 545 LINE",
"70 545 LINE"
);
}
);
width = 644;
}
);
leftKerningGroup = pi;
rightKerningGroup = pi;
unicode = 03C0;
},
{
glyphname = Omega;
layers = (
{
background = {
paths = (
{
closed = 0;
nodes = (
"643 10 LINE",
"468 10 LINE",
"468 32 LINE",
"545 103 OFFCURVE",
"620 212 OFFCURVE",
"620 367 CURVE SMOOTH",
"620 548 OFFCURVE",
"520 680 OFFCURVE",
"372 680 CURVE SMOOTH",
"224 680 OFFCURVE",
"126 548 OFFCURVE",
"126 367 CURVE SMOOTH",
"126 212 OFFCURVE",
"198 103 OFFCURVE",
"275 32 CURVE",
"275 10 LINE",
"100 10 LINE"
);
}
);
};
layerId = master01;
paths = (
{
closed = 0;
nodes = (
"643 10 LINE",
"468 10 LINE",
"468 32 LINE",
"545 103 OFFCURVE",
"620 212 OFFCURVE",
"620 367 CURVE SMOOTH",
"620 548 OFFCURVE",
"520 680 OFFCURVE",
"372 680 CURVE SMOOTH",
"224 680 OFFCURVE",
"126 548 OFFCURVE",
"126 367 CURVE SMOOTH",
"126 212 OFFCURVE",
"198 103 OFFCURVE",
"275 32 CURVE",
"275 10 LINE",
"100 10 LINE"
);
}
);
width = 743;
}
);
leftKerningGroup = O;
rightKerningGroup = O;
unicode = 03C9;
},
{
glyphname = zero;
layers = (
{
background = {
paths = (
{
closed = 0;
nodes = (
"310 680 LINE",
"162 680 OFFCURVE",
"90 527 OFFCURVE",
"90 337 CURVE SMOOTH",
"90 145 OFFCURVE",
"162 0 OFFCURVE",
"311 0 CURVE SMOOTH",
"460 0 OFFCURVE",
"532 145 OFFCURVE",
"532 337 CURVE SMOOTH",
"532 527 OFFCURVE",
"460 680 OFFCURVE",
"312 680 CURVE"
);
}
);
};
layerId = master01;
paths = (
{
closed = 0;
nodes = (
"310 680 LINE",
"162 680 OFFCURVE",
"90 527 OFFCURVE",
"90 337 CURVE SMOOTH",
"90 145 OFFCURVE",
"162 0 OFFCURVE",
"311 0 CURVE SMOOTH",
"460 0 OFFCURVE",
"532 145 OFFCURVE",
"532 337 CURVE SMOOTH",
"532 527 OFFCURVE",
"460 680 OFFCURVE",
"312 680 CURVE"
);
}
);
width = 622;
}
);
leftKerningGroup = zero;
rightKerningGroup = zero;
unicode = 0030;
},
{
glyphname = one;
layers = (
{
associatedMasterId = master01;
background = {
paths = (
{
closed = 0;
nodes = (
"269 0 LINE",
"269 670 LINE",
"265 670 LINE",
"51 519 LINE"
);
}
);
};
layerId = "6EDA8715-3519-4E02-AC51-65A998ED1B68";
name = "Aug 5 21, 22:11";
paths = (
{
closed = 0;
nodes = (
"269 0 LINE",
"269 670 LINE",
"265 670 LINE",
"60 521 LINE"
);
}
);
width = 419;
},
{
layerId = master01;
paths = (
{
closed = 0;
nodes = (
"288 0 LINE",
"288 670 LINE",
"284 670 LINE",
"70 519 LINE"
);
}
);
width = 448;
}
);
leftKerningGroup = one;
rightKerningGroup = H;
unicode = 0031;
},
{
glyphname = two;
layers = (
{
background = {
paths = (
{
closed = 0;
nodes = (
"465 0 LINE",
"65 0 LINE",
"65 4 LINE",
"288 249 LINE SMOOTH",
"364 333 OFFCURVE",
"440 412 OFFCURVE",
"440 519 CURVE SMOOTH",
"440 628 OFFCURVE",
"361 680 OFFCURVE",
"274 680 CURVE SMOOTH",
"186 680 OFFCURVE",
"113 628 OFFCURVE",
"84 542 CURVE"
);
}
);
};
layerId = master01;
paths = (
{
closed = 0;
nodes = (
"465 0 LINE",
"65 0 LINE",
"65 4 LINE",
"288 249 LINE SMOOTH",
"364 333 OFFCURVE",
"440 412 OFFCURVE",
"440 519 CURVE SMOOTH",
"440 628 OFFCURVE",
"361 680 OFFCURVE",
"274 680 CURVE SMOOTH",
"186 680 OFFCURVE",
"113 628 OFFCURVE",
"84 542 CURVE"
);
}
);
width = 550;
}
);
leftKerningGroup = two;
rightKerningGroup = two;
unicode = 0032;
},
{
glyphname = three;
layers = (
{
background = {
paths = (
{
closed = 0;
nodes = (
"75 123 LINE",
"94 49 OFFCURVE",
"166 -1 OFFCURVE",
"263 -1 CURVE SMOOTH",
"381 -1 OFFCURVE",
"456 73 OFFCURVE",
"456 175 CURVE SMOOTH",
"456 264 OFFCURVE",
"400 359 OFFCURVE",
"249 359 CURVE",
"218 359 LINE"
);
},
{
closed = 0;
nodes = (
"249 359 LINE",
"383 359 OFFCURVE",
"446 436 OFFCURVE",
"446 526 CURVE SMOOTH",
"446 608 OFFCURVE",
"392 680 OFFCURVE",
"273 680 CURVE SMOOTH",
"177 680 OFFCURVE",
"119 632 OFFCURVE",
"87 579 CURVE"
);
}
);
};
layerId = master01;
paths = (
{
closed = 0;
nodes = (
"75 123 LINE",
"94 49 OFFCURVE",
"166 -1 OFFCURVE",
"263 -1 CURVE SMOOTH",
"381 -1 OFFCURVE",
"456 73 OFFCURVE",
"456 175 CURVE SMOOTH",
"456 264 OFFCURVE",
"400 359 OFFCURVE",
"249 359 CURVE",
"218 359 LINE"
);
},
{
closed = 0;
nodes = (
"249 359 LINE",
"383 359 OFFCURVE",
"446 436 OFFCURVE",
"446 526 CURVE SMOOTH",
"446 608 OFFCURVE",
"392 680 OFFCURVE",
"273 680 CURVE SMOOTH",
"177 680 OFFCURVE",
"119 632 OFFCURVE",
"90 579 CURVE"
);
}
);
width = 566;
}
);
leftKerningGroup = zero;
rightKerningGroup = zero;
unicode = 0033;
},
{
glyphname = four;
layers = (
{
background = {
paths = (
{
closed = 0;
nodes = (
"385 0 LINE",
"385 670 LINE",
"375 670 LINE",
"65 164 LINE",
"65 160 LINE",
"509 160 LINE"
);
}
);
};
layerId = master01;
paths = (
{
closed = 0;
nodes = (
"385 0 LINE",
"385 670 LINE",
"375 670 LINE",
"65 164 LINE",
"65 160 LINE",
"509 160 LINE"
);
}
);
width = 569;
}
);
leftKerningGroup = four;
rightKerningGroup = four;
unicode = 0034;
},
{
glyphname = five;
layers = (
{
background = {
paths = (
{
closed = 0;
nodes = (
"95 138 LINE SMOOTH",
"127 49 OFFCURVE",
"193 0 OFFCURVE",
"276 0 CURVE SMOOTH",
"385 0 OFFCURVE",
"467 84 OFFCURVE",
"467 208 CURVE SMOOTH",
"467 325 OFFCURVE",
"393 415 OFFCURVE",
"274 415 CURVE SMOOTH",
"228 415 OFFCURVE",
"169 402 OFFCURVE",
"127 376 CURVE",
"137 670 LINE",
"449 670 LINE"
);
}
);
};
layerId = master01;
paths = (
{
closed = 0;
nodes = (
"95 138 LINE SMOOTH",
"127 49 OFFCURVE",
"193 0 OFFCURVE",
"276 0 CURVE SMOOTH",
"385 0 OFFCURVE",
"467 84 OFFCURVE",
"467 208 CURVE SMOOTH",
"467 325 OFFCURVE",
"393 415 OFFCURVE",
"274 415 CURVE SMOOTH",
"228 415 OFFCURVE",
"169 402 OFFCURVE",
"127 376 CURVE",
"137 670 LINE",
"449 670 LINE"
);
}
);
width = 558;
}
);
leftKerningGroup = five;
rightKerningGroup = five;
unicode = 0035;
},
{
glyphname = six;
layers = (
{
layerId = master01;
paths = (
{
closed = 0;
nodes = (
"360 680 LINE",
"201 468 LINE SMOOTH",
"119 359 OFFCURVE",
"90 284 OFFCURVE",
"90 205 CURVE SMOOTH",
"90 105 OFFCURVE",
"144 0 OFFCURVE",
"292 0 CURVE SMOOTH",
"420 0 OFFCURVE",
"492 84 OFFCURVE",
"492 198 CURVE SMOOTH",
"492 324 OFFCURVE",
"401 401 OFFCURVE",
"298 401 CURVE SMOOTH",
"229 401 OFFCURVE",
"151 368 OFFCURVE",
"105 297 CURVE SMOOTH"
);
}
);
width = 567;
}
);
leftKerningGroup = six;
leftMetricsKey = zero;
rightKerningGroup = six;
rightMetricsKey = "=zero-15";
unicode = 0036;
},
{
glyphname = seven;
layers = (
{
layerId = master01;
paths = (
{
closed = 0;
nodes = (
"126 0 LINE",
"445 666 LINE",
"445 670 LINE",
"40 670 LINE"
);
}
);
width = 495;
}
);
leftKerningGroup = seven;
rightKerningGroup = seven;
unicode = 0037;
},
{
glyphname = eight;
layers = (
{
background = {
paths = (
{
closed = 0;
nodes = (
"268 680 LINE",
"367 680 OFFCURVE",
"436 618 OFFCURVE",
"436 536 CURVE SMOOTH",
"436 353 OFFCURVE",
"80 372 OFFCURVE",
"80 160 CURVE SMOOTH",
"80 58 OFFCURVE",
"171 0 OFFCURVE",
"268 0 CURVE SMOOTH",
"365 0 OFFCURVE",
"459 57 OFFCURVE",
"459 160 CURVE SMOOTH",
"459 371 OFFCURVE",
"102 348 OFFCURVE",
"102 538 CURVE SMOOTH",
"102 610 OFFCURVE",
"156 680 OFFCURVE",
"266 680 CURVE"
);
}
);
};
layerId = master01;
paths = (
{
closed = 0;
nodes = (
"278 680 LINE",
"377 680 OFFCURVE",
"446 618 OFFCURVE",
"446 537 CURVE SMOOTH",
"446 353 OFFCURVE",
"90 370 OFFCURVE",
"90 162 CURVE SMOOTH",
"90 57 OFFCURVE",
"181 0 OFFCURVE",
"278 0 CURVE SMOOTH",
"374 0 OFFCURVE",
"469 56 OFFCURVE",
"469 162 CURVE SMOOTH",
"469 368 OFFCURVE",
"112 350 OFFCURVE",
"112 537 CURVE SMOOTH",
"112 610 OFFCURVE",
"166 680 OFFCURVE",
"276 680 CURVE"
);
}
);
width = 559;
}
);
leftKerningGroup = zero;
leftMetricsKey = zero;
rightKerningGroup = zero;
rightMetricsKey = zero;
unicode = 0038;
},
{
glyphname = nine;
layers = (
{
layerId = master01;
paths = (
{
closed = 0;
nodes = (
"207 0 LINE",
"366 212 LINE SMOOTH",
"448 321 OFFCURVE",
"477 396 OFFCURVE",
"477 475 CURVE SMOOTH",
"477 575 OFFCURVE",
"423 680 OFFCURVE",
"275 680 CURVE SMOOTH",
"147 680 OFFCURVE",
"75 596 OFFCURVE",
"75 482 CURVE SMOOTH",
"75 356 OFFCURVE",
"166 279 OFFCURVE",
"269 279 CURVE SMOOTH",
"338 279 OFFCURVE",
"416 312 OFFCURVE",
"462 383 CURVE SMOOTH"
);
}
);
width = 567;
}
);
leftKerningGroup = nine;
leftMetricsKey = "=zero-15";
rightKerningGroup = nine;
rightMetricsKey = zero;
unicode = 0039;
},
{
glyphname = zero.zero;
layers = (
{
layerId = master01;
paths = (
{
closed = 0;
nodes = (
"158 79 LINE",
"469 592 LINE"
);
},
{
closed = 0;
nodes = (
"310 680 LINE",
"162 680 OFFCURVE",
"90 527 OFFCURVE",
"90 337 CURVE SMOOTH",
"90 145 OFFCURVE",
"162 0 OFFCURVE",
"311 0 CURVE SMOOTH",
"460 0 OFFCURVE",
"532 145 OFFCURVE",
"532 337 CURVE SMOOTH",
"532 527 OFFCURVE",
"460 680 OFFCURVE",
"312 680 CURVE"
);
}
);
width = 622;
}
);
leftKerningGroup = zero;
leftMetricsKey = zero;
rightKerningGroup = zero;
rightMetricsKey = zero;
},
{
glyphname = zero.osf;
layers = (
{
background = {
paths = (
{
closed = 0;
nodes = (
"309 575 LINE SMOOTH",
"164 575 OFFCURVE",
"90 444 OFFCURVE",
"90 287 CURVE SMOOTH",
"90 125 OFFCURVE",
"166 0 OFFCURVE",
"310 0 CURVE SMOOTH",
"455 0 OFFCURVE",
"530 125 OFFCURVE",
"530 287 CURVE SMOOTH",
"530 444 OFFCURVE",
"456 575 OFFCURVE",
"311 575 CURVE"
);
}
);
};
layerId = master01;
paths = (
{
closed = 0;
nodes = (
"309 575 LINE SMOOTH",
"164 575 OFFCURVE",
"90 444 OFFCURVE",
"90 287 CURVE SMOOTH",
"90 125 OFFCURVE",
"166 0 OFFCURVE",
"310 0 CURVE SMOOTH",
"455 0 OFFCURVE",
"530 125 OFFCURVE",
"530 287 CURVE SMOOTH",
"530 444 OFFCURVE",
"456 575 OFFCURVE",
"311 575 CURVE"
);
}
);
width = 620;
}
);
leftKerningGroup = zero.osf;
rightKerningGroup = zero.osf;
},
{
glyphname = one.osf;
layers = (
{
layerId = master01;
paths = (
{
closed = 0;
nodes = (
"293 0 LINE",
"293 565 LINE",
"289 565 LINE",
"95 424 LINE"
);
}
);
width = 443;
}
);
leftKerningGroup = one.osf;
rightKerningGroup = one.osf;
},
{
glyphname = two.osf;
layers = (
{
background = {
paths = (
{
closed = 0;
nodes = (
"480 0 LINE",
"85 0 LINE",
"85 4 LINE",
"216 121 LINE SMOOTH",
"297 193 OFFCURVE",
"440 312 OFFCURVE",
"440 431 CURVE SMOOTH",
"440 510 OFFCURVE",
"383 575 OFFCURVE",
"282 575 CURVE SMOOTH",
"186 575 OFFCURVE",
"124 516 OFFCURVE",
"101 443 CURVE"
);
}
);
};
layerId = master01;
paths = (
{
closed = 0;
nodes = (
"480 0 LINE",
"85 0 LINE",
"85 4 LINE",
"216 121 LINE SMOOTH",
"297 193 OFFCURVE",
"440 312 OFFCURVE",
"440 431 CURVE SMOOTH",
"440 510 OFFCURVE",
"383 575 OFFCURVE",
"282 575 CURVE SMOOTH",
"186 575 OFFCURVE",
"124 516 OFFCURVE",
"101 443 CURVE"
);
}
);
width = 570;
},
{
associatedMasterId = master01;
background = {
paths = (
{
closed = 0;
nodes = (
"463 0 LINE",
"75 0 LINE",
"75 4 LINE",
"204 121 LINE SMOOTH",
"285 195 OFFCURVE",
"435 312 OFFCURVE",
"435 437 CURVE SMOOTH",
"435 510 OFFCURVE",
"384 575 OFFCURVE",
"273 575 CURVE SMOOTH",
"169 575 OFFCURVE",
"113 517 OFFCURVE",
"91 443 CURVE"
);
}
);
};
layerId = "F8202501-1B29-487A-B541-D93EABC9D375";
name = "Sep 17 21, 19:05";
paths = (
{
closed = 0;
nodes = (
"473 0 LINE",
"85 0 LINE",
"85 4 LINE",
"214 121 LINE SMOOTH",
"293 193 OFFCURVE",
"435 312 OFFCURVE",
"435 437 CURVE SMOOTH",
"435 510 OFFCURVE",
"387 575 OFFCURVE",
"283 575 CURVE SMOOTH",
"179 575 OFFCURVE",
"123 517 OFFCURVE",
"101 443 CURVE"
);
}
);
width = 563;
},
{
associatedMasterId = master01;
background = {
paths = (
{
closed = 0;
nodes = (
"464 -73 LINE",
"83 -73 LINE",
"83 -69 LINE",
"296 165 LINE SMOOTH",
"368 245 OFFCURVE",
"440 319 OFFCURVE",
"440 421 CURVE SMOOTH",
"440 525 OFFCURVE",
"365 575 OFFCURVE",
"282 575 CURVE SMOOTH",
"198 575 OFFCURVE",
"128 525 OFFCURVE",
"101 443 CURVE"
);
}
);
};
layerId = "44DBC83B-AF4E-4452-9284-D47C848D5190";
name = "Sep 18 21, 09:24";
paths = (
{
closed = 0;
nodes = (
"480 0 LINE",
"85 0 LINE",
"85 4 LINE",
"216 121 LINE SMOOTH",
"297 193 OFFCURVE",
"440 312 OFFCURVE",
"440 437 CURVE SMOOTH",
"440 510 OFFCURVE",
"392 575 OFFCURVE",
"283 575 CURVE SMOOTH",
"181 575 OFFCURVE",
"123 517 OFFCURVE",
"101 443 CURVE"
);
}
);
width = 570;
}
);
leftKerningGroup = two.osf;
rightKerningGroup = two.osf;
},
{
glyphname = three.osf;
layers = (
{
background = {
paths = (
{
closed = 0;
nodes = (
"65 7 LINE",
"82 -63 OFFCURVE",
"154 -117 OFFCURVE",
"250 -117 CURVE SMOOTH",
"364 -117 OFFCURVE",
"446 -41 OFFCURVE",
"446 67 CURVE SMOOTH",
"446 172 OFFCURVE",
"368 250 OFFCURVE",
"239 250 CURVE",
"208 250 LINE"
);
},
{
closed = 0;
nodes = (
"239 250 LINE",
"359 250 OFFCURVE",
"436 312 OFFCURVE",
"436 412 CURVE SMOOTH",
"436 492 OFFCURVE",
"387 575 OFFCURVE",
"261 575 CURVE SMOOTH",
"165 575 OFFCURVE",
"109 526 OFFCURVE",
"77 473 CURVE"
);
}
);
};
guideLines = (
{
position = "{289, -64}";
},
{
position = "{19, -165}";
}
);
layerId = master01;
paths = (
{
closed = 0;
nodes = (
"65 7 LINE",
"82 -63 OFFCURVE",
"154 -117 OFFCURVE",
"250 -117 CURVE SMOOTH",
"364 -117 OFFCURVE",
"446 -41 OFFCURVE",
"446 67 CURVE SMOOTH",
"446 172 OFFCURVE",
"368 250 OFFCURVE",
"239 250 CURVE",
"208 250 LINE"
);
},
{
closed = 0;
nodes = (
"239 250 LINE",
"359 250 OFFCURVE",
"436 312 OFFCURVE",
"436 412 CURVE SMOOTH",
"436 492 OFFCURVE",
"387 575 OFFCURVE",
"261 575 CURVE SMOOTH",
"165 575 OFFCURVE",
"109 526 OFFCURVE",
"80 473 CURVE"
);
}
);
width = 551;
}
);
leftKerningGroup = zero.osf;
rightKerningGroup = zero.osf;
},
{
glyphname = four.osf;
layers = (
{
background = {
paths = (
{
closed = 0;
nodes = (
"383 -133 LINE",
"383 565 LINE",
"373 565 LINE",
"60 31 LINE",
"60 27 LINE",
"507 27 LINE"
);
}
);
};
guideLines = (
{
position = "{124, -64}";
},
{
position = "{495, -64}";
},
{
position = "{545, -64}";
}
);
layerId = master01;
paths = (
{
closed = 0;
nodes = (
"383 -133 LINE",
"383 565 LINE",
"373 565 LINE",
"60 31 LINE",
"60 27 LINE",
"507 27 LINE"
);
}
);
width = 567;
}
);
leftKerningGroup = four.osf;
rightKerningGroup = four.osf;
},
{
glyphname = five.osf;
layers = (
{
background = {
paths = (
{
closed = 0;
nodes = (
"105 8 LINE SMOOTH",
"132 -66 OFFCURVE",
"201 -117 OFFCURVE",
"283 -117 CURVE SMOOTH",
"378 -117 OFFCURVE",
"468 -49 OFFCURVE",
"471 85 CURVE SMOOTH",
"474 205 OFFCURVE",
"401 295 OFFCURVE",
"276 295 CURVE SMOOTH",
"223 295 OFFCURVE",
"174 279 OFFCURVE",
"134 257 CURVE",
"144 565 LINE",
"454 565 LINE"
);
}
);
};
guideLines = (
{
position = "{47, -64}";
},
{
position = "{47, -165}";
},
{
position = "{47, 158}";
}
);
layerId = master01;
paths = (
{
closed = 0;
nodes = (
"105 8 LINE SMOOTH",
"132 -66 OFFCURVE",
"201 -117 OFFCURVE",
"283 -117 CURVE SMOOTH",
"378 -117 OFFCURVE",
"468 -49 OFFCURVE",
"471 85 CURVE SMOOTH",
"474 205 OFFCURVE",
"401 295 OFFCURVE",
"276 295 CURVE SMOOTH",
"223 295 OFFCURVE",
"174 279 OFFCURVE",
"134 257 CURVE",
"144 565 LINE",
"454 565 LINE"
);
}
);
width = 566;
}
);
leftKerningGroup = five.osf;
rightKerningGroup = five.osf;
},
{
glyphname = six.osf;
layers = (
{
background = {
paths = (
{
closed = 0;
nodes = (
"374 706 LINE",
"258 591 OFFCURVE",
"80 368 OFFCURVE",
"80 205 CURVE SMOOTH",
"80 123 OFFCURVE",
"131 0 OFFCURVE",
"282 0 CURVE SMOOTH",
"410 0 OFFCURVE",
"482 92 OFFCURVE",
"482 198 CURVE SMOOTH",
"482 311 OFFCURVE",
"401 401 OFFCURVE",
"287 401 CURVE SMOOTH",
"218 401 OFFCURVE",
"141 368 OFFCURVE",
"95 297 CURVE SMOOTH"
);
}
);
};
layerId = master01;
paths = (
{
closed = 0;
nodes = (
"384 706 LINE",
"268 591 OFFCURVE",
"90 368 OFFCURVE",
"90 205 CURVE SMOOTH",
"90 123 OFFCURVE",
"141 0 OFFCURVE",
"292 0 CURVE SMOOTH",
"420 0 OFFCURVE",
"492 92 OFFCURVE",
"492 198 CURVE SMOOTH",
"492 311 OFFCURVE",
"411 401 OFFCURVE",
"297 401 CURVE SMOOTH",
"228 401 OFFCURVE",
"151 368 OFFCURVE",
"105 297 CURVE SMOOTH"
);
}
);
width = 572;
}
);
leftKerningGroup = six.osf;
leftMetricsKey = zero.osf;
rightKerningGroup = six.osf;
rightMetricsKey = "=zero.osf-10";
},
{
glyphname = seven.osf;
layers = (
{
guideLines = (
{
position = "{48, 701}";
}
);
layerId = master01;
paths = (
{
closed = 0;
nodes = (
"112 -117 LINE",
"435 561 LINE",
"435 565 LINE",
"40 565 LINE"
);
}
);
width = 495;
}
);
leftKerningGroup = seven.osf;
rightKerningGroup = seven.osf;
},
{
glyphname = eight.osf;
layers = (
{
background = {
paths = (
{
closed = 0;
nodes = (
"268 706 LINE",
"367 706 OFFCURVE",
"436 655 OFFCURVE",
"436 569 CURVE SMOOTH",
"436 376 OFFCURVE",
"80 372 OFFCURVE",
"80 170 CURVE SMOOTH",
"80 70 OFFCURVE",
"156 0 OFFCURVE",
"270 0 CURVE SMOOTH",
"394 0 OFFCURVE",
"459 81 OFFCURVE",
"459 171 CURVE SMOOTH",
"459 360 OFFCURVE",
"103 379 OFFCURVE",
"102 571 CURVE SMOOTH",
"102 646 OFFCURVE",
"167 706 OFFCURVE",
"266 706 CURVE"
);
}
);
};
layerId = master01;
paths = (
{
closed = 0;
nodes = (
"278 706 LINE",
"377 706 OFFCURVE",
"446 655 OFFCURVE",
"446 569 CURVE SMOOTH",
"446 374 OFFCURVE",
"90 375 OFFCURVE",
"90 167 CURVE SMOOTH",
"90 71 OFFCURVE",
"166 0 OFFCURVE",
"280 0 CURVE SMOOTH",
"404 0 OFFCURVE",
"469 83 OFFCURVE",
"469 167 CURVE SMOOTH",
"469 363 OFFCURVE",
"112 381 OFFCURVE",
"112 567 CURVE SMOOTH",
"112 647 OFFCURVE",
"177 706 OFFCURVE",
"276 706 CURVE"
);
}
);
width = 559;
}
);
leftKerningGroup = zero.osf;
leftMetricsKey = zero.osf;
rightKerningGroup = zero.osf;
rightMetricsKey = zero.osf;
},
{
glyphname = nine.osf;
layers = (
{
layerId = master01;
paths = (
{
closed = 0;
nodes = (
"188 -131 LINE",
"304 -16 OFFCURVE",
"482 207 OFFCURVE",
"482 370 CURVE SMOOTH",
"482 452 OFFCURVE",
"431 575 OFFCURVE",
"280 575 CURVE SMOOTH",
"152 575 OFFCURVE",
"80 483 OFFCURVE",
"80 377 CURVE SMOOTH",
"80 264 OFFCURVE",
"161 174 OFFCURVE",
"275 174 CURVE SMOOTH",
"344 174 OFFCURVE",
"421 207 OFFCURVE",
"467 278 CURVE SMOOTH"
);
}
);
width = 572;
}
);
leftKerningGroup = nine.osf;
leftMetricsKey = "=zero.osf-10";
rightKerningGroup = nine.osf;
rightMetricsKey = zero.osf;
},
{
glyphname = zero.osf.zero;
layers = (
{
layerId = master01;
paths = (
{
closed = 0;
nodes = (
"168 59 LINE",
"457 510 LINE"
);
},
{
closed = 0;
nodes = (
"309 575 LINE SMOOTH",
"164 575 OFFCURVE",
"90 444 OFFCURVE",
"90 287 CURVE SMOOTH",
"90 125 OFFCURVE",
"166 0 OFFCURVE",
"310 0 CURVE SMOOTH",
"455 0 OFFCURVE",
"530 125 OFFCURVE",
"530 287 CURVE SMOOTH",
"530 444 OFFCURVE",
"456 575 OFFCURVE",
"311 575 CURVE"
);
}
);
width = 620;
}
);
leftKerningGroup = zero.osf;
leftMetricsKey = zero.osf;
rightKerningGroup = zero.osf;
rightMetricsKey = zero.osf;
},
{
glyphname = zero.subs;
layers = (
{
layerId = master01;
paths = (
{
closed = 0;
nodes = (
"155 275 LINE",
"81 275 OFFCURVE",
"45 199 OFFCURVE",
"45 104 CURVE SMOOTH",
"45 8 OFFCURVE",
"81 -65 OFFCURVE",
"156 -65 CURVE SMOOTH",
"230 -65 OFFCURVE",
"266 8 OFFCURVE",
"266 104 CURVE SMOOTH",
"266 199 OFFCURVE",
"230 275 OFFCURVE",
"156 275 CURVE"
);
}
);
width = 311;
}
);
leftKerningGroup = zero.dnom;
leftMetricsKey = zero.dnom;
rightKerningGroup = zero.dnom;
rightMetricsKey = zero.dnom;
},
{
glyphname = one.subs;
layers = (
{
layerId = master01;
paths = (
{
closed = 0;
nodes = (
"144 -65 LINE",
"144 270 LINE",
"142 270 LINE",
"35 195 LINE"
);
}
);
width = 224;
}
);
leftKerningGroup = one.dnom;
leftMetricsKey = one.dnom;
rightKerningGroup = one.dnom;
rightMetricsKey = one.dnom;
},
{
glyphname = two.subs;
layers = (
{
layerId = master01;
paths = (
{
closed = 0;
nodes = (
"232.5 -65 LINE",
"32.5 -65 LINE",
"32.5 -63 LINE",
"144 59.5 LINE SMOOTH",
"182 101.5 OFFCURVE",
"220 141 OFFCURVE",
"220 194.5 CURVE SMOOTH",
"220 249 OFFCURVE",
"180.5 275 OFFCURVE",
"137 275 CURVE SMOOTH",
"93 275 OFFCURVE",
"56.5 249 OFFCURVE",
"42 206 CURVE"
);
}
);
width = 275;
}
);
leftKerningGroup = two.dnom;
leftMetricsKey = two.dnom;
rightKerningGroup = two.dnom;
rightMetricsKey = two.dnom;
},
{
glyphname = three.subs;
layers = (
{
layerId = master01;
paths = (
{
closed = 0;
nodes = (
"37.5 -3.5 LINE",
"47 -40.5 OFFCURVE",
"83 -65.5 OFFCURVE",
"131.5 -65.5 CURVE SMOOTH",
"190.5 -65.5 OFFCURVE",
"228 -28.5 OFFCURVE",
"228 22.5 CURVE SMOOTH",
"228 67 OFFCURVE",
"200 114.5 OFFCURVE",
"124.5 114.5 CURVE",
"109 114.5 LINE"
);
},
{
closed = 0;
nodes = (
"124.5 114.5 LINE",
"191.5 114.5 OFFCURVE",
"223 153 OFFCURVE",
"223 198 CURVE SMOOTH",
"223 239 OFFCURVE",
"196 275 OFFCURVE",
"136.5 275 CURVE SMOOTH",
"88.5 275 OFFCURVE",
"59.5 251 OFFCURVE",
"45 224.5 CURVE"
);
}
);
width = 283;
}
);
leftKerningGroup = zero.dnom;
leftMetricsKey = three.dnom;
rightKerningGroup = zero.dnom;
rightMetricsKey = three.dnom;
},
{
glyphname = four.subs;
layers = (
{
layerId = master01;
paths = (
{
closed = 0;
nodes = (
"192.5 -65 LINE",
"192.5 269.933 LINE",
"187.5 269.933 LINE",
"32.5 16.984 LINE",
"32.5 14.984 LINE",
"254.5 14.984 LINE"
);
}
);
width = 285;
}
);
leftKerningGroup = four.dnom;
leftMetricsKey = four.dnom;
rightKerningGroup = four.dnom;
rightMetricsKey = four.dnom;
},
{
glyphname = five.subs;
layers = (
{
layerId = master01;
paths = (
{
closed = 0;
nodes = (
"47.5 4 LINE SMOOTH",
"63.5 -40.5 OFFCURVE",
"96.5 -65 OFFCURVE",
"138 -65 CURVE SMOOTH",
"192.5 -65 OFFCURVE",
"233.5 -23 OFFCURVE",
"233.5 39 CURVE SMOOTH",
"233.5 97.5 OFFCURVE",
"196.5 142.5 OFFCURVE",
"137 142.5 CURVE SMOOTH",
"114 142.5 OFFCURVE",
"84.5 136 OFFCURVE",
"63.5 123 CURVE",
"68.5 270 LINE",
"224.5 270 LINE"
);
}
);
width = 279;
}
);
leftKerningGroup = five.dnom;
leftMetricsKey = five.dnom;
rightKerningGroup = five.dnom;
rightMetricsKey = five.dnom;
},
{
glyphname = six.subs;
layers = (
{
layerId = master01;
paths = (
{
closed = 0;
nodes = (
"180 275 LINE",
"100.5 169 LINE SMOOTH",
"59.5 114.5 OFFCURVE",
"45 77 OFFCURVE",
"45 37.5 CURVE SMOOTH",
"45 -12.5 OFFCURVE",
"72 -65 OFFCURVE",
"146 -65 CURVE SMOOTH",
"210 -65 OFFCURVE",
"246 -23 OFFCURVE",
"246 34 CURVE SMOOTH",
"246 97 OFFCURVE",
"200.5 135.5 OFFCURVE",
"149 135.5 CURVE SMOOTH",
"114.5 135.5 OFFCURVE",
"75.5 119 OFFCURVE",
"52.5 83.5 CURVE SMOOTH"
);
}
);
width = 276;
}
);
leftKerningGroup = six.dnom;
leftMetricsKey = zero.dnom;
rightKerningGroup = six.dnom;
rightMetricsKey = "=zero.dnom-15";
},
{
glyphname = seven.subs;
layers = (
{
layerId = master01;
paths = (
{
closed = 0;
nodes = (
"63 -65 LINE",
"222.5 268 LINE",
"222.5 270 LINE",
"20 270 LINE"
);
}
);
width = 248;
}
);
leftKerningGroup = seven.dnom;
leftMetricsKey = seven.dnom;
rightKerningGroup = seven.dnom;
rightMetricsKey = seven.dnom;
},
{
glyphname = eight.subs;
layers = (
{
layerId = master01;
paths = (
{
closed = 0;
nodes = (
"139 275 LINE",
"188.5 275 OFFCURVE",
"223 244 OFFCURVE",
"223 203.5 CURVE SMOOTH",
"223 111.5 OFFCURVE",
"45 120 OFFCURVE",
"45 16 CURVE SMOOTH",
"45 -36.5 OFFCURVE",
"90.5 -65 OFFCURVE",
"139 -65 CURVE SMOOTH",
"187 -65 OFFCURVE",
"234.5 -37 OFFCURVE",
"234.5 16 CURVE SMOOTH",
"234.5 119 OFFCURVE",
"56 110 OFFCURVE",
"56 203.5 CURVE SMOOTH",
"56 240 OFFCURVE",
"83 275 OFFCURVE",
"138 275 CURVE"
);
}
);
width = 280;
}
);
leftKerningGroup = zero.dnom;
leftMetricsKey = zero.dnom;
rightKerningGroup = zero.dnom;
rightMetricsKey = zero.dnom;
},
{
glyphname = nine.subs;
layers = (
{
layerId = master01;
paths = (
{
closed = 0;
nodes = (
"95.5 -65 LINE",
"175 41 LINE SMOOTH",
"216 95.5 OFFCURVE",
"230.5 133 OFFCURVE",
"230.5 172.5 CURVE SMOOTH",
"230.5 222.5 OFFCURVE",
"203.5 275 OFFCURVE",
"129.5 275 CURVE SMOOTH",
"65.5 275 OFFCURVE",
"29.5 233 OFFCURVE",
"29.5 176 CURVE SMOOTH",
"29.5 113 OFFCURVE",
"75 74.5 OFFCURVE",
"126.5 74.5 CURVE SMOOTH",
"161 74.5 OFFCURVE",
"200 91 OFFCURVE",
"223 126.5 CURVE SMOOTH"
);
}
);
width = 276;
}
);
leftKerningGroup = nine.dnom;
leftMetricsKey = "=zero.dnom-15";
rightKerningGroup = nine.dnom;
rightMetricsKey = zero.dnom;
},
{
glyphname = zero.dnom;
layers = (
{
layerId = master01;
paths = (
{
closed = 0;
nodes = (
"155 340 LINE",
"81 340 OFFCURVE",
"45 263.5 OFFCURVE",
"45 168.5 CURVE SMOOTH",
"45 72.5 OFFCURVE",
"81 0 OFFCURVE",
"155.5 0 CURVE SMOOTH",
"230 0 OFFCURVE",
"266 72.5 OFFCURVE",
"266 168.5 CURVE SMOOTH",
"266 263.5 OFFCURVE",
"230 340 OFFCURVE",
"156 340 CURVE"
);
}
);
width = 311;
}
);
leftKerningGroup = zero.dnom;
rightKerningGroup = zero.dnom;
},
{
glyphname = one.dnom;
layers = (
{
layerId = master01;
paths = (
{
closed = 0;
nodes = (
"144 0 LINE",
"144 335 LINE",
"142 335 LINE",
"35 259.5 LINE"
);
}
);
width = 224;
}
);
leftKerningGroup = one.dnom;
rightKerningGroup = one.dnom;
},
{
glyphname = two.dnom;
layers = (
{
background = {
components = (
{
name = onehalf;
transform = "{1, 0, 0, 1, -356, 0}";
}
);
};
layerId = master01;
paths = (
{
closed = 0;
nodes = (
"232.5 0 LINE",
"32.5 0 LINE",
"32.5 2 LINE",
"144 124.5 LINE SMOOTH",
"182 166.5 OFFCURVE",
"220 206 OFFCURVE",
"220 259.5 CURVE SMOOTH",
"220 314 OFFCURVE",
"180.5 340 OFFCURVE",
"137 340 CURVE SMOOTH",
"93 340 OFFCURVE",
"56.5 314 OFFCURVE",
"42 271 CURVE"
);
}
);
width = 275;
}
);
leftKerningGroup = two.dnom;
rightKerningGroup = two.dnom;
},
{
glyphname = three.dnom;
layers = (
{
background = {
components = (
{
name = twothirds;
transform = "{1, 0, 0, 1, -397, 0}";
}
);
};
layerId = master01;
paths = (
{
closed = 0;
nodes = (
"37.5 61.5 LINE",
"47 24.5 OFFCURVE",
"83 -0.5 OFFCURVE",
"131.5 -0.5 CURVE SMOOTH",
"190.5 -0.5 OFFCURVE",
"228 36.5 OFFCURVE",
"228 87.5 CURVE SMOOTH",
"228 132 OFFCURVE",
"200 179.5 OFFCURVE",
"124.5 179.5 CURVE",
"109 179.5 LINE"
);
},
{
closed = 0;
nodes = (
"124.5 179.5 LINE",
"191.5 179.5 OFFCURVE",
"223 218 OFFCURVE",
"223 263 CURVE SMOOTH",
"223 304 OFFCURVE",
"196 340 OFFCURVE",
"136.5 340 CURVE SMOOTH",
"88.5 340 OFFCURVE",
"59.5 316 OFFCURVE",
"45 289.5 CURVE"
);
}
);
width = 283;
}
);
leftKerningGroup = zero.dnom;
rightKerningGroup = zero.dnom;
},
{
glyphname = four.dnom;
layers = (
{
background = {
components = (
{
name = onequarter;
transform = "{1, 0, 0, 1, -313, 0}";
}
);
};
layerId = master01;
paths = (
{
closed = 0;
nodes = (
"192.5 0 LINE",
"192.5 334.933 LINE",
"187.5 334.933 LINE",
"32.5 81.984 LINE",
"32.5 79.984 LINE",
"254.5 79.984 LINE"
);
}
);
width = 285;
}
);
leftKerningGroup = four.dnom;
rightKerningGroup = four.dnom;
},
{
glyphname = five.dnom;
layers = (
{
layerId = master01;
paths = (
{
closed = 0;
nodes = (
"47.5 69 LINE SMOOTH",
"63.5 24.5 OFFCURVE",
"96.5 0 OFFCURVE",
"138 0 CURVE SMOOTH",
"192.5 0 OFFCURVE",
"233.5 42 OFFCURVE",
"233.5 104 CURVE SMOOTH",
"233.5 162.5 OFFCURVE",
"196.5 207.5 OFFCURVE",
"137 207.5 CURVE SMOOTH",
"114 207.5 OFFCURVE",
"84.5 201 OFFCURVE",
"63.5 188 CURVE",
"68.5 335 LINE",
"224.5 335 LINE"
);
}
);
width = 279;
}
);
leftKerningGroup = five.dnom;
rightKerningGroup = five.dnom;
},
{
glyphname = six.dnom;
layers = (
{
layerId = master01;
paths = (
{
closed = 0;
nodes = (
"180 340 LINE",
"100.5 234 LINE SMOOTH",
"59.5 179.5 OFFCURVE",
"45 142 OFFCURVE",
"45 102.5 CURVE SMOOTH",
"45 52.5 OFFCURVE",
"72 0 OFFCURVE",
"146 0 CURVE SMOOTH",
"210 0 OFFCURVE",
"246 42 OFFCURVE",
"246 99 CURVE SMOOTH",
"246 162 OFFCURVE",
"200.5 200.5 OFFCURVE",
"149 200.5 CURVE SMOOTH",
"114.5 200.5 OFFCURVE",
"75.5 184 OFFCURVE",
"52.5 148.5 CURVE SMOOTH"
);
}
);
width = 276;
}
);
leftKerningGroup = six.dnom;
leftMetricsKey = zero.dnom;
rightKerningGroup = six.dnom;
rightMetricsKey = "=zero.dnom-15";
},
{
glyphname = seven.dnom;
layers = (
{
layerId = master01;
paths = (
{
closed = 0;
nodes = (
"63 0 LINE",
"222.5 333 LINE",
"222.5 335 LINE",
"20 335 LINE"
);
}
);
width = 248;
}
);
leftKerningGroup = seven.dnom;
rightKerningGroup = seven.dnom;
},
{
glyphname = eight.dnom;
layers = (
{
layerId = master01;
paths = (
{
closed = 0;
nodes = (
"139 340 LINE",
"188.5 340 OFFCURVE",
"223 309 OFFCURVE",
"223 268.5 CURVE SMOOTH",
"223 176.5 OFFCURVE",
"45 185 OFFCURVE",
"45 81 CURVE SMOOTH",
"45 28.5 OFFCURVE",
"90.5 0 OFFCURVE",
"139 0 CURVE SMOOTH",
"187 0 OFFCURVE",
"234.5 28 OFFCURVE",
"234.5 81 CURVE SMOOTH",
"234.5 184 OFFCURVE",
"56 175 OFFCURVE",
"56 268.5 CURVE SMOOTH",
"56 305 OFFCURVE",
"83 340 OFFCURVE",
"138 340 CURVE"
);
}
);
width = 280;
}
);
leftKerningGroup = zero.dnom;
leftMetricsKey = zero.dnom;
rightKerningGroup = zero.dnom;
rightMetricsKey = zero.dnom;
},
{
glyphname = nine.dnom;
layers = (
{
layerId = master01;
paths = (
{
closed = 0;
nodes = (
"95.5 0 LINE",
"175 106 LINE SMOOTH",
"216 160.5 OFFCURVE",
"230.5 198 OFFCURVE",
"230.5 237.5 CURVE SMOOTH",
"230.5 287.5 OFFCURVE",
"203.5 340 OFFCURVE",
"129.5 340 CURVE SMOOTH",
"65.5 340 OFFCURVE",
"29.5 298 OFFCURVE",
"29.5 241 CURVE SMOOTH",
"29.5 178 OFFCURVE",
"75 139.5 OFFCURVE",
"126.5 139.5 CURVE SMOOTH",
"161 139.5 OFFCURVE",
"200 156 OFFCURVE",
"223 191.5 CURVE SMOOTH"
);
}
);
width = 276;
}
);
leftKerningGroup = nine.dnom;
leftMetricsKey = "=zero.dnom-15";
rightKerningGroup = nine.dnom;
rightMetricsKey = zero.dnom;
},
{
glyphname = zero.numr;
layers = (
{
layerId = master01;
paths = (
{
closed = 0;
nodes = (
"155 680 LINE",
"81 680 OFFCURVE",
"45 603.5 OFFCURVE",
"45 508.5 CURVE SMOOTH",
"45 412.5 OFFCURVE",
"81 340 OFFCURVE",
"155.5 340 CURVE SMOOTH",
"230 340 OFFCURVE",
"266 412.5 OFFCURVE",
"266 508.5 CURVE SMOOTH",
"266 603.5 OFFCURVE",
"230 680 OFFCURVE",
"156 680 CURVE"
);
}
);
width = 311;
}
);
leftKerningGroup = zero.dnom;
leftMetricsKey = zero.dnom;
rightKerningGroup = zero.dnom;
rightMetricsKey = zero.dnom;
},
{
glyphname = one.numr;
layers = (
{
background = {
components = (
{
name = onehalf;
}
);
};
layerId = master01;
paths = (
{
closed = 0;
nodes = (
"144 340 LINE",
"144 675 LINE",
"142 675 LINE",
"35 599.5 LINE"
);
}
);
width = 224;
}
);
leftKerningGroup = one.dnom;
leftMetricsKey = one.dnom;
rightKerningGroup = one.dnom;
rightMetricsKey = one.dnom;
},
{
glyphname = two.numr;
layers = (
{
background = {
components = (
{
name = twothirds;
}
);
};
layerId = master01;
paths = (
{
closed = 0;
nodes = (
"232.5 340 LINE",
"32.5 340 LINE",
"32.5 342 LINE",
"144 464.5 LINE SMOOTH",
"182 506.5 OFFCURVE",
"220 546 OFFCURVE",
"220 599.5 CURVE SMOOTH",
"220 654 OFFCURVE",
"180.5 680 OFFCURVE",
"137 680 CURVE SMOOTH",
"93 680 OFFCURVE",
"56.5 654 OFFCURVE",
"42 611 CURVE"
);
}
);
width = 275;
}
);
leftKerningGroup = two.dnom;
leftMetricsKey = two.dnom;
rightKerningGroup = two.dnom;
rightMetricsKey = two.dnom;
},
{
glyphname = three.numr;
layers = (
{
background = {
components = (
{
name = threequarters;
}
);
};
layerId = master01;
paths = (
{
closed = 0;
nodes = (
"37.5 401.5 LINE",
"47 364.5 OFFCURVE",
"83 339.5 OFFCURVE",
"131.5 339.5 CURVE SMOOTH",
"190.5 339.5 OFFCURVE",
"228 376.5 OFFCURVE",
"228 427.5 CURVE SMOOTH",
"228 472 OFFCURVE",
"200 519.5 OFFCURVE",
"124.5 519.5 CURVE",
"109 519.5 LINE"
);
},
{
closed = 0;
nodes = (
"124.5 519.5 LINE",
"191.5 519.5 OFFCURVE",
"223 558 OFFCURVE",
"223 603 CURVE SMOOTH",
"223 644 OFFCURVE",
"196 680 OFFCURVE",
"136.5 680 CURVE SMOOTH",
"88.5 680 OFFCURVE",
"59.5 656 OFFCURVE",
"45 629.5 CURVE"
);
}
);
width = 283;
}
);
leftKerningGroup = zero.dnom;
leftMetricsKey = three.dnom;
rightKerningGroup = zero.dnom;
rightMetricsKey = three.dnom;
},
{
glyphname = four.numr;
layers = (
{
layerId = master01;
paths = (
{
closed = 0;
nodes = (
"192.5 340 LINE",
"192.5 674.933 LINE",
"187.5 674.933 LINE",
"32.5 421.984 LINE",
"32.5 419.984 LINE",
"254.5 419.984 LINE"
);
}
);
width = 285;
}
);
leftKerningGroup = four.dnom;
leftMetricsKey = four.dnom;
rightKerningGroup = four.dnom;
rightMetricsKey = four.dnom;
},
{
glyphname = five.numr;
layers = (
{
layerId = master01;
paths = (
{
closed = 0;
nodes = (
"47.5 409 LINE SMOOTH",
"63.5 364.5 OFFCURVE",
"96.5 340 OFFCURVE",
"138 340 CURVE SMOOTH",
"192.5 340 OFFCURVE",
"233.5 382 OFFCURVE",
"233.5 444 CURVE SMOOTH",
"233.5 502.5 OFFCURVE",
"196.5 547.5 OFFCURVE",
"137 547.5 CURVE SMOOTH",
"114 547.5 OFFCURVE",
"84.5 541 OFFCURVE",
"63.5 528 CURVE",
"68.5 675 LINE",
"224.5 675 LINE"
);
}
);
width = 279;
}
);
leftKerningGroup = five.dnom;
leftMetricsKey = five.dnom;
rightKerningGroup = five.dnom;
rightMetricsKey = five.dnom;
},
{
glyphname = six.numr;
layers = (
{
layerId = master01;
paths = (
{
closed = 0;
nodes = (
"180 680 LINE",
"100.5 574 LINE SMOOTH",
"59.5 519.5 OFFCURVE",
"45 482 OFFCURVE",
"45 442.5 CURVE SMOOTH",
"45 392.5 OFFCURVE",
"72 340 OFFCURVE",
"146 340 CURVE SMOOTH",
"210 340 OFFCURVE",
"246 382 OFFCURVE",
"246 439 CURVE SMOOTH",
"246 502 OFFCURVE",
"200.5 540.5 OFFCURVE",
"149 540.5 CURVE SMOOTH",
"114.5 540.5 OFFCURVE",
"75.5 524 OFFCURVE",
"52.5 488.5 CURVE SMOOTH"
);
}
);
width = 276;
}
);
leftKerningGroup = six.dnom;
leftMetricsKey = zero.dnom;
rightKerningGroup = six.dnom;
rightMetricsKey = "=zero.dnom-15";
},
{
glyphname = seven.numr;
layers = (
{
layerId = master01;
paths = (
{
closed = 0;
nodes = (
"63 340 LINE",
"222.5 673 LINE",
"222.5 675 LINE",
"20 675 LINE"
);
}
);
width = 248;
}
);
leftKerningGroup = seven.dnom;
leftMetricsKey = seven.dnom;
rightKerningGroup = seven.dnom;
rightMetricsKey = seven.dnom;
},
{
glyphname = eight.numr;
layers = (
{
layerId = master01;
paths = (
{
closed = 0;
nodes = (
"139 680 LINE",
"188.5 680 OFFCURVE",
"223 649 OFFCURVE",
"223 608.5 CURVE SMOOTH",
"223 516.5 OFFCURVE",
"45 525 OFFCURVE",
"45 421 CURVE SMOOTH",
"45 368.5 OFFCURVE",
"90.5 340 OFFCURVE",
"139 340 CURVE SMOOTH",
"187 340 OFFCURVE",
"234.5 368 OFFCURVE",
"234.5 421 CURVE SMOOTH",
"234.5 524 OFFCURVE",
"56 515 OFFCURVE",
"56 608.5 CURVE SMOOTH",
"56 645 OFFCURVE",
"83 680 OFFCURVE",
"138 680 CURVE"
);
}
);
width = 280;
}
);
leftKerningGroup = zero.dnom;
leftMetricsKey = zero.dnom;
rightKerningGroup = zero.dnom;
rightMetricsKey = zero.dnom;
},
{
glyphname = nine.numr;
layers = (
{
layerId = master01;
paths = (
{
closed = 0;
nodes = (
"95.5 340 LINE",
"175 446 LINE SMOOTH",
"216 500.5 OFFCURVE",
"230.5 538 OFFCURVE",
"230.5 577.5 CURVE SMOOTH",
"230.5 627.5 OFFCURVE",
"203.5 680 OFFCURVE",
"129.5 680 CURVE SMOOTH",
"65.5 680 OFFCURVE",
"29.5 638 OFFCURVE",
"29.5 581 CURVE SMOOTH",
"29.5 518 OFFCURVE",
"75 479.5 OFFCURVE",
"126.5 479.5 CURVE SMOOTH",
"161 479.5 OFFCURVE",
"200 496 OFFCURVE",
"223 531.5 CURVE SMOOTH"
);
}
);
width = 276;
}
);
leftKerningGroup = nine.dnom;
leftMetricsKey = "=zero.dnom-15";
rightKerningGroup = nine.dnom;
rightMetricsKey = zero.dnom;
},
{
glyphname = zerosuperior;
layers = (
{
layerId = master01;
paths = (
{
closed = 0;
nodes = (
"155 745 LINE",
"81 745 OFFCURVE",
"45 668.5 OFFCURVE",
"45 573.5 CURVE SMOOTH",
"45 477.5 OFFCURVE",
"81 405 OFFCURVE",
"155.5 405 CURVE SMOOTH",
"230 405 OFFCURVE",
"266 477.5 OFFCURVE",
"266 573.5 CURVE SMOOTH",
"266 668.5 OFFCURVE",
"230 745 OFFCURVE",
"156 745 CURVE"
);
}
);
width = 311;
}
);
leftKerningGroup = zero.dnom;
leftMetricsKey = zero.dnom;
rightKerningGroup = zero.dnom;
rightMetricsKey = zero.dnom;
unicode = 2070;
},
{
glyphname = onesuperior;
layers = (
{
layerId = master01;
paths = (
{
closed = 0;
nodes = (
"144 405 LINE",
"144 740 LINE",
"142 740 LINE",
"35 664.5 LINE"
);
}
);
width = 224;
}
);
leftKerningGroup = one.dnom;
leftMetricsKey = one.dnom;
rightKerningGroup = one.dnom;
rightMetricsKey = one.dnom;
unicode = 00B9;
},
{
glyphname = twosuperior;
layers = (
{
layerId = master01;
paths = (
{
closed = 0;
nodes = (
"232.5 405 LINE",
"32.5 405 LINE",
"32.5 407 LINE",
"144 529.5 LINE SMOOTH",
"182 571.5 OFFCURVE",
"220 611 OFFCURVE",
"220 664.5 CURVE SMOOTH",
"220 719 OFFCURVE",
"180.5 745 OFFCURVE",
"137 745 CURVE SMOOTH",
"93 745 OFFCURVE",
"56.5 719 OFFCURVE",
"42 676 CURVE"
);
}
);
width = 275;
}
);
leftKerningGroup = two.dnom;
leftMetricsKey = two.dnom;
rightKerningGroup = two.dnom;
rightMetricsKey = two.dnom;
unicode = 00B2;
},
{
glyphname = threesuperior;
layers = (
{
layerId = master01;
paths = (
{
closed = 0;
nodes = (
"37.5 466.5 LINE",
"47 429.5 OFFCURVE",
"83 404.5 OFFCURVE",
"131.5 404.5 CURVE SMOOTH",
"190.5 404.5 OFFCURVE",
"228 441.5 OFFCURVE",
"228 492.5 CURVE SMOOTH",
"228 537 OFFCURVE",
"200 584.5 OFFCURVE",
"124.5 584.5 CURVE",
"109 584.5 LINE"
);
},
{
closed = 0;
nodes = (
"124.5 584.5 LINE",
"191.5 584.5 OFFCURVE",
"223 623 OFFCURVE",
"223 668 CURVE SMOOTH",
"223 709 OFFCURVE",
"196 745 OFFCURVE",
"136.5 745 CURVE SMOOTH",
"88.5 745 OFFCURVE",
"59.5 721 OFFCURVE",
"45 694.5 CURVE"
);
}
);
width = 283;
}
);
leftKerningGroup = zero.dnom;
leftMetricsKey = three.dnom;
rightKerningGroup = zero.dnom;
rightMetricsKey = three.dnom;
unicode = 00B3;
},
{
glyphname = foursuperior;
layers = (
{
layerId = master01;
paths = (
{
closed = 0;
nodes = (
"192.5 405 LINE",
"192.5 739.933 LINE",
"187.5 739.933 LINE",
"32.5 486.984 LINE",
"32.5 484.984 LINE",
"254.5 484.984 LINE"
);
}
);
width = 285;
}
);
leftKerningGroup = four.dnom;
leftMetricsKey = four.dnom;
rightKerningGroup = four.dnom;
rightMetricsKey = four.dnom;
unicode = 2074;
},
{
glyphname = fivesuperior;
layers = (
{
layerId = master01;
paths = (
{
closed = 0;
nodes = (
"47.5 474 LINE SMOOTH",
"63.5 429.5 OFFCURVE",
"96.5 405 OFFCURVE",
"138 405 CURVE SMOOTH",
"192.5 405 OFFCURVE",
"233.5 447 OFFCURVE",
"233.5 509 CURVE SMOOTH",
"233.5 567.5 OFFCURVE",
"196.5 612.5 OFFCURVE",
"137 612.5 CURVE SMOOTH",
"114 612.5 OFFCURVE",
"84.5 606 OFFCURVE",
"63.5 593 CURVE",
"68.5 740 LINE",
"224.5 740 LINE"
);
}
);
width = 279;
}
);
leftKerningGroup = five.dnom;
leftMetricsKey = five.dnom;
rightKerningGroup = five.dnom;
rightMetricsKey = five.dnom;
unicode = 2075;
},
{
glyphname = sixsuperior;
layers = (
{
layerId = master01;
paths = (
{
closed = 0;
nodes = (
"180 745 LINE",
"100.5 639 LINE SMOOTH",
"59.5 584.5 OFFCURVE",
"45 547 OFFCURVE",
"45 507.5 CURVE SMOOTH",
"45 457.5 OFFCURVE",
"72 405 OFFCURVE",
"146 405 CURVE SMOOTH",
"210 405 OFFCURVE",
"246 447 OFFCURVE",
"246 504 CURVE SMOOTH",
"246 567 OFFCURVE",
"200.5 605.5 OFFCURVE",
"149 605.5 CURVE SMOOTH",
"114.5 605.5 OFFCURVE",
"75.5 589 OFFCURVE",
"52.5 553.5 CURVE SMOOTH"
);
}
);
width = 276;
}
);
leftKerningGroup = six.dnom;
leftMetricsKey = zero.dnom;
rightKerningGroup = six.dnom;
rightMetricsKey = "=zero.dnom-15";
unicode = 2076;
},
{
glyphname = sevensuperior;
layers = (
{
layerId = master01;
paths = (
{
closed = 0;
nodes = (
"63 405 LINE",
"222.5 738 LINE",
"222.5 740 LINE",
"20 740 LINE"
);
}
);
width = 248;
}
);
leftKerningGroup = seven.dnom;
leftMetricsKey = seven.dnom;
rightKerningGroup = seven.dnom;
rightMetricsKey = seven.dnom;
unicode = 2077;
},
{
glyphname = eightsuperior;
layers = (
{
layerId = master01;
paths = (
{
closed = 0;
nodes = (
"139 745 LINE",
"188.5 745 OFFCURVE",
"223 714 OFFCURVE",
"223 673.5 CURVE SMOOTH",
"223 581.5 OFFCURVE",
"45 590 OFFCURVE",
"45 486 CURVE SMOOTH",
"45 433.5 OFFCURVE",
"90.5 405 OFFCURVE",
"139 405 CURVE SMOOTH",
"187 405 OFFCURVE",
"234.5 433 OFFCURVE",
"234.5 486 CURVE SMOOTH",
"234.5 589 OFFCURVE",
"56 580 OFFCURVE",
"56 673.5 CURVE SMOOTH",
"56 710 OFFCURVE",
"83 745 OFFCURVE",
"138 745 CURVE"
);
}
);
width = 280;
}
);
leftKerningGroup = zero.dnom;
leftMetricsKey = zero.dnom;
rightKerningGroup = zero.dnom;
rightMetricsKey = zero.dnom;
unicode = 2078;
},
{
glyphname = ninesuperior;
layers = (
{
layerId = master01;
paths = (
{
closed = 0;
nodes = (
"95.5 405 LINE",
"175 511 LINE SMOOTH",
"216 565.5 OFFCURVE",
"230.5 603 OFFCURVE",
"230.5 642.5 CURVE SMOOTH",
"230.5 692.5 OFFCURVE",
"203.5 745 OFFCURVE",
"129.5 745 CURVE SMOOTH",
"65.5 745 OFFCURVE",
"29.5 703 OFFCURVE",
"29.5 646 CURVE SMOOTH",
"29.5 583 OFFCURVE",
"75 544.5 OFFCURVE",
"126.5 544.5 CURVE SMOOTH",
"161 544.5 OFFCURVE",
"200 561 OFFCURVE",
"223 596.5 CURVE SMOOTH"
);
}
);
width = 276;
}
);
leftKerningGroup = nine.dnom;
leftMetricsKey = "=zero.dnom-15";
rightKerningGroup = nine.dnom;
rightMetricsKey = zero.dnom;
unicode = 2079;
},
{
glyphname = fraction;
layers = (
{
layerId = master01;
paths = (
{
closed = 0;
nodes = (
"-120 0 LINE",
"237 680 LINE"
);
}
);
width = 117;
}
);
leftKerningGroup = fraction;
rightKerningGroup = fraction;
unicode = 2044;
},
{
glyphname = onehalf;
layers = (
{
layerId = master01;
paths = (
{
closed = 0;
nodes = (
"114 0 LINE",
"471 680 LINE"
);
},
{
closed = 0;
nodes = (
"144 340 LINE",
"144 675 LINE",
"142 675 LINE",
"35 599.5 LINE"
);
},
{
closed = 0;
nodes = (
"588.5 0 LINE",
"388.5 0 LINE",
"388.5 2 LINE",
"500 124.5 LINE SMOOTH",
"538 166.5 OFFCURVE",
"576 206 OFFCURVE",
"576 259.5 CURVE SMOOTH",
"576 314 OFFCURVE",
"536.5 340 OFFCURVE",
"493 340 CURVE SMOOTH",
"449 340 OFFCURVE",
"412.5 314 OFFCURVE",
"398 271 CURVE"
);
}
);
width = 631;
}
);
leftKerningGroup = onehalf;
rightKerningGroup = onehalf;
unicode = 00BD;
},
{
glyphname = onethird;
layers = (
{
layerId = master01;
paths = (
{
closed = 0;
nodes = (
"393.5 61.5 LINE",
"403 24.5 OFFCURVE",
"439 -0.5 OFFCURVE",
"487.5 -0.5 CURVE SMOOTH",
"546.5 -0.5 OFFCURVE",
"584 36.5 OFFCURVE",
"584 87.5 CURVE SMOOTH",
"584 132 OFFCURVE",
"556 179.5 OFFCURVE",
"480.5 179.5 CURVE",
"465 179.5 LINE"
);
},
{
closed = 0;
nodes = (
"480.5 179.5 LINE",
"547.5 179.5 OFFCURVE",
"579 218 OFFCURVE",
"579 263 CURVE SMOOTH",
"579 304 OFFCURVE",
"552 340 OFFCURVE",
"492.5 340 CURVE SMOOTH",
"444.5 340 OFFCURVE",
"415.5 316 OFFCURVE",
"401 289.5 CURVE"
);
},
{
closed = 0;
nodes = (
"114 0 LINE",
"471 680 LINE"
);
},
{
closed = 0;
nodes = (
"144 340 LINE",
"144 675 LINE",
"142 675 LINE",
"35 599.5 LINE"
);
}
);
userData = {
com.schriftgestaltung.Glyphs.lastChange = "2021-03-17 07:33:32 +0000";
};
width = 639;
}
);
leftKerningGroup = onehalf;
rightKerningGroup = onethird;
unicode = 2153;
},
{
glyphname = twothirds;
layers = (
{
layerId = master01;
paths = (
{
closed = 0;
nodes = (
"232.5 340 LINE",
"32.5 340 LINE",
"32.5 342 LINE",
"144 464.5 LINE SMOOTH",
"182 506.5 OFFCURVE",
"220 546 OFFCURVE",
"220 599.5 CURVE SMOOTH",
"220 654 OFFCURVE",
"180.5 680 OFFCURVE",
"137 680 CURVE SMOOTH",
"93 680 OFFCURVE",
"56.5 654 OFFCURVE",
"42 611 CURVE"
);
},
{
closed = 0;
nodes = (
"434.5 61.5 LINE",
"444 24.5 OFFCURVE",
"480 -0.5 OFFCURVE",
"528.5 -0.5 CURVE SMOOTH",
"587.5 -0.5 OFFCURVE",
"625 36.5 OFFCURVE",
"625 87.5 CURVE SMOOTH",
"625 132 OFFCURVE",
"597 179.5 OFFCURVE",
"521.5 179.5 CURVE",
"506 179.5 LINE"
);
},
{
closed = 0;
nodes = (
"521.5 179.5 LINE",
"588.5 179.5 OFFCURVE",
"620 218 OFFCURVE",
"620 263 CURVE SMOOTH",
"620 304 OFFCURVE",
"593 340 OFFCURVE",
"533.5 340 CURVE SMOOTH",
"485.5 340 OFFCURVE",
"456.5 316 OFFCURVE",
"442 289.5 CURVE"
);
},
{
closed = 0;
nodes = (
"155 0 LINE",
"512 680 LINE"
);
}
);
userData = {
com.schriftgestaltung.Glyphs.lastChange = "2021-03-17 07:33:32 +0000";
};
width = 660;
}
);
leftKerningGroup = twothirds;
rightKerningGroup = onethird;
unicode = 2154;
},
{
glyphname = onequarter;
layers = (
{
layerId = master01;
paths = (
{
closed = 0;
nodes = (
"505.5 0 LINE",
"505.5 334.933 LINE",
"500.5 334.933 LINE",
"345.5 81.984 LINE",
"345.5 79.984 LINE",
"567.5 79.984 LINE"
);
},
{
closed = 0;
nodes = (
"114 0 LINE",
"471 680 LINE"
);
},
{
closed = 0;
nodes = (
"144 340 LINE",
"144 675 LINE",
"142 675 LINE",
"35 599.5 LINE"
);
}
);
width = 598;
}
);
leftKerningGroup = onehalf;
rightKerningGroup = onequarter;
unicode = 00BC;
},
